<svg width="658" height="63" viewBox="0 0 658 63" fill="none" xmlns="http://www.w3.org/2000/svg">
<rect x="1" y="28" width="6" height="11" rx="1" stroke="#00AA13" stroke-width="2"/>
<rect x="4" y="17" width="16" height="22" rx="2" fill="white" stroke="#00AA13" stroke-width="2"/>
<circle cx="12.5" cy="28.5" r="3.5" fill="#00AA13"/>
<circle cx="6" cy="19" r="2" stroke="#00AA13" stroke-width="2"/>
<circle cx="18" cy="19" r="2" stroke="#00AA13" stroke-width="2"/>
<path d="M35.266 36C35.1047 36 34.9727 35.9487 34.87 35.846C34.7673 35.7433 34.716 35.6187 34.716 35.472V21.15C34.716 20.9887 34.7673 20.8567 34.87 20.754C34.9727 20.6513 35.1047 20.6 35.266 20.6H37.004C37.2093 20.6 37.3633 20.6587 37.466 20.776C37.5687 20.8787 37.6347 20.9593 37.664 21.018L41.91 28.938L46.2 21.018C46.2293 20.9593 46.2953 20.8787 46.398 20.776C46.5007 20.6587 46.6547 20.6 46.86 20.6H48.576C48.7373 20.6 48.8693 20.6513 48.972 20.754C49.0747 20.8567 49.126 20.9887 49.126 21.15V35.472C49.126 35.6187 49.0747 35.7433 48.972 35.846C48.8693 35.9487 48.7373 36 48.576 36H46.728C46.5667 36 46.4347 35.9487 46.332 35.846C46.244 35.7433 46.2 35.6187 46.2 35.472V25.946L43.12 31.82C43.0467 31.952 42.9513 32.0693 42.834 32.172C42.7167 32.26 42.5627 32.304 42.372 32.304H41.47C41.2647 32.304 41.1033 32.26 40.986 32.172C40.8833 32.0693 40.7953 31.952 40.722 31.82L37.642 25.946V35.472C37.642 35.6187 37.5907 35.7433 37.488 35.846C37.3853 35.9487 37.2607 36 37.114 36H35.266ZM57.212 36.22C55.584 36.22 54.2934 35.7507 53.34 34.812C52.3867 33.8733 51.8734 32.5387 51.8 30.808C51.7854 30.6613 51.778 30.478 51.778 30.258C51.778 30.0233 51.7854 29.84 51.8 29.708C51.8587 28.608 52.108 27.6547 52.548 26.848C53.0027 26.0413 53.626 25.4253 54.418 25C55.21 24.56 56.1414 24.34 57.212 24.34C58.4 24.34 59.3974 24.5893 60.204 25.088C61.0107 25.572 61.6194 26.254 62.03 27.134C62.4407 27.9993 62.646 29.004 62.646 30.148V30.61C62.646 30.7567 62.5947 30.8813 62.492 30.984C62.3894 31.0867 62.2574 31.138 62.096 31.138H54.792C54.792 31.138 54.792 31.16 54.792 31.204C54.792 31.248 54.792 31.2847 54.792 31.314C54.8067 31.8273 54.902 32.304 55.078 32.744C55.2687 33.1693 55.54 33.514 55.892 33.778C56.2587 34.042 56.6914 34.174 57.19 34.174C57.6007 34.174 57.9454 34.1153 58.224 33.998C58.5027 33.866 58.73 33.7193 58.906 33.558C59.082 33.3967 59.2067 33.2647 59.28 33.162C59.412 32.986 59.5147 32.8833 59.588 32.854C59.676 32.81 59.8007 32.788 59.962 32.788H61.854C62.0007 32.788 62.118 32.832 62.206 32.92C62.3087 33.008 62.3527 33.118 62.338 33.25C62.3234 33.4847 62.1987 33.7707 61.964 34.108C61.744 34.4453 61.4214 34.7753 60.996 35.098C60.5707 35.4207 60.0354 35.692 59.39 35.912C58.7594 36.1173 58.0334 36.22 57.212 36.22ZM54.792 29.29H59.654V29.224C59.654 28.652 59.5587 28.1533 59.368 27.728C59.1774 27.3027 58.8987 26.9653 58.532 26.716C58.1654 26.4667 57.7254 26.342 57.212 26.342C56.6987 26.342 56.2587 26.4667 55.892 26.716C55.5254 26.9653 55.2467 27.3027 55.056 27.728C54.88 28.1533 54.792 28.652 54.792 29.224V29.29ZM70.1083 36C69.2283 36 68.4877 35.846 67.8863 35.538C67.285 35.23 66.8377 34.7753 66.5443 34.174C66.251 33.558 66.1043 32.7953 66.1043 31.886V26.892H64.3663C64.2197 26.892 64.095 26.8407 63.9923 26.738C63.8897 26.6353 63.8383 26.5107 63.8383 26.364V25.088C63.8383 24.9413 63.8897 24.8167 63.9923 24.714C64.095 24.6113 64.2197 24.56 64.3663 24.56H66.1043V20.908C66.1043 20.7613 66.1483 20.6367 66.2363 20.534C66.339 20.4313 66.471 20.38 66.6323 20.38H68.4143C68.561 20.38 68.6857 20.4313 68.7883 20.534C68.891 20.6367 68.9423 20.7613 68.9423 20.908V24.56H71.6923C71.839 24.56 71.9637 24.6113 72.0663 24.714C72.169 24.8167 72.2203 24.9413 72.2203 25.088V26.364C72.2203 26.5107 72.169 26.6353 72.0663 26.738C71.9637 26.8407 71.839 26.892 71.6923 26.892H68.9423V31.666C68.9423 32.2673 69.045 32.7367 69.2503 33.074C69.4703 33.4113 69.8443 33.58 70.3723 33.58H71.8903C72.037 33.58 72.1617 33.6313 72.2643 33.734C72.367 33.8367 72.4183 33.9613 72.4183 34.108V35.472C72.4183 35.6187 72.367 35.7433 72.2643 35.846C72.1617 35.9487 72.037 36 71.8903 36H70.1083ZM79.43 36.22C78.2566 36.22 77.2666 36.0147 76.46 35.604C75.668 35.1933 75.0593 34.614 74.634 33.866C74.2233 33.118 73.9886 32.2453 73.93 31.248C73.9153 30.984 73.908 30.6613 73.908 30.28C73.908 29.8987 73.9153 29.576 73.93 29.312C73.9886 28.3 74.2306 27.4273 74.656 26.694C75.096 25.946 75.712 25.3667 76.504 24.956C77.3106 24.5453 78.286 24.34 79.43 24.34C80.574 24.34 81.542 24.5453 82.334 24.956C83.1406 25.3667 83.7566 25.946 84.182 26.694C84.622 27.4273 84.8713 28.3 84.93 29.312C84.9446 29.576 84.952 29.8987 84.952 30.28C84.952 30.6613 84.9446 30.984 84.93 31.248C84.8713 32.2453 84.6293 33.118 84.204 33.866C83.7933 34.614 83.1846 35.1933 82.378 35.604C81.586 36.0147 80.6033 36.22 79.43 36.22ZM79.43 34.042C80.2073 34.042 80.8086 33.8 81.234 33.316C81.6593 32.8173 81.894 32.0913 81.938 31.138C81.9526 30.918 81.96 30.632 81.96 30.28C81.96 29.928 81.9526 29.642 81.938 29.422C81.894 28.4833 81.6593 27.7647 81.234 27.266C80.8086 26.7673 80.2073 26.518 79.43 26.518C78.6526 26.518 78.0513 26.7673 77.626 27.266C77.2006 27.7647 76.966 28.4833 76.922 29.422C76.9073 29.642 76.9 29.928 76.9 30.28C76.9 30.632 76.9073 30.918 76.922 31.138C76.966 32.0913 77.2006 32.8173 77.626 33.316C78.0513 33.8 78.6526 34.042 79.43 34.042ZM91.6355 36.22C90.8728 36.22 90.1982 36.0953 89.6115 35.846C89.0395 35.582 88.5628 35.2153 88.1815 34.746C87.8002 34.2767 87.5068 33.7267 87.3015 33.096C87.0962 32.4507 86.9788 31.7467 86.9495 30.984C86.9348 30.72 86.9275 30.4853 86.9275 30.28C86.9275 30.06 86.9348 29.818 86.9495 29.554C86.9788 28.8207 87.0888 28.1387 87.2795 27.508C87.4848 26.8773 87.7782 26.3273 88.1595 25.858C88.5555 25.374 89.0395 25 89.6115 24.736C90.1982 24.472 90.8728 24.34 91.6355 24.34C92.4275 24.34 93.0948 24.4793 93.6375 24.758C94.1948 25.022 94.6568 25.3667 95.0235 25.792V20.908C95.0235 20.7613 95.0675 20.6367 95.1555 20.534C95.2582 20.4313 95.3902 20.38 95.5515 20.38H97.4215C97.5682 20.38 97.6928 20.4313 97.7955 20.534C97.8982 20.6367 97.9495 20.7613 97.9495 20.908V35.472C97.9495 35.6187 97.8982 35.7433 97.7955 35.846C97.6928 35.9487 97.5682 36 97.4215 36H95.6835C95.5222 36 95.3902 35.9487 95.2875 35.846C95.1995 35.7433 95.1555 35.6187 95.1555 35.472V34.658C94.7888 35.1127 94.3195 35.4867 93.7475 35.78C93.1902 36.0733 92.4862 36.22 91.6355 36.22ZM92.4495 33.866C93.0655 33.866 93.5568 33.7267 93.9235 33.448C94.2902 33.1693 94.5615 32.8173 94.7375 32.392C94.9135 31.952 95.0088 31.5047 95.0235 31.05C95.0382 30.786 95.0455 30.5073 95.0455 30.214C95.0455 29.906 95.0382 29.62 95.0235 29.356C95.0088 28.916 94.9062 28.498 94.7155 28.102C94.5248 27.6913 94.2462 27.354 93.8795 27.09C93.5128 26.826 93.0362 26.694 92.4495 26.694C91.8335 26.694 91.3422 26.8333 90.9755 27.112C90.6235 27.376 90.3668 27.728 90.2055 28.168C90.0442 28.608 89.9488 29.092 89.9195 29.62C89.9048 30.06 89.9048 30.5 89.9195 30.94C89.9488 31.468 90.0442 31.952 90.2055 32.392C90.3668 32.832 90.6235 33.1913 90.9755 33.47C91.3422 33.734 91.8335 33.866 92.4495 33.866ZM105.81 36.22C104.182 36.22 102.891 35.7507 101.938 34.812C100.984 33.8733 100.471 32.5387 100.398 30.808C100.383 30.6613 100.376 30.478 100.376 30.258C100.376 30.0233 100.383 29.84 100.398 29.708C100.456 28.608 100.706 27.6547 101.146 26.848C101.6 26.0413 102.224 25.4253 103.016 25C103.808 24.56 104.739 24.34 105.81 24.34C106.998 24.34 107.995 24.5893 108.802 25.088C109.608 25.572 110.217 26.254 110.628 27.134C111.038 27.9993 111.244 29.004 111.244 30.148V30.61C111.244 30.7567 111.192 30.8813 111.09 30.984C110.987 31.0867 110.855 31.138 110.694 31.138H103.39C103.39 31.138 103.39 31.16 103.39 31.204C103.39 31.248 103.39 31.2847 103.39 31.314C103.404 31.8273 103.5 32.304 103.676 32.744C103.866 33.1693 104.138 33.514 104.49 33.778C104.856 34.042 105.289 34.174 105.788 34.174C106.198 34.174 106.543 34.1153 106.822 33.998C107.1 33.866 107.328 33.7193 107.504 33.558C107.68 33.3967 107.804 33.2647 107.878 33.162C108.01 32.986 108.112 32.8833 108.186 32.854C108.274 32.81 108.398 32.788 108.56 32.788H110.452C110.598 32.788 110.716 32.832 110.804 32.92C110.906 33.008 110.95 33.118 110.936 33.25C110.921 33.4847 110.796 33.7707 110.562 34.108C110.342 34.4453 110.019 34.7753 109.594 35.098C109.168 35.4207 108.633 35.692 107.988 35.912C107.357 36.1173 106.631 36.22 105.81 36.22ZM103.39 29.29H108.252V29.224C108.252 28.652 108.156 28.1533 107.966 27.728C107.775 27.3027 107.496 26.9653 107.13 26.716C106.763 26.4667 106.323 26.342 105.81 26.342C105.296 26.342 104.856 26.4667 104.49 26.716C104.123 26.9653 103.844 27.3027 103.654 27.728C103.478 28.1533 103.39 28.652 103.39 29.224V29.29ZM119.398 36C119.252 36 119.127 35.9487 119.024 35.846C118.922 35.7433 118.87 35.6187 118.87 35.472V21.15C118.87 20.9887 118.922 20.8567 119.024 20.754C119.127 20.6513 119.252 20.6 119.398 20.6H125.294C126.438 20.6 127.436 20.7833 128.286 21.15C129.137 21.502 129.797 22.0447 130.266 22.778C130.736 23.4967 130.97 24.3987 130.97 25.484C130.97 26.584 130.736 27.4933 130.266 28.212C129.797 28.916 129.137 29.444 128.286 29.796C127.436 30.148 126.438 30.324 125.294 30.324H122.016V35.472C122.016 35.6187 121.965 35.7433 121.862 35.846C121.774 35.9487 121.65 36 121.488 36H119.398ZM121.972 27.882H125.184C126.035 27.882 126.688 27.684 127.142 27.288C127.597 26.8773 127.824 26.276 127.824 25.484C127.824 24.7507 127.612 24.164 127.186 23.724C126.761 23.2693 126.094 23.042 125.184 23.042H121.972V27.882ZM137.886 36.22C136.258 36.22 134.967 35.7507 134.014 34.812C133.061 33.8733 132.547 32.5387 132.474 30.808C132.459 30.6613 132.452 30.478 132.452 30.258C132.452 30.0233 132.459 29.84 132.474 29.708C132.533 28.608 132.782 27.6547 133.222 26.848C133.677 26.0413 134.3 25.4253 135.092 25C135.884 24.56 136.815 24.34 137.886 24.34C139.074 24.34 140.071 24.5893 140.878 25.088C141.685 25.572 142.293 26.254 142.704 27.134C143.115 27.9993 143.32 29.004 143.32 30.148V30.61C143.32 30.7567 143.269 30.8813 143.166 30.984C143.063 31.0867 142.931 31.138 142.77 31.138H135.466C135.466 31.138 135.466 31.16 135.466 31.204C135.466 31.248 135.466 31.2847 135.466 31.314C135.481 31.8273 135.576 32.304 135.752 32.744C135.943 33.1693 136.214 33.514 136.566 33.778C136.933 34.042 137.365 34.174 137.864 34.174C138.275 34.174 138.619 34.1153 138.898 33.998C139.177 33.866 139.404 33.7193 139.58 33.558C139.756 33.3967 139.881 33.2647 139.954 33.162C140.086 32.986 140.189 32.8833 140.262 32.854C140.35 32.81 140.475 32.788 140.636 32.788H142.528C142.675 32.788 142.792 32.832 142.88 32.92C142.983 33.008 143.027 33.118 143.012 33.25C142.997 33.4847 142.873 33.7707 142.638 34.108C142.418 34.4453 142.095 34.7753 141.67 35.098C141.245 35.4207 140.709 35.692 140.064 35.912C139.433 36.1173 138.707 36.22 137.886 36.22ZM135.466 29.29H140.328V29.224C140.328 28.652 140.233 28.1533 140.042 27.728C139.851 27.3027 139.573 26.9653 139.206 26.716C138.839 26.4667 138.399 26.342 137.886 26.342C137.373 26.342 136.933 26.4667 136.566 26.716C136.199 26.9653 135.921 27.3027 135.73 27.728C135.554 28.1533 135.466 28.652 135.466 29.224V29.29ZM146.183 36C146.036 36 145.912 35.9487 145.809 35.846C145.706 35.7433 145.655 35.6187 145.655 35.472V25.088C145.655 24.9413 145.706 24.8167 145.809 24.714C145.912 24.6113 146.036 24.56 146.183 24.56H147.899C148.046 24.56 148.17 24.6113 148.273 24.714C148.376 24.8167 148.427 24.9413 148.427 25.088V25.836C148.735 25.4253 149.146 25.0807 149.659 24.802C150.187 24.5087 150.81 24.3547 151.529 24.34C153.201 24.3107 154.367 24.9633 155.027 26.298C155.364 25.7113 155.848 25.242 156.479 24.89C157.124 24.5233 157.836 24.34 158.613 24.34C159.376 24.34 160.065 24.516 160.681 24.868C161.312 25.22 161.803 25.7553 162.155 26.474C162.522 27.178 162.705 28.0727 162.705 29.158V35.472C162.705 35.6187 162.654 35.7433 162.551 35.846C162.448 35.9487 162.324 36 162.177 36H160.373C160.226 36 160.102 35.9487 159.999 35.846C159.896 35.7433 159.845 35.6187 159.845 35.472V29.334C159.845 28.674 159.75 28.1533 159.559 27.772C159.368 27.376 159.112 27.0973 158.789 26.936C158.466 26.7747 158.107 26.694 157.711 26.694C157.388 26.694 157.066 26.7747 156.743 26.936C156.42 27.0973 156.156 27.376 155.951 27.772C155.746 28.1533 155.643 28.674 155.643 29.334V35.472C155.643 35.6187 155.592 35.7433 155.489 35.846C155.386 35.9487 155.262 36 155.115 36H153.311C153.15 36 153.018 35.9487 152.915 35.846C152.827 35.7433 152.783 35.6187 152.783 35.472V29.334C152.783 28.674 152.68 28.1533 152.475 27.772C152.27 27.376 152.006 27.0973 151.683 26.936C151.36 26.7747 151.016 26.694 150.649 26.694C150.312 26.694 149.982 26.782 149.659 26.958C149.336 27.1193 149.072 27.3907 148.867 27.772C148.662 28.1533 148.559 28.674 148.559 29.334V35.472C148.559 35.6187 148.508 35.7433 148.405 35.846C148.302 35.9487 148.178 36 148.031 36H146.183ZM171.843 36.22C170.992 36.22 170.281 36.0733 169.709 35.78C169.151 35.4867 168.689 35.1127 168.323 34.658V35.472C168.323 35.6187 168.271 35.7433 168.169 35.846C168.081 35.9487 167.956 36 167.795 36H166.057C165.91 36 165.785 35.9487 165.683 35.846C165.58 35.7433 165.529 35.6187 165.529 35.472V20.908C165.529 20.7613 165.58 20.6367 165.683 20.534C165.785 20.4313 165.91 20.38 166.057 20.38H167.927C168.088 20.38 168.213 20.4313 168.301 20.534C168.403 20.6367 168.455 20.7613 168.455 20.908V25.792C168.821 25.3667 169.276 25.022 169.819 24.758C170.376 24.4793 171.051 24.34 171.843 24.34C172.62 24.34 173.295 24.472 173.867 24.736C174.439 25 174.915 25.374 175.297 25.858C175.693 26.3273 175.993 26.8773 176.199 27.508C176.404 28.1387 176.514 28.8207 176.529 29.554C176.543 29.818 176.551 30.06 176.551 30.28C176.551 30.4853 176.543 30.72 176.529 30.984C176.499 31.7467 176.382 32.4507 176.177 33.096C175.971 33.7267 175.678 34.2767 175.297 34.746C174.915 35.2153 174.439 35.582 173.867 35.846C173.295 36.0953 172.62 36.22 171.843 36.22ZM171.029 33.866C171.659 33.866 172.151 33.734 172.503 33.47C172.855 33.1913 173.104 32.832 173.251 32.392C173.412 31.952 173.507 31.468 173.537 30.94C173.566 30.5 173.566 30.06 173.537 29.62C173.507 29.092 173.412 28.608 173.251 28.168C173.104 27.728 172.855 27.376 172.503 27.112C172.151 26.8333 171.659 26.694 171.029 26.694C170.442 26.694 169.965 26.826 169.599 27.09C169.232 27.354 168.953 27.6913 168.763 28.102C168.572 28.498 168.469 28.916 168.455 29.356C168.44 29.62 168.433 29.906 168.433 30.214C168.433 30.5073 168.44 30.786 168.455 31.05C168.484 31.5047 168.579 31.952 168.741 32.392C168.917 32.8173 169.188 33.1693 169.555 33.448C169.936 33.7267 170.427 33.866 171.029 33.866ZM182.321 36.22C181.558 36.22 180.869 36.0733 180.253 35.78C179.637 35.472 179.146 35.0687 178.779 34.57C178.427 34.0567 178.251 33.4847 178.251 32.854C178.251 31.8273 178.662 31.0133 179.483 30.412C180.319 29.796 181.419 29.3853 182.783 29.18L185.797 28.74V28.278C185.797 27.662 185.643 27.1853 185.335 26.848C185.027 26.5107 184.499 26.342 183.751 26.342C183.223 26.342 182.79 26.452 182.453 26.672C182.13 26.8773 181.888 27.156 181.727 27.508C181.61 27.6987 181.441 27.794 181.221 27.794H179.483C179.322 27.794 179.197 27.75 179.109 27.662C179.036 27.574 178.999 27.4567 178.999 27.31C179.014 27.0753 179.109 26.7893 179.285 26.452C179.461 26.1147 179.74 25.792 180.121 25.484C180.502 25.1613 180.994 24.89 181.595 24.67C182.196 24.45 182.922 24.34 183.773 24.34C184.697 24.34 185.474 24.4573 186.105 24.692C186.75 24.912 187.264 25.2127 187.645 25.594C188.026 25.9753 188.305 26.4227 188.481 26.936C188.657 27.4493 188.745 27.992 188.745 28.564V35.472C188.745 35.6187 188.694 35.7433 188.591 35.846C188.488 35.9487 188.364 36 188.217 36H186.435C186.274 36 186.142 35.9487 186.039 35.846C185.951 35.7433 185.907 35.6187 185.907 35.472V34.614C185.716 34.8927 185.46 35.1567 185.137 35.406C184.814 35.6407 184.418 35.8387 183.949 36C183.494 36.1467 182.952 36.22 182.321 36.22ZM183.069 34.13C183.582 34.13 184.044 34.02 184.455 33.8C184.88 33.58 185.21 33.2427 185.445 32.788C185.694 32.3187 185.819 31.732 185.819 31.028V30.566L183.619 30.918C182.754 31.05 182.108 31.2627 181.683 31.556C181.258 31.8493 181.045 32.2087 181.045 32.634C181.045 32.9567 181.14 33.2353 181.331 33.47C181.536 33.69 181.793 33.8587 182.101 33.976C182.409 34.0787 182.732 34.13 183.069 34.13ZM193.334 40.18C193.217 40.18 193.114 40.136 193.026 40.048C192.938 39.96 192.894 39.8573 192.894 39.74C192.894 39.6813 192.894 39.6227 192.894 39.564C192.909 39.52 192.938 39.4613 192.982 39.388L194.698 35.318L190.474 25.352C190.416 25.2053 190.386 25.1027 190.386 25.044C190.401 24.912 190.452 24.802 190.54 24.714C190.628 24.6113 190.738 24.56 190.87 24.56H192.652C192.828 24.56 192.96 24.604 193.048 24.692C193.136 24.78 193.202 24.8753 193.246 24.978L196.172 32.172L199.186 24.978C199.23 24.8607 199.296 24.7653 199.384 24.692C199.472 24.604 199.604 24.56 199.78 24.56H201.54C201.658 24.56 201.76 24.604 201.848 24.692C201.951 24.78 202.002 24.8827 202.002 25C202.002 25.088 201.973 25.2053 201.914 25.352L195.688 39.762C195.63 39.8793 195.556 39.9747 195.468 40.048C195.38 40.136 195.248 40.18 195.072 40.18H193.334ZM206.77 36.22C206.007 36.22 205.318 36.0733 204.702 35.78C204.086 35.472 203.595 35.0687 203.228 34.57C202.876 34.0567 202.7 33.4847 202.7 32.854C202.7 31.8273 203.111 31.0133 203.932 30.412C204.768 29.796 205.868 29.3853 207.232 29.18L210.246 28.74V28.278C210.246 27.662 210.092 27.1853 209.784 26.848C209.476 26.5107 208.948 26.342 208.2 26.342C207.672 26.342 207.239 26.452 206.902 26.672C206.579 26.8773 206.337 27.156 206.176 27.508C206.059 27.6987 205.89 27.794 205.67 27.794H203.932C203.771 27.794 203.646 27.75 203.558 27.662C203.485 27.574 203.448 27.4567 203.448 27.31C203.463 27.0753 203.558 26.7893 203.734 26.452C203.91 26.1147 204.189 25.792 204.57 25.484C204.951 25.1613 205.443 24.89 206.044 24.67C206.645 24.45 207.371 24.34 208.222 24.34C209.146 24.34 209.923 24.4573 210.554 24.692C211.199 24.912 211.713 25.2127 212.094 25.594C212.475 25.9753 212.754 26.4227 212.93 26.936C213.106 27.4493 213.194 27.992 213.194 28.564V35.472C213.194 35.6187 213.143 35.7433 213.04 35.846C212.937 35.9487 212.813 36 212.666 36H210.884C210.723 36 210.591 35.9487 210.488 35.846C210.4 35.7433 210.356 35.6187 210.356 35.472V34.614C210.165 34.8927 209.909 35.1567 209.586 35.406C209.263 35.6407 208.867 35.8387 208.398 36C207.943 36.1467 207.401 36.22 206.77 36.22ZM207.518 34.13C208.031 34.13 208.493 34.02 208.904 33.8C209.329 33.58 209.659 33.2427 209.894 32.788C210.143 32.3187 210.268 31.732 210.268 31.028V30.566L208.068 30.918C207.203 31.05 206.557 31.2627 206.132 31.556C205.707 31.8493 205.494 32.2087 205.494 32.634C205.494 32.9567 205.589 33.2353 205.78 33.47C205.985 33.69 206.242 33.8587 206.55 33.976C206.858 34.0787 207.181 34.13 207.518 34.13ZM216.544 36C216.398 36 216.273 35.9487 216.17 35.846C216.068 35.7433 216.016 35.6187 216.016 35.472V25.11C216.016 24.9487 216.068 24.8167 216.17 24.714C216.273 24.6113 216.398 24.56 216.544 24.56H218.326C218.473 24.56 218.598 24.6113 218.7 24.714C218.818 24.8167 218.876 24.9487 218.876 25.11V26.012C219.214 25.5427 219.646 25.1833 220.174 24.934C220.717 24.6847 221.34 24.56 222.044 24.56H222.946C223.108 24.56 223.232 24.6113 223.32 24.714C223.423 24.8167 223.474 24.9413 223.474 25.088V26.672C223.474 26.8187 223.423 26.9433 223.32 27.046C223.232 27.1487 223.108 27.2 222.946 27.2H221.23C220.526 27.2 219.976 27.398 219.58 27.794C219.199 28.19 219.008 28.7327 219.008 29.422V35.472C219.008 35.6187 218.957 35.7433 218.854 35.846C218.752 35.9487 218.62 36 218.458 36H216.544ZM228.34 36.22C227.578 36.22 226.888 36.0733 226.272 35.78C225.656 35.472 225.165 35.0687 224.798 34.57C224.446 34.0567 224.27 33.4847 224.27 32.854C224.27 31.8273 224.681 31.0133 225.502 30.412C226.338 29.796 227.438 29.3853 228.802 29.18L231.816 28.74V28.278C231.816 27.662 231.662 27.1853 231.354 26.848C231.046 26.5107 230.518 26.342 229.77 26.342C229.242 26.342 228.81 26.452 228.472 26.672C228.15 26.8773 227.908 27.156 227.746 27.508C227.629 27.6987 227.46 27.794 227.24 27.794H225.502C225.341 27.794 225.216 27.75 225.128 27.662C225.055 27.574 225.018 27.4567 225.018 27.31C225.033 27.0753 225.128 26.7893 225.304 26.452C225.48 26.1147 225.759 25.792 226.14 25.484C226.522 25.1613 227.013 24.89 227.614 24.67C228.216 24.45 228.942 24.34 229.792 24.34C230.716 24.34 231.494 24.4573 232.124 24.692C232.77 24.912 233.283 25.2127 233.664 25.594C234.046 25.9753 234.324 26.4227 234.5 26.936C234.676 27.4493 234.764 27.992 234.764 28.564V35.472C234.764 35.6187 234.713 35.7433 234.61 35.846C234.508 35.9487 234.383 36 234.236 36H232.454C232.293 36 232.161 35.9487 232.058 35.846C231.97 35.7433 231.926 35.6187 231.926 35.472V34.614C231.736 34.8927 231.479 35.1567 231.156 35.406C230.834 35.6407 230.438 35.8387 229.968 36C229.514 36.1467 228.971 36.22 228.34 36.22ZM229.088 34.13C229.602 34.13 230.064 34.02 230.474 33.8C230.9 33.58 231.23 33.2427 231.464 32.788C231.714 32.3187 231.838 31.732 231.838 31.028V30.566L229.638 30.918C228.773 31.05 228.128 31.2627 227.702 31.556C227.277 31.8493 227.064 32.2087 227.064 32.634C227.064 32.9567 227.16 33.2353 227.35 33.47C227.556 33.69 227.812 33.8587 228.12 33.976C228.428 34.0787 228.751 34.13 229.088 34.13ZM238.115 36C237.968 36 237.843 35.9487 237.741 35.846C237.638 35.7433 237.587 35.6187 237.587 35.472V25.088C237.587 24.9413 237.638 24.8167 237.741 24.714C237.843 24.6113 237.968 24.56 238.115 24.56H239.919C240.065 24.56 240.19 24.6113 240.293 24.714C240.395 24.8167 240.447 24.9413 240.447 25.088V25.99C240.828 25.5207 241.312 25.132 241.899 24.824C242.5 24.5013 243.241 24.34 244.121 24.34C245.015 24.34 245.793 24.5453 246.453 24.956C247.113 25.352 247.619 25.9167 247.971 26.65C248.337 27.3833 248.521 28.2633 248.521 29.29V35.472C248.521 35.6187 248.469 35.7433 248.367 35.846C248.264 35.9487 248.139 36 247.993 36H246.057C245.91 36 245.785 35.9487 245.683 35.846C245.58 35.7433 245.529 35.6187 245.529 35.472V29.422C245.529 28.5713 245.316 27.904 244.891 27.42C244.48 26.936 243.879 26.694 243.087 26.694C242.324 26.694 241.715 26.936 241.261 27.42C240.806 27.904 240.579 28.5713 240.579 29.422V35.472C240.579 35.6187 240.527 35.7433 240.425 35.846C240.322 35.9487 240.197 36 240.051 36H238.115Z" fill="#2F2828"/>
<path d="M273.494 26.8162L264.937 18.4897C264.777 18.3345 264.587 18.2113 264.379 18.1273C264.171 18.0433 263.947 18 263.721 18C263.266 18 262.829 18.1762 262.506 18.4897C262.347 18.645 262.22 18.8294 262.134 19.0322C262.047 19.2351 262.003 19.4525 262.003 19.6721C262.003 20.1156 262.184 20.5409 262.506 20.8545L269.865 27.9986L262.506 35.1427C262.346 35.2975 262.219 35.4817 262.132 35.6846C262.045 35.8875 262 36.1052 262 36.3251C262 36.5449 262.045 36.7626 262.132 36.9655C262.219 37.1684 262.346 37.3526 262.506 37.5074C262.665 37.6635 262.855 37.7874 263.063 37.8719C263.272 37.9565 263.495 38 263.721 38C263.947 38 264.171 37.9565 264.38 37.8719C264.588 37.7874 264.777 37.6635 264.937 37.5074L273.494 29.1809C273.654 29.0261 273.781 28.8419 273.868 28.639C273.955 28.4361 274 28.2184 274 27.9986C274 27.7787 273.955 27.5611 273.868 27.3581C273.781 27.1552 273.654 26.971 273.494 26.8162Z" fill="#646363"/>
<g filter="url(#filter0_d_8_2134)">
<rect x="520" y="4" width="126" height="47" rx="23.5" fill="white"/>
</g>
<path d="M542.64 34C542.427 34 542.26 33.9467 542.14 33.84C542.02 33.7333 541.933 33.6 541.88 33.44L537.6 20.6C537.573 20.5333 537.56 20.4733 537.56 20.42C537.56 20.3 537.6 20.2 537.68 20.12C537.76 20.04 537.86 20 537.98 20H539.74C539.927 20 540.067 20.0533 540.16 20.16C540.267 20.2533 540.333 20.3467 540.36 20.44L543.74 30.74L547.1 20.44C547.14 20.3467 547.207 20.2533 547.3 20.16C547.407 20.0533 547.553 20 547.74 20H549.5C549.607 20 549.7 20.04 549.78 20.12C549.873 20.2 549.92 20.3 549.92 20.42C549.92 20.4733 549.907 20.5333 549.88 20.6L545.6 33.44C545.547 33.6 545.46 33.7333 545.34 33.84C545.22 33.9467 545.053 34 544.84 34H542.64ZM555.342 34.2C554.275 34.2 553.375 34.0133 552.642 33.64C551.922 33.2667 551.369 32.74 550.982 32.06C550.609 31.38 550.395 30.5867 550.342 29.68C550.329 29.44 550.322 29.1467 550.322 28.8C550.322 28.4533 550.329 28.16 550.342 27.92C550.395 27 550.615 26.2067 551.002 25.54C551.402 24.86 551.962 24.3333 552.682 23.96C553.415 23.5867 554.302 23.4 555.342 23.4C556.382 23.4 557.262 23.5867 557.982 23.96C558.715 24.3333 559.275 24.86 559.662 25.54C560.062 26.2067 560.289 27 560.342 27.92C560.355 28.16 560.362 28.4533 560.362 28.8C560.362 29.1467 560.355 29.44 560.342 29.68C560.289 30.5867 560.069 31.38 559.682 32.06C559.309 32.74 558.755 33.2667 558.022 33.64C557.302 34.0133 556.409 34.2 555.342 34.2ZM555.342 32.22C556.049 32.22 556.595 32 556.982 31.56C557.369 31.1067 557.582 30.4467 557.622 29.58C557.635 29.38 557.642 29.12 557.642 28.8C557.642 28.48 557.635 28.22 557.622 28.02C557.582 27.1667 557.369 26.5133 556.982 26.06C556.595 25.6067 556.049 25.38 555.342 25.38C554.635 25.38 554.089 25.6067 553.702 26.06C553.315 26.5133 553.102 27.1667 553.062 28.02C553.049 28.22 553.042 28.48 553.042 28.8C553.042 29.12 553.049 29.38 553.062 29.58C553.102 30.4467 553.315 31.1067 553.702 31.56C554.089 32 554.635 32.22 555.342 32.22ZM566.438 34.2C565.624 34.2 564.918 34.02 564.318 33.66C563.731 33.2867 563.278 32.7667 562.958 32.1C562.638 31.42 562.478 30.62 562.478 29.7V24.08C562.478 23.9467 562.524 23.8333 562.618 23.74C562.711 23.6467 562.824 23.6 562.958 23.6H564.718C564.864 23.6 564.978 23.6467 565.058 23.74C565.151 23.8333 565.198 23.9467 565.198 24.08V29.58C565.198 31.2333 565.924 32.06 567.378 32.06C568.071 32.06 568.618 31.84 569.018 31.4C569.431 30.96 569.638 30.3533 569.638 29.58V24.08C569.638 23.9467 569.684 23.8333 569.778 23.74C569.871 23.6467 569.984 23.6 570.118 23.6H571.878C572.011 23.6 572.124 23.6467 572.218 23.74C572.311 23.8333 572.358 23.9467 572.358 24.08V33.52C572.358 33.6533 572.311 33.7667 572.218 33.86C572.124 33.9533 572.011 34 571.878 34H570.258C570.111 34 569.991 33.9533 569.898 33.86C569.818 33.7667 569.778 33.6533 569.778 33.52V32.7C569.418 33.1667 568.971 33.5333 568.438 33.8C567.904 34.0667 567.238 34.2 566.438 34.2ZM579.5 34.2C578.54 34.2 577.693 34.02 576.96 33.66C576.24 33.3 575.673 32.78 575.26 32.1C574.86 31.4067 574.64 30.5733 574.6 29.6C574.586 29.4 574.58 29.14 574.58 28.82C574.58 28.4867 574.586 28.2133 574.6 28C574.64 27.0267 574.86 26.2 575.26 25.52C575.673 24.8267 576.24 24.3 576.96 23.94C577.693 23.58 578.54 23.4 579.5 23.4C580.353 23.4 581.08 23.52 581.68 23.76C582.28 24 582.773 24.3 583.16 24.66C583.546 25.02 583.833 25.4 584.02 25.8C584.22 26.1867 584.326 26.54 584.34 26.86C584.353 27.0067 584.306 27.1267 584.2 27.22C584.106 27.3 583.993 27.34 583.86 27.34H582.1C581.966 27.34 581.86 27.3067 581.78 27.24C581.713 27.1733 581.646 27.0733 581.58 26.94C581.38 26.4067 581.113 26.0333 580.78 25.82C580.46 25.5933 580.046 25.48 579.54 25.48C578.873 25.48 578.34 25.6933 577.94 26.12C577.553 26.5333 577.346 27.1933 577.32 28.1C577.293 28.6067 577.293 29.0733 577.32 29.5C577.346 30.42 577.553 31.0867 577.94 31.5C578.34 31.9133 578.873 32.12 579.54 32.12C580.06 32.12 580.48 32.0133 580.8 31.8C581.12 31.5733 581.38 31.1933 581.58 30.66C581.646 30.5267 581.713 30.4267 581.78 30.36C581.86 30.2933 581.966 30.26 582.1 30.26H583.86C583.993 30.26 584.106 30.3067 584.2 30.4C584.306 30.48 584.353 30.5933 584.34 30.74C584.326 30.98 584.26 31.2533 584.14 31.56C584.033 31.8533 583.853 32.16 583.6 32.48C583.36 32.7867 583.053 33.0733 582.68 33.34C582.306 33.5933 581.853 33.8 581.32 33.96C580.8 34.12 580.193 34.2 579.5 34.2ZM586.925 34C586.792 34 586.679 33.9533 586.585 33.86C586.492 33.7667 586.445 33.6533 586.445 33.52V20.28C586.445 20.1467 586.492 20.0333 586.585 19.94C586.679 19.8467 586.792 19.8 586.925 19.8H588.705C588.852 19.8 588.965 19.8467 589.045 19.94C589.139 20.0333 589.185 20.1467 589.185 20.28V24.84C589.545 24.4133 589.985 24.0667 590.505 23.8C591.025 23.5333 591.665 23.4 592.425 23.4C593.239 23.4 593.945 23.5867 594.545 23.96C595.159 24.32 595.632 24.8333 595.965 25.5C596.299 26.1667 596.465 26.9667 596.465 27.9V33.52C596.465 33.6533 596.419 33.7667 596.325 33.86C596.232 33.9533 596.119 34 595.985 34H594.185C594.052 34 593.939 33.9533 593.845 33.86C593.752 33.7667 593.705 33.6533 593.705 33.52V28.02C593.705 27.2467 593.512 26.64 593.125 26.2C592.752 25.76 592.205 25.54 591.485 25.54C590.792 25.54 590.232 25.76 589.805 26.2C589.392 26.64 589.185 27.2467 589.185 28.02V33.52C589.185 33.6533 589.139 33.7667 589.045 33.86C588.965 33.9533 588.852 34 588.705 34H586.925ZM603.484 34.2C602.004 34.2 600.83 33.7733 599.964 32.92C599.097 32.0667 598.63 30.8533 598.564 29.28C598.55 29.1467 598.544 28.98 598.544 28.78C598.544 28.5667 598.55 28.4 598.564 28.28C598.617 27.28 598.844 26.4133 599.244 25.68C599.657 24.9467 600.224 24.3867 600.944 24C601.664 23.6 602.51 23.4 603.484 23.4C604.564 23.4 605.47 23.6267 606.204 24.08C606.937 24.52 607.49 25.14 607.864 25.94C608.237 26.7267 608.424 27.64 608.424 28.68V29.1C608.424 29.2333 608.377 29.3467 608.284 29.44C608.19 29.5333 608.07 29.58 607.924 29.58H601.284C601.284 29.58 601.284 29.6 601.284 29.64C601.284 29.68 601.284 29.7133 601.284 29.74C601.297 30.2067 601.384 30.64 601.544 31.04C601.717 31.4267 601.964 31.74 602.284 31.98C602.617 32.22 603.01 32.34 603.464 32.34C603.837 32.34 604.15 32.2867 604.404 32.18C604.657 32.06 604.864 31.9267 605.024 31.78C605.184 31.6333 605.297 31.5133 605.364 31.42C605.484 31.26 605.577 31.1667 605.644 31.14C605.724 31.1 605.837 31.08 605.984 31.08H607.704C607.837 31.08 607.944 31.12 608.024 31.2C608.117 31.28 608.157 31.38 608.144 31.5C608.13 31.7133 608.017 31.9733 607.804 32.28C607.604 32.5867 607.31 32.8867 606.924 33.18C606.537 33.4733 606.05 33.72 605.464 33.92C604.89 34.1067 604.23 34.2 603.484 34.2ZM601.284 27.9H605.704V27.84C605.704 27.32 605.617 26.8667 605.444 26.48C605.27 26.0933 605.017 25.7867 604.684 25.56C604.35 25.3333 603.95 25.22 603.484 25.22C603.017 25.22 602.617 25.3333 602.284 25.56C601.95 25.7867 601.697 26.0933 601.524 26.48C601.364 26.8667 601.284 27.32 601.284 27.84V27.9ZM611.027 34C610.893 34 610.78 33.9533 610.687 33.86C610.593 33.7667 610.547 33.6533 610.547 33.52V24.1C610.547 23.9533 610.593 23.8333 610.687 23.74C610.78 23.6467 610.893 23.6 611.027 23.6H612.647C612.78 23.6 612.893 23.6467 612.987 23.74C613.093 23.8333 613.147 23.9533 613.147 24.1V24.92C613.453 24.4933 613.847 24.1667 614.327 23.94C614.82 23.7133 615.387 23.6 616.027 23.6H616.847C616.993 23.6 617.107 23.6467 617.187 23.74C617.28 23.8333 617.327 23.9467 617.327 24.08V25.52C617.327 25.6533 617.28 25.7667 617.187 25.86C617.107 25.9533 616.993 26 616.847 26H615.287C614.647 26 614.147 26.18 613.787 26.54C613.44 26.9 613.267 27.3933 613.267 28.02V33.52C613.267 33.6533 613.22 33.7667 613.127 33.86C613.033 33.9533 612.913 34 612.767 34H611.027ZM622.826 34.2C622.026 34.2 621.34 34.1067 620.766 33.92C620.206 33.7333 619.746 33.5 619.386 33.22C619.026 32.94 618.76 32.66 618.586 32.38C618.413 32.1 618.32 31.8667 618.306 31.68C618.293 31.5333 618.333 31.42 618.426 31.34C618.533 31.2467 618.646 31.2 618.766 31.2H620.346C620.4 31.2 620.446 31.2067 620.486 31.22C620.526 31.2333 620.58 31.2733 620.646 31.34C620.82 31.4867 621 31.64 621.186 31.8C621.386 31.96 621.62 32.1 621.886 32.22C622.153 32.3267 622.486 32.38 622.886 32.38C623.406 32.38 623.84 32.28 624.186 32.08C624.546 31.8667 624.726 31.5667 624.726 31.18C624.726 30.9 624.646 30.6733 624.486 30.5C624.34 30.3267 624.06 30.1733 623.646 30.04C623.233 29.8933 622.646 29.74 621.886 29.58C621.14 29.4067 620.52 29.1867 620.026 28.92C619.533 28.6533 619.166 28.32 618.926 27.92C618.686 27.52 618.566 27.0533 618.566 26.52C618.566 26 618.72 25.5067 619.026 25.04C619.346 24.56 619.813 24.1667 620.426 23.86C621.053 23.5533 621.826 23.4 622.746 23.4C623.466 23.4 624.093 23.4933 624.626 23.68C625.16 23.8533 625.6 24.0733 625.946 24.34C626.306 24.6067 626.58 24.88 626.766 25.16C626.953 25.4267 627.053 25.66 627.066 25.86C627.08 26.0067 627.04 26.1267 626.946 26.22C626.853 26.3 626.746 26.34 626.626 26.34H625.146C625.08 26.34 625.02 26.3267 624.966 26.3C624.913 26.2733 624.86 26.24 624.806 26.2C624.66 26.0667 624.5 25.9267 624.326 25.78C624.153 25.6333 623.94 25.5067 623.686 25.4C623.446 25.28 623.126 25.22 622.726 25.22C622.22 25.22 621.833 25.3333 621.566 25.56C621.3 25.7733 621.166 26.0467 621.166 26.38C621.166 26.6067 621.226 26.8067 621.346 26.98C621.48 27.14 621.74 27.2933 622.126 27.44C622.513 27.5867 623.1 27.74 623.886 27.9C624.78 28.06 625.486 28.3 626.006 28.62C626.54 28.9267 626.913 29.2867 627.126 29.7C627.353 30.1 627.466 30.5467 627.466 31.04C627.466 31.64 627.286 32.18 626.926 32.66C626.58 33.14 626.06 33.52 625.366 33.8C624.686 34.0667 623.84 34.2 622.826 34.2Z" fill="#646363"/>
<defs>
<filter id="filter0_d_8_2134" x="516" y="0" width="142" height="63" filterUnits="userSpaceOnUse" color-interpolation-filters="sRGB">
<feFlood flood-opacity="0" result="BackgroundImageFix"/>
<feColorMatrix in="SourceAlpha" type="matrix" values="0 0 0 0 0 0 0 0 0 0 0 0 0 0 0 0 0 0 127 0" result="hardAlpha"/>
<feOffset dx="4" dy="4"/>
<feGaussianBlur stdDeviation="4"/>
<feComposite in2="hardAlpha" operator="out"/>
<feColorMatrix type="matrix" values="0 0 0 0 0 0 0 0 0 0 0 0 0 0 0 0 0 0 0.15 0"/>
<feBlend mode="normal" in2="BackgroundImageFix" result="effect1_dropShadow_8_2134"/>
<feBlend mode="normal" in="SourceGraphic" in2="effect1_dropShadow_8_2134" result="shape"/>
</filter>
</defs>
</svg>
