<svg width="654" height="117" viewBox="0 0 654 117" fill="none" xmlns="http://www.w3.org/2000/svg">
<rect width="654" height="117" rx="58.5" fill="#00880C"/>
<ellipse cx="586.324" cy="58.5" rx="23.2864" ry="24.5549" transform="rotate(90 586.324 58.5)" fill="white"/>
<path d="M596.146 58.5001L586.324 67.8147M596.146 58.5001L586.324 49.1855M596.146 58.5001H573.228" stroke="#00880C" stroke-width="5" stroke-linecap="round" stroke-linejoin="round"/>
<path d="M221.856 65.28C220.157 65.28 218.692 65 217.46 64.44C216.228 63.88 215.267 63.04 214.576 61.92C213.885 60.7813 213.512 59.3533 213.456 57.636C213.437 56.8333 213.428 56.04 213.428 55.256C213.428 54.4533 213.437 53.6413 213.456 52.82C213.512 51.14 213.885 49.7307 214.576 48.592C215.285 47.4347 216.256 46.5667 217.488 45.988C218.739 45.4093 220.195 45.12 221.856 45.12C223.499 45.12 224.936 45.4093 226.168 45.988C227.419 46.5667 228.399 47.4347 229.108 48.592C229.817 49.7307 230.191 51.14 230.228 52.82C230.265 53.6413 230.284 54.4533 230.284 55.256C230.284 56.04 230.265 56.8333 230.228 57.636C230.172 59.3533 229.799 60.7813 229.108 61.92C228.417 63.04 227.456 63.88 226.224 64.44C224.992 65 223.536 65.28 221.856 65.28ZM221.856 61.668C222.939 61.668 223.825 61.3413 224.516 60.688C225.225 60.016 225.599 58.952 225.636 57.496C225.673 56.6747 225.692 55.9093 225.692 55.2C225.692 54.472 225.673 53.7067 225.636 52.904C225.617 51.9333 225.44 51.14 225.104 50.524C224.768 49.908 224.32 49.46 223.76 49.18C223.219 48.8813 222.584 48.732 221.856 48.732C221.128 48.732 220.484 48.8813 219.924 49.18C219.364 49.46 218.916 49.908 218.58 50.524C218.263 51.14 218.085 51.9333 218.048 52.904C218.029 53.7067 218.02 54.472 218.02 55.2C218.02 55.9093 218.029 56.6747 218.048 57.496C218.104 58.952 218.477 60.016 219.168 60.688C219.859 61.3413 220.755 61.668 221.856 61.668ZM234.124 65C233.937 65 233.778 64.9347 233.648 64.804C233.517 64.6733 233.452 64.5053 233.452 64.3V51.14C233.452 50.9533 233.517 50.7947 233.648 50.664C233.778 50.5147 233.937 50.44 234.124 50.44H236.868C237.054 50.44 237.213 50.5147 237.344 50.664C237.493 50.7947 237.568 50.9533 237.568 51.14V52.26C238.034 51.6813 238.604 51.2333 239.276 50.916C239.966 50.5987 240.76 50.44 241.656 50.44H242.86C243.046 50.44 243.205 50.5053 243.336 50.636C243.466 50.7667 243.532 50.9347 243.532 51.14V53.548C243.532 53.7533 243.466 53.9213 243.336 54.052C243.205 54.1827 243.046 54.248 242.86 54.248H240.396C239.574 54.248 238.93 54.4813 238.464 54.948C237.997 55.396 237.764 56.04 237.764 56.88V64.3C237.764 64.5053 237.698 64.6733 237.568 64.804C237.437 64.9347 237.269 65 237.064 65H234.124ZM250.859 65.28C249.926 65.28 249.095 65.1307 248.367 64.832C247.639 64.5147 247.023 64.0667 246.519 63.488C246.015 62.8907 245.633 62.1907 245.371 61.388C245.11 60.5667 244.951 59.6613 244.895 58.672C244.877 58.3173 244.867 58 244.867 57.72C244.867 57.4213 244.877 57.104 244.895 56.768C244.933 55.7973 245.082 54.9107 245.343 54.108C245.623 53.3053 246.006 52.6147 246.491 52.036C246.995 51.4387 247.611 50.9813 248.339 50.664C249.086 50.328 249.926 50.16 250.859 50.16C251.83 50.16 252.661 50.328 253.351 50.664C254.042 50.9813 254.611 51.4013 255.059 51.924V45.82C255.059 45.6147 255.125 45.4467 255.255 45.316C255.386 45.1853 255.554 45.12 255.759 45.12H258.643C258.83 45.12 258.989 45.1853 259.119 45.316C259.25 45.4467 259.315 45.6147 259.315 45.82V64.3C259.315 64.5053 259.25 64.6733 259.119 64.804C258.989 64.9347 258.83 65 258.643 65H255.955C255.769 65 255.61 64.9347 255.479 64.804C255.349 64.6733 255.283 64.5053 255.283 64.3V63.348C254.817 63.908 254.229 64.3747 253.519 64.748C252.81 65.1027 251.923 65.28 250.859 65.28ZM252.147 61.92C252.838 61.92 253.389 61.7613 253.799 61.444C254.229 61.1267 254.537 60.7253 254.723 60.24C254.929 59.7547 255.041 59.232 255.059 58.672C255.097 58.3173 255.115 57.9627 255.115 57.608C255.115 57.2533 255.097 56.908 255.059 56.572C255.041 56.0493 254.929 55.564 254.723 55.116C254.518 54.6493 254.201 54.2667 253.771 53.968C253.361 53.6693 252.819 53.52 252.147 53.52C251.438 53.52 250.878 53.6787 250.467 53.996C250.057 54.2947 249.758 54.696 249.571 55.2C249.403 55.704 249.301 56.2547 249.263 56.852C249.207 57.4307 249.207 58.0093 249.263 58.588C249.301 59.1853 249.403 59.736 249.571 60.24C249.758 60.744 250.057 61.1547 250.467 61.472C250.878 61.7707 251.438 61.92 252.147 61.92ZM269.369 65.28C267.223 65.28 265.515 64.6827 264.245 63.488C262.995 62.2933 262.332 60.5573 262.257 58.28C262.257 58.1307 262.257 57.9347 262.257 57.692C262.257 57.4307 262.257 57.2253 262.257 57.076C262.332 55.6387 262.659 54.4067 263.237 53.38C263.816 52.3347 264.628 51.5413 265.673 51C266.719 50.44 267.941 50.16 269.341 50.16C270.909 50.16 272.216 50.4867 273.261 51.14C274.325 51.7747 275.119 52.652 275.641 53.772C276.183 54.8733 276.453 56.1427 276.453 57.58V58.224C276.453 58.4107 276.379 58.5693 276.229 58.7C276.099 58.8307 275.94 58.896 275.753 58.896H266.597C266.597 58.9147 266.597 58.952 266.597 59.008C266.597 59.0453 266.597 59.0827 266.597 59.12C266.616 59.7173 266.728 60.268 266.933 60.772C267.157 61.2573 267.465 61.6493 267.857 61.948C268.268 62.2467 268.753 62.396 269.313 62.396C269.78 62.396 270.163 62.3307 270.461 62.2C270.76 62.0693 271.003 61.9107 271.189 61.724C271.395 61.5373 271.544 61.3787 271.637 61.248C271.805 61.0613 271.936 60.9493 272.029 60.912C272.141 60.856 272.309 60.828 272.533 60.828H275.445C275.632 60.828 275.781 60.884 275.893 60.996C276.024 61.0893 276.08 61.2293 276.061 61.416C276.043 61.7147 275.884 62.088 275.585 62.536C275.305 62.9653 274.885 63.3947 274.325 63.824C273.765 64.2347 273.065 64.58 272.225 64.86C271.404 65.14 270.452 65.28 269.369 65.28ZM266.597 56.348H272.085V56.292C272.085 55.62 271.973 55.0413 271.749 54.556C271.544 54.052 271.236 53.66 270.825 53.38C270.415 53.1 269.92 52.96 269.341 52.96C268.763 52.96 268.268 53.1 267.857 53.38C267.447 53.66 267.129 54.052 266.905 54.556C266.7 55.0413 266.597 55.62 266.597 56.292V56.348ZM279.924 65C279.738 65 279.579 64.9347 279.448 64.804C279.318 64.6733 279.252 64.5053 279.252 64.3V51.14C279.252 50.9533 279.318 50.7947 279.448 50.664C279.579 50.5147 279.738 50.44 279.924 50.44H282.668C282.855 50.44 283.014 50.5147 283.144 50.664C283.294 50.7947 283.368 50.9533 283.368 51.14V52.26C283.835 51.6813 284.404 51.2333 285.076 50.916C285.767 50.5987 286.56 50.44 287.456 50.44H288.66C288.847 50.44 289.006 50.5053 289.136 50.636C289.267 50.7667 289.332 50.9347 289.332 51.14V53.548C289.332 53.7533 289.267 53.9213 289.136 54.052C289.006 54.1827 288.847 54.248 288.66 54.248H286.196C285.375 54.248 284.731 54.4813 284.264 54.948C283.798 55.396 283.564 56.04 283.564 56.88V64.3C283.564 64.5053 283.499 64.6733 283.368 64.804C283.238 64.9347 283.07 65 282.864 65H279.924ZM305.202 65.28C303.447 65.28 301.944 64.9907 300.694 64.412C299.462 63.8147 298.5 62.956 297.81 61.836C297.138 60.6973 296.774 59.3253 296.718 57.72C296.699 56.9173 296.69 56.0587 296.69 55.144C296.69 54.2293 296.699 53.3613 296.718 52.54C296.774 50.972 297.138 49.6373 297.81 48.536C298.5 47.4347 299.471 46.5947 300.722 46.016C301.991 45.4187 303.484 45.12 305.202 45.12C306.583 45.12 307.796 45.2973 308.842 45.652C309.887 46.0067 310.764 46.4733 311.474 47.052C312.183 47.612 312.724 48.228 313.098 48.9C313.471 49.572 313.667 50.216 313.686 50.832C313.686 51 313.63 51.1493 313.518 51.28C313.406 51.392 313.256 51.448 313.07 51.448H309.598C309.411 51.448 309.262 51.4107 309.15 51.336C309.056 51.2613 308.972 51.1493 308.898 51C308.767 50.664 308.552 50.328 308.254 49.992C307.974 49.6373 307.591 49.3387 307.106 49.096C306.62 48.8533 305.986 48.732 305.202 48.732C304.026 48.732 303.092 49.04 302.402 49.656C301.73 50.272 301.366 51.28 301.31 52.68C301.254 54.2853 301.254 55.9187 301.31 57.58C301.366 59.036 301.739 60.0813 302.43 60.716C303.139 61.3507 304.082 61.668 305.258 61.668C306.023 61.668 306.704 61.5373 307.302 61.276C307.918 60.996 308.403 60.5667 308.758 59.988C309.112 59.4093 309.29 58.672 309.29 57.776V57.076H306.238C306.051 57.076 305.892 57.0107 305.762 56.88C305.631 56.7307 305.566 56.5627 305.566 56.376V54.584C305.566 54.3787 305.631 54.2107 305.762 54.08C305.892 53.9493 306.051 53.884 306.238 53.884H313.098C313.303 53.884 313.471 53.9493 313.602 54.08C313.732 54.2107 313.798 54.3787 313.798 54.584V57.636C313.798 59.2413 313.443 60.6133 312.734 61.752C312.043 62.8907 311.044 63.768 309.738 64.384C308.45 64.9813 306.938 65.28 305.202 65.28ZM323.569 65.28C322.019 65.28 320.722 65.028 319.677 64.524C318.631 64.0013 317.829 63.264 317.269 62.312C316.727 61.36 316.429 60.2493 316.373 58.98C316.354 58.6067 316.345 58.1867 316.345 57.72C316.345 57.2347 316.354 56.8147 316.373 56.46C316.429 55.172 316.746 54.0613 317.325 53.128C317.903 52.176 318.715 51.448 319.761 50.944C320.806 50.4213 322.075 50.16 323.569 50.16C325.043 50.16 326.303 50.4213 327.349 50.944C328.394 51.448 329.206 52.176 329.785 53.128C330.363 54.0613 330.681 55.172 330.737 56.46C330.774 56.8147 330.793 57.2347 330.793 57.72C330.793 58.1867 330.774 58.6067 330.737 58.98C330.681 60.2493 330.373 61.36 329.813 62.312C329.271 63.264 328.478 64.0013 327.433 64.524C326.387 65.028 325.099 65.28 323.569 65.28ZM323.569 62.2C324.483 62.2 325.174 61.92 325.641 61.36C326.107 60.7813 326.359 59.9413 326.397 58.84C326.415 58.56 326.425 58.1867 326.425 57.72C326.425 57.2533 326.415 56.88 326.397 56.6C326.359 55.5173 326.107 54.6867 325.641 54.108C325.174 53.5293 324.483 53.24 323.569 53.24C322.654 53.24 321.954 53.5293 321.469 54.108C321.002 54.6867 320.75 55.5173 320.713 56.6C320.694 56.88 320.685 57.2533 320.685 57.72C320.685 58.1867 320.694 58.56 320.713 58.84C320.75 59.9413 321.002 60.7813 321.469 61.36C321.954 61.92 322.654 62.2 323.569 62.2ZM341.085 65.28C339.293 65.28 337.79 65.0187 336.577 64.496C335.382 63.9733 334.477 63.292 333.861 62.452C333.245 61.612 332.918 60.716 332.881 59.764C332.881 59.6147 332.937 59.484 333.049 59.372C333.161 59.2413 333.301 59.176 333.469 59.176H336.465C336.708 59.176 336.894 59.232 337.025 59.344C337.156 59.4373 337.277 59.5587 337.389 59.708C337.52 60.0253 337.725 60.3333 338.005 60.632C338.304 60.9307 338.705 61.1827 339.209 61.388C339.713 61.5747 340.338 61.668 341.085 61.668C342.298 61.668 343.204 61.472 343.801 61.08C344.417 60.688 344.725 60.156 344.725 59.484C344.725 58.9987 344.557 58.6067 344.221 58.308C343.904 58.0093 343.39 57.7387 342.681 57.496C341.99 57.2533 341.066 56.992 339.909 56.712C338.509 56.4133 337.314 56.0307 336.325 55.564C335.354 55.0787 334.617 54.4627 334.113 53.716C333.628 52.9507 333.385 52.008 333.385 50.888C333.385 49.768 333.693 48.7787 334.309 47.92C334.925 47.0427 335.793 46.3613 336.913 45.876C338.033 45.372 339.368 45.12 340.917 45.12C342.168 45.12 343.269 45.288 344.221 45.624C345.192 45.96 345.994 46.3987 346.629 46.94C347.282 47.4813 347.777 48.06 348.113 48.676C348.449 49.292 348.626 49.8893 348.645 50.468C348.645 50.6173 348.589 50.7573 348.477 50.888C348.365 51 348.225 51.056 348.057 51.056H344.921C344.734 51.056 344.566 51.0187 344.417 50.944C344.268 50.8693 344.146 50.7387 344.053 50.552C343.941 50.0667 343.605 49.6467 343.045 49.292C342.504 48.9187 341.794 48.732 340.917 48.732C340.002 48.732 339.274 48.9 338.733 49.236C338.21 49.572 337.949 50.0853 337.949 50.776C337.949 51.224 338.08 51.6067 338.341 51.924C338.621 52.2227 339.078 52.4933 339.713 52.736C340.366 52.96 341.225 53.212 342.289 53.492C343.932 53.828 345.266 54.2293 346.293 54.696C347.32 55.1627 348.076 55.7693 348.561 56.516C349.046 57.244 349.289 58.168 349.289 59.288C349.289 60.5387 348.934 61.612 348.225 62.508C347.534 63.404 346.573 64.0947 345.341 64.58C344.128 65.0467 342.709 65.28 341.085 65.28ZM358.483 65.28C356.336 65.28 354.628 64.6827 353.359 63.488C352.108 62.2933 351.445 60.5573 351.371 58.28C351.371 58.1307 351.371 57.9347 351.371 57.692C351.371 57.4307 351.371 57.2253 351.371 57.076C351.445 55.6387 351.772 54.4067 352.351 53.38C352.929 52.3347 353.741 51.5413 354.787 51C355.832 50.44 357.055 50.16 358.455 50.16C360.023 50.16 361.329 50.4867 362.375 51.14C363.439 51.7747 364.232 52.652 364.755 53.772C365.296 54.8733 365.567 56.1427 365.567 57.58V58.224C365.567 58.4107 365.492 58.5693 365.343 58.7C365.212 58.8307 365.053 58.896 364.867 58.896H355.711C355.711 58.9147 355.711 58.952 355.711 59.008C355.711 59.0453 355.711 59.0827 355.711 59.12C355.729 59.7173 355.841 60.268 356.047 60.772C356.271 61.2573 356.579 61.6493 356.971 61.948C357.381 62.2467 357.867 62.396 358.427 62.396C358.893 62.396 359.276 62.3307 359.575 62.2C359.873 62.0693 360.116 61.9107 360.303 61.724C360.508 61.5373 360.657 61.3787 360.751 61.248C360.919 61.0613 361.049 60.9493 361.143 60.912C361.255 60.856 361.423 60.828 361.647 60.828H364.559C364.745 60.828 364.895 60.884 365.007 60.996C365.137 61.0893 365.193 61.2293 365.175 61.416C365.156 61.7147 364.997 62.088 364.699 62.536C364.419 62.9653 363.999 63.3947 363.439 63.824C362.879 64.2347 362.179 64.58 361.339 64.86C360.517 65.14 359.565 65.28 358.483 65.28ZM355.711 56.348H361.199V56.292C361.199 55.62 361.087 55.0413 360.863 54.556C360.657 54.052 360.349 53.66 359.939 53.38C359.528 53.1 359.033 52.96 358.455 52.96C357.876 52.96 357.381 53.1 356.971 53.38C356.56 53.66 356.243 54.052 356.019 54.556C355.813 55.0413 355.711 55.62 355.711 56.292V56.348ZM369.038 65C368.851 65 368.692 64.9347 368.562 64.804C368.431 64.6733 368.366 64.5053 368.366 64.3V51.14C368.366 50.9533 368.431 50.7947 368.562 50.664C368.692 50.5147 368.851 50.44 369.038 50.44H371.782C371.968 50.44 372.127 50.5147 372.258 50.664C372.407 50.7947 372.482 50.9533 372.482 51.14V52.26C372.948 51.6813 373.518 51.2333 374.19 50.916C374.88 50.5987 375.674 50.44 376.57 50.44H377.774C377.96 50.44 378.119 50.5053 378.25 50.636C378.38 50.7667 378.446 50.9347 378.446 51.14V53.548C378.446 53.7533 378.38 53.9213 378.25 54.052C378.119 54.1827 377.96 54.248 377.774 54.248H375.31C374.488 54.248 373.844 54.4813 373.378 54.948C372.911 55.396 372.678 56.04 372.678 56.88V64.3C372.678 64.5053 372.612 64.6733 372.482 64.804C372.351 64.9347 372.183 65 371.978 65H369.038ZM385.686 65C385.406 65 385.191 64.9347 385.042 64.804C384.911 64.6547 384.799 64.4867 384.706 64.3L379.442 51.308C379.404 51.2333 379.386 51.1493 379.386 51.056C379.386 50.888 379.442 50.748 379.554 50.636C379.684 50.5053 379.834 50.44 380.002 50.44H382.718C382.96 50.44 383.138 50.5053 383.25 50.636C383.38 50.7667 383.464 50.888 383.502 51L386.946 60.24L390.39 51C390.446 50.888 390.53 50.7667 390.642 50.636C390.772 50.5053 390.95 50.44 391.174 50.44H393.89C394.058 50.44 394.198 50.5053 394.31 50.636C394.44 50.748 394.506 50.888 394.506 51.056C394.506 51.1493 394.496 51.2333 394.478 51.308L389.186 64.3C389.111 64.4867 388.999 64.6547 388.85 64.804C388.7 64.9347 388.486 65 388.206 65H385.686ZM397.557 65C397.37 65 397.212 64.9347 397.081 64.804C396.95 64.6733 396.885 64.5053 396.885 64.3V51.14C396.885 50.9347 396.95 50.7667 397.081 50.636C397.212 50.5053 397.37 50.44 397.557 50.44H400.357C400.562 50.44 400.73 50.5053 400.861 50.636C400.992 50.7667 401.057 50.9347 401.057 51.14V64.3C401.057 64.5053 400.992 64.6733 400.861 64.804C400.73 64.9347 400.562 65 400.357 65H397.557ZM397.473 48.2C397.286 48.2 397.128 48.1347 396.997 48.004C396.866 47.8733 396.801 47.7053 396.801 47.5V45.26C396.801 45.0547 396.866 44.8867 396.997 44.756C397.128 44.6067 397.286 44.532 397.473 44.532H400.413C400.618 44.532 400.786 44.6067 400.917 44.756C401.066 44.8867 401.141 45.0547 401.141 45.26V47.5C401.141 47.7053 401.066 47.8733 400.917 48.004C400.786 48.1347 400.618 48.2 400.413 48.2H397.473ZM411.037 65.28C409.674 65.28 408.47 65.028 407.425 64.524C406.398 64.02 405.586 63.292 404.989 62.34C404.391 61.3693 404.065 60.212 404.009 58.868C403.99 58.5693 403.981 58.196 403.981 57.748C403.981 57.2813 403.99 56.8987 404.009 56.6C404.065 55.2373 404.382 54.08 404.961 53.128C405.558 52.1573 406.379 51.42 407.425 50.916C408.47 50.412 409.674 50.16 411.037 50.16C412.287 50.16 413.351 50.3373 414.229 50.692C415.106 51.028 415.825 51.4573 416.385 51.98C416.945 52.5027 417.355 53.0533 417.617 53.632C417.897 54.192 418.046 54.6867 418.065 55.116C418.083 55.3027 418.018 55.4707 417.869 55.62C417.738 55.7507 417.579 55.816 417.393 55.816H414.397C414.21 55.816 414.061 55.7693 413.949 55.676C413.855 55.564 413.762 55.4147 413.669 55.228C413.407 54.5747 413.071 54.108 412.661 53.828C412.25 53.548 411.737 53.408 411.121 53.408C410.281 53.408 409.618 53.6787 409.133 54.22C408.647 54.7613 408.386 55.6013 408.349 56.74C408.33 57.468 408.33 58.1307 408.349 58.728C408.405 59.8853 408.666 60.7253 409.133 61.248C409.618 61.7707 410.281 62.032 411.121 62.032C411.774 62.032 412.297 61.892 412.689 61.612C413.081 61.332 413.407 60.8653 413.669 60.212C413.743 60.0253 413.837 59.8853 413.949 59.792C414.061 59.68 414.21 59.624 414.397 59.624H417.393C417.579 59.624 417.738 59.6987 417.869 59.848C418.018 59.9787 418.083 60.1373 418.065 60.324C418.046 60.6413 417.953 61.0147 417.785 61.444C417.635 61.8733 417.383 62.312 417.029 62.76C416.693 63.208 416.254 63.628 415.713 64.02C415.171 64.3933 414.509 64.7013 413.725 64.944C412.959 65.168 412.063 65.28 411.037 65.28ZM427.307 65.28C425.16 65.28 423.452 64.6827 422.183 63.488C420.932 62.2933 420.27 60.5573 420.195 58.28C420.195 58.1307 420.195 57.9347 420.195 57.692C420.195 57.4307 420.195 57.2253 420.195 57.076C420.27 55.6387 420.596 54.4067 421.175 53.38C421.754 52.3347 422.566 51.5413 423.611 51C424.656 50.44 425.879 50.16 427.279 50.16C428.847 50.16 430.154 50.4867 431.199 51.14C432.263 51.7747 433.056 52.652 433.579 53.772C434.12 54.8733 434.391 56.1427 434.391 57.58V58.224C434.391 58.4107 434.316 58.5693 434.167 58.7C434.036 58.8307 433.878 58.896 433.691 58.896H424.535C424.535 58.9147 424.535 58.952 424.535 59.008C424.535 59.0453 424.535 59.0827 424.535 59.12C424.554 59.7173 424.666 60.268 424.871 60.772C425.095 61.2573 425.403 61.6493 425.795 61.948C426.206 62.2467 426.691 62.396 427.251 62.396C427.718 62.396 428.1 62.3307 428.399 62.2C428.698 62.0693 428.94 61.9107 429.127 61.724C429.332 61.5373 429.482 61.3787 429.575 61.248C429.743 61.0613 429.874 60.9493 429.967 60.912C430.079 60.856 430.247 60.828 430.471 60.828H433.383C433.57 60.828 433.719 60.884 433.831 60.996C433.962 61.0893 434.018 61.2293 433.999 61.416C433.98 61.7147 433.822 62.088 433.523 62.536C433.243 62.9653 432.823 63.3947 432.263 63.824C431.703 64.2347 431.003 64.58 430.163 64.86C429.342 65.14 428.39 65.28 427.307 65.28ZM424.535 56.348H430.023V56.292C430.023 55.62 429.911 55.0413 429.687 54.556C429.482 54.052 429.174 53.66 428.763 53.38C428.352 53.1 427.858 52.96 427.279 52.96C426.7 52.96 426.206 53.1 425.795 53.38C425.384 53.66 425.067 54.052 424.843 54.556C424.638 55.0413 424.535 55.62 424.535 56.292V56.348Z" fill="white"/>
</svg>
