<svg width="16" height="15" viewBox="0 0 16 15" fill="none" xmlns="http://www.w3.org/2000/svg">
<ellipse cx="8" cy="7.5" rx="8" ry="7.5" fill="#FF3B30"/>
<path d="M3.1111 8.47217H7.55555V12.6388C7.55555 13.0218 7.88777 13.3333 8.29629 13.3333C8.70481 13.3333 9.03703 13.0218 9.03703 12.6388V8.47217H13.4815C13.89 8.47217 14.2222 8.16071 14.2222 7.77772C14.2222 7.39473 13.89 7.08328 13.4815 7.08328H9.03703V2.91661C9.03703 2.53362 8.70481 2.22217 8.29629 2.22217C7.88777 2.22217 7.55555 2.53362 7.55555 2.91661V7.08328H3.1111C2.70258 7.08328 2.37036 7.39473 2.37036 7.77772C2.37036 8.16071 2.70258 8.47217 3.1111 8.47217Z" fill="white"/>
</svg>
