<svg width="142" height="63" viewBox="0 0 142 63" fill="none" xmlns="http://www.w3.org/2000/svg">
<g filter="url(#filter0_d_8_2143)">
<rect x="4" y="4" width="126" height="47" rx="23.5" fill="white"/>
</g>
<path d="M26.64 34C26.4267 34 26.26 33.9467 26.14 33.84C26.02 33.7333 25.9333 33.6 25.88 33.44L21.6 20.6C21.5733 20.5333 21.56 20.4733 21.56 20.42C21.56 20.3 21.6 20.2 21.68 20.12C21.76 20.04 21.86 20 21.98 20H23.74C23.9267 20 24.0667 20.0533 24.16 20.16C24.2667 20.2533 24.3333 20.3467 24.36 20.44L27.74 30.74L31.1 20.44C31.14 20.3467 31.2067 20.2533 31.3 20.16C31.4067 20.0533 31.5533 20 31.74 20H33.5C33.6067 20 33.7 20.04 33.78 20.12C33.8733 20.2 33.92 20.3 33.92 20.42C33.92 20.4733 33.9067 20.5333 33.88 20.6L29.6 33.44C29.5467 33.6 29.46 33.7333 29.34 33.84C29.22 33.9467 29.0533 34 28.84 34H26.64ZM39.3419 34.2C38.2752 34.2 37.3752 34.0133 36.6419 33.64C35.9219 33.2667 35.3685 32.74 34.9819 32.06C34.6085 31.38 34.3952 30.5867 34.3419 29.68C34.3285 29.44 34.3219 29.1467 34.3219 28.8C34.3219 28.4533 34.3285 28.16 34.3419 27.92C34.3952 27 34.6152 26.2067 35.0019 25.54C35.4019 24.86 35.9619 24.3333 36.6819 23.96C37.4152 23.5867 38.3019 23.4 39.3419 23.4C40.3819 23.4 41.2619 23.5867 41.9819 23.96C42.7152 24.3333 43.2752 24.86 43.6619 25.54C44.0619 26.2067 44.2885 27 44.3419 27.92C44.3552 28.16 44.3619 28.4533 44.3619 28.8C44.3619 29.1467 44.3552 29.44 44.3419 29.68C44.2885 30.5867 44.0685 31.38 43.6819 32.06C43.3085 32.74 42.7552 33.2667 42.0219 33.64C41.3019 34.0133 40.4085 34.2 39.3419 34.2ZM39.3419 32.22C40.0485 32.22 40.5952 32 40.9819 31.56C41.3685 31.1067 41.5819 30.4467 41.6219 29.58C41.6352 29.38 41.6419 29.12 41.6419 28.8C41.6419 28.48 41.6352 28.22 41.6219 28.02C41.5819 27.1667 41.3685 26.5133 40.9819 26.06C40.5952 25.6067 40.0485 25.38 39.3419 25.38C38.6352 25.38 38.0885 25.6067 37.7019 26.06C37.3152 26.5133 37.1019 27.1667 37.0619 28.02C37.0485 28.22 37.0419 28.48 37.0419 28.8C37.0419 29.12 37.0485 29.38 37.0619 29.58C37.1019 30.4467 37.3152 31.1067 37.7019 31.56C38.0885 32 38.6352 32.22 39.3419 32.22ZM50.4378 34.2C49.6245 34.2 48.9178 34.02 48.3178 33.66C47.7311 33.2867 47.2778 32.7667 46.9578 32.1C46.6378 31.42 46.4778 30.62 46.4778 29.7V24.08C46.4778 23.9467 46.5245 23.8333 46.6178 23.74C46.7111 23.6467 46.8245 23.6 46.9578 23.6H48.7178C48.8645 23.6 48.9778 23.6467 49.0578 23.74C49.1511 23.8333 49.1978 23.9467 49.1978 24.08V29.58C49.1978 31.2333 49.9245 32.06 51.3778 32.06C52.0711 32.06 52.6178 31.84 53.0178 31.4C53.4311 30.96 53.6378 30.3533 53.6378 29.58V24.08C53.6378 23.9467 53.6845 23.8333 53.7778 23.74C53.8711 23.6467 53.9845 23.6 54.1178 23.6H55.8778C56.0111 23.6 56.1245 23.6467 56.2178 23.74C56.3111 23.8333 56.3578 23.9467 56.3578 24.08V33.52C56.3578 33.6533 56.3111 33.7667 56.2178 33.86C56.1245 33.9533 56.0111 34 55.8778 34H54.2578C54.1111 34 53.9911 33.9533 53.8978 33.86C53.8178 33.7667 53.7778 33.6533 53.7778 33.52V32.7C53.4178 33.1667 52.9711 33.5333 52.4378 33.8C51.9045 34.0667 51.2378 34.2 50.4378 34.2ZM63.4997 34.2C62.5397 34.2 61.693 34.02 60.9597 33.66C60.2397 33.3 59.673 32.78 59.2597 32.1C58.8597 31.4067 58.6397 30.5733 58.5997 29.6C58.5864 29.4 58.5797 29.14 58.5797 28.82C58.5797 28.4867 58.5864 28.2133 58.5997 28C58.6397 27.0267 58.8597 26.2 59.2597 25.52C59.673 24.8267 60.2397 24.3 60.9597 23.94C61.693 23.58 62.5397 23.4 63.4997 23.4C64.353 23.4 65.0797 23.52 65.6797 23.76C66.2797 24 66.773 24.3 67.1597 24.66C67.5464 25.02 67.833 25.4 68.0197 25.8C68.2197 26.1867 68.3264 26.54 68.3397 26.86C68.353 27.0067 68.3064 27.1267 68.1997 27.22C68.1064 27.3 67.993 27.34 67.8597 27.34H66.0997C65.9664 27.34 65.8597 27.3067 65.7797 27.24C65.713 27.1733 65.6464 27.0733 65.5797 26.94C65.3797 26.4067 65.113 26.0333 64.7797 25.82C64.4597 25.5933 64.0464 25.48 63.5397 25.48C62.873 25.48 62.3397 25.6933 61.9397 26.12C61.553 26.5333 61.3464 27.1933 61.3197 28.1C61.293 28.6067 61.293 29.0733 61.3197 29.5C61.3464 30.42 61.553 31.0867 61.9397 31.5C62.3397 31.9133 62.873 32.12 63.5397 32.12C64.0597 32.12 64.4797 32.0133 64.7997 31.8C65.1197 31.5733 65.3797 31.1933 65.5797 30.66C65.6464 30.5267 65.713 30.4267 65.7797 30.36C65.8597 30.2933 65.9664 30.26 66.0997 30.26H67.8597C67.993 30.26 68.1064 30.3067 68.1997 30.4C68.3064 30.48 68.353 30.5933 68.3397 30.74C68.3264 30.98 68.2597 31.2533 68.1397 31.56C68.033 31.8533 67.853 32.16 67.5997 32.48C67.3597 32.7867 67.053 33.0733 66.6797 33.34C66.3064 33.5933 65.853 33.8 65.3197 33.96C64.7997 34.12 64.193 34.2 63.4997 34.2ZM70.9255 34C70.7921 34 70.6788 33.9533 70.5855 33.86C70.4921 33.7667 70.4455 33.6533 70.4455 33.52V20.28C70.4455 20.1467 70.4921 20.0333 70.5855 19.94C70.6788 19.8467 70.7921 19.8 70.9255 19.8H72.7055C72.8521 19.8 72.9655 19.8467 73.0455 19.94C73.1388 20.0333 73.1855 20.1467 73.1855 20.28V24.84C73.5455 24.4133 73.9855 24.0667 74.5055 23.8C75.0255 23.5333 75.6655 23.4 76.4255 23.4C77.2388 23.4 77.9455 23.5867 78.5455 23.96C79.1588 24.32 79.6321 24.8333 79.9655 25.5C80.2988 26.1667 80.4655 26.9667 80.4655 27.9V33.52C80.4655 33.6533 80.4188 33.7667 80.3255 33.86C80.2321 33.9533 80.1188 34 79.9855 34H78.1855C78.0521 34 77.9388 33.9533 77.8455 33.86C77.7521 33.7667 77.7055 33.6533 77.7055 33.52V28.02C77.7055 27.2467 77.5121 26.64 77.1255 26.2C76.7521 25.76 76.2055 25.54 75.4855 25.54C74.7921 25.54 74.2321 25.76 73.8055 26.2C73.3921 26.64 73.1855 27.2467 73.1855 28.02V33.52C73.1855 33.6533 73.1388 33.7667 73.0455 33.86C72.9655 33.9533 72.8521 34 72.7055 34H70.9255ZM87.4836 34.2C86.0036 34.2 84.8303 33.7733 83.9636 32.92C83.0969 32.0667 82.6303 30.8533 82.5636 29.28C82.5503 29.1467 82.5436 28.98 82.5436 28.78C82.5436 28.5667 82.5503 28.4 82.5636 28.28C82.6169 27.28 82.8436 26.4133 83.2436 25.68C83.6569 24.9467 84.2236 24.3867 84.9436 24C85.6636 23.6 86.5103 23.4 87.4836 23.4C88.5636 23.4 89.4703 23.6267 90.2036 24.08C90.9369 24.52 91.4903 25.14 91.8636 25.94C92.2369 26.7267 92.4236 27.64 92.4236 28.68V29.1C92.4236 29.2333 92.3769 29.3467 92.2836 29.44C92.1903 29.5333 92.0703 29.58 91.9236 29.58H85.2836C85.2836 29.58 85.2836 29.6 85.2836 29.64C85.2836 29.68 85.2836 29.7133 85.2836 29.74C85.2969 30.2067 85.3836 30.64 85.5436 31.04C85.7169 31.4267 85.9636 31.74 86.2836 31.98C86.6169 32.22 87.0103 32.34 87.4636 32.34C87.8369 32.34 88.1503 32.2867 88.4036 32.18C88.6569 32.06 88.8636 31.9267 89.0236 31.78C89.1836 31.6333 89.2969 31.5133 89.3636 31.42C89.4836 31.26 89.5769 31.1667 89.6436 31.14C89.7236 31.1 89.8369 31.08 89.9836 31.08H91.7036C91.8369 31.08 91.9436 31.12 92.0236 31.2C92.1169 31.28 92.1569 31.38 92.1436 31.5C92.1303 31.7133 92.0169 31.9733 91.8036 32.28C91.6036 32.5867 91.3103 32.8867 90.9236 33.18C90.5369 33.4733 90.0503 33.72 89.4636 33.92C88.8903 34.1067 88.2303 34.2 87.4836 34.2ZM85.2836 27.9H89.7036V27.84C89.7036 27.32 89.6169 26.8667 89.4436 26.48C89.2703 26.0933 89.0169 25.7867 88.6836 25.56C88.3503 25.3333 87.9503 25.22 87.4836 25.22C87.0169 25.22 86.6169 25.3333 86.2836 25.56C85.9503 25.7867 85.6969 26.0933 85.5236 26.48C85.3636 26.8667 85.2836 27.32 85.2836 27.84V27.9ZM95.0266 34C94.8932 34 94.7799 33.9533 94.6866 33.86C94.5932 33.7667 94.5466 33.6533 94.5466 33.52V24.1C94.5466 23.9533 94.5932 23.8333 94.6866 23.74C94.7799 23.6467 94.8932 23.6 95.0266 23.6H96.6466C96.7799 23.6 96.8932 23.6467 96.9866 23.74C97.0932 23.8333 97.1466 23.9533 97.1466 24.1V24.92C97.4532 24.4933 97.8466 24.1667 98.3266 23.94C98.8199 23.7133 99.3866 23.6 100.027 23.6H100.847C100.993 23.6 101.107 23.6467 101.187 23.74C101.28 23.8333 101.327 23.9467 101.327 24.08V25.52C101.327 25.6533 101.28 25.7667 101.187 25.86C101.107 25.9533 100.993 26 100.847 26H99.2866C98.6466 26 98.1466 26.18 97.7866 26.54C97.4399 26.9 97.2666 27.3933 97.2666 28.02V33.52C97.2666 33.6533 97.2199 33.7667 97.1266 33.86C97.0332 33.9533 96.9132 34 96.7666 34H95.0266ZM106.826 34.2C106.026 34.2 105.34 34.1067 104.766 33.92C104.206 33.7333 103.746 33.5 103.386 33.22C103.026 32.94 102.76 32.66 102.586 32.38C102.413 32.1 102.32 31.8667 102.306 31.68C102.293 31.5333 102.333 31.42 102.426 31.34C102.533 31.2467 102.646 31.2 102.766 31.2H104.346C104.4 31.2 104.446 31.2067 104.486 31.22C104.526 31.2333 104.58 31.2733 104.646 31.34C104.82 31.4867 105 31.64 105.186 31.8C105.386 31.96 105.62 32.1 105.886 32.22C106.153 32.3267 106.486 32.38 106.886 32.38C107.406 32.38 107.84 32.28 108.186 32.08C108.546 31.8667 108.726 31.5667 108.726 31.18C108.726 30.9 108.646 30.6733 108.486 30.5C108.34 30.3267 108.06 30.1733 107.646 30.04C107.233 29.8933 106.646 29.74 105.886 29.58C105.14 29.4067 104.52 29.1867 104.026 28.92C103.533 28.6533 103.166 28.32 102.926 27.92C102.686 27.52 102.566 27.0533 102.566 26.52C102.566 26 102.72 25.5067 103.026 25.04C103.346 24.56 103.813 24.1667 104.426 23.86C105.053 23.5533 105.826 23.4 106.746 23.4C107.466 23.4 108.093 23.4933 108.626 23.68C109.16 23.8533 109.6 24.0733 109.946 24.34C110.306 24.6067 110.58 24.88 110.766 25.16C110.953 25.4267 111.053 25.66 111.066 25.86C111.08 26.0067 111.04 26.1267 110.946 26.22C110.853 26.3 110.746 26.34 110.626 26.34H109.146C109.08 26.34 109.02 26.3267 108.966 26.3C108.913 26.2733 108.86 26.24 108.806 26.2C108.66 26.0667 108.5 25.9267 108.326 25.78C108.153 25.6333 107.94 25.5067 107.686 25.4C107.446 25.28 107.126 25.22 106.726 25.22C106.22 25.22 105.833 25.3333 105.566 25.56C105.3 25.7733 105.166 26.0467 105.166 26.38C105.166 26.6067 105.226 26.8067 105.346 26.98C105.48 27.14 105.74 27.2933 106.126 27.44C106.513 27.5867 107.1 27.74 107.886 27.9C108.78 28.06 109.486 28.3 110.006 28.62C110.54 28.9267 110.913 29.2867 111.126 29.7C111.353 30.1 111.466 30.5467 111.466 31.04C111.466 31.64 111.286 32.18 110.926 32.66C110.58 33.14 110.06 33.52 109.366 33.8C108.686 34.0667 107.84 34.2 106.826 34.2Z" fill="#646363"/>
<defs>
<filter id="filter0_d_8_2143" x="0" y="0" width="142" height="63" filterUnits="userSpaceOnUse" color-interpolation-filters="sRGB">
<feFlood flood-opacity="0" result="BackgroundImageFix"/>
<feColorMatrix in="SourceAlpha" type="matrix" values="0 0 0 0 0 0 0 0 0 0 0 0 0 0 0 0 0 0 127 0" result="hardAlpha"/>
<feOffset dx="4" dy="4"/>
<feGaussianBlur stdDeviation="4"/>
<feComposite in2="hardAlpha" operator="out"/>
<feColorMatrix type="matrix" values="0 0 0 0 0 0 0 0 0 0 0 0 0 0 0 0 0 0 0.15 0"/>
<feBlend mode="normal" in2="BackgroundImageFix" result="effect1_dropShadow_8_2143"/>
<feBlend mode="normal" in="SourceGraphic" in2="effect1_dropShadow_8_2143" result="shape"/>
</filter>
</defs>
</svg>
