<svg width="703" height="102" viewBox="0 0 703 102" fill="none" xmlns="http://www.w3.org/2000/svg">
<g filter="url(#filter0_d_8_2108)">
<rect x="18" y="18" width="659" height="58" rx="29" fill="white"/>
<path d="M100.04 55C99.9067 55 99.7933 54.9533 99.7 54.86C99.6067 54.7667 99.56 54.6533 99.56 54.52V41.5C99.56 41.3533 99.6067 41.2333 99.7 41.14C99.7933 41.0467 99.9067 41 100.04 41H105.4C106.44 41 107.347 41.1667 108.12 41.5C108.893 41.82 109.493 42.3133 109.92 42.98C110.347 43.6333 110.56 44.4533 110.56 45.44C110.56 46.44 110.347 47.2667 109.92 47.92C109.493 48.56 108.893 49.04 108.12 49.36C107.347 49.68 106.44 49.84 105.4 49.84H102.42V54.52C102.42 54.6533 102.373 54.7667 102.28 54.86C102.2 54.9533 102.087 55 101.94 55H100.04ZM102.38 47.62H105.3C106.073 47.62 106.667 47.44 107.08 47.08C107.493 46.7067 107.7 46.16 107.7 45.44C107.7 44.7733 107.507 44.24 107.12 43.84C106.733 43.4267 106.127 43.22 105.3 43.22H102.38V47.62ZM115.309 55.2C114.615 55.2 113.989 55.0667 113.429 54.8C112.869 54.52 112.422 54.1533 112.089 53.7C111.769 53.2333 111.609 52.7133 111.609 52.14C111.609 51.2067 111.982 50.4667 112.729 49.92C113.489 49.36 114.489 48.9867 115.729 48.8L118.469 48.4V47.98C118.469 47.42 118.329 46.9867 118.049 46.68C117.769 46.3733 117.289 46.22 116.609 46.22C116.129 46.22 115.735 46.32 115.429 46.52C115.135 46.7067 114.915 46.96 114.769 47.28C114.662 47.4533 114.509 47.54 114.309 47.54H112.729C112.582 47.54 112.469 47.5 112.389 47.42C112.322 47.34 112.289 47.2333 112.289 47.1C112.302 46.8867 112.389 46.6267 112.549 46.32C112.709 46.0133 112.962 45.72 113.309 45.44C113.655 45.1467 114.102 44.9 114.649 44.7C115.195 44.5 115.855 44.4 116.629 44.4C117.469 44.4 118.175 44.5067 118.749 44.72C119.335 44.92 119.802 45.1933 120.149 45.54C120.495 45.8867 120.749 46.2933 120.909 46.76C121.069 47.2267 121.149 47.72 121.149 48.24V54.52C121.149 54.6533 121.102 54.7667 121.009 54.86C120.915 54.9533 120.802 55 120.669 55H119.049C118.902 55 118.782 54.9533 118.689 54.86C118.609 54.7667 118.569 54.6533 118.569 54.52V53.74C118.395 53.9933 118.162 54.2333 117.869 54.46C117.575 54.6733 117.215 54.8533 116.789 55C116.375 55.1333 115.882 55.2 115.309 55.2ZM115.989 53.3C116.455 53.3 116.875 53.2 117.249 53C117.635 52.8 117.935 52.4933 118.149 52.08C118.375 51.6533 118.489 51.12 118.489 50.48V50.06L116.489 50.38C115.702 50.5 115.115 50.6933 114.729 50.96C114.342 51.2267 114.149 51.5533 114.149 51.94C114.149 52.2333 114.235 52.4867 114.409 52.7C114.595 52.9 114.829 53.0533 115.109 53.16C115.389 53.2533 115.682 53.3 115.989 53.3ZM127.575 55.2C126.881 55.2 126.268 55.0867 125.735 54.86C125.215 54.62 124.781 54.2867 124.435 53.86C124.088 53.4333 123.821 52.9333 123.635 52.36C123.448 51.7733 123.341 51.1333 123.315 50.44C123.301 50.2 123.295 49.9867 123.295 49.8C123.295 49.6 123.301 49.38 123.315 49.14C123.341 48.4733 123.441 47.8533 123.615 47.28C123.801 46.7067 124.068 46.2067 124.415 45.78C124.775 45.34 125.215 45 125.735 44.76C126.268 44.52 126.881 44.4 127.575 44.4C128.295 44.4 128.901 44.5267 129.395 44.78C129.901 45.02 130.321 45.3333 130.655 45.72V41.28C130.655 41.1467 130.695 41.0333 130.775 40.94C130.868 40.8467 130.988 40.8 131.135 40.8H132.835C132.968 40.8 133.081 40.8467 133.175 40.94C133.268 41.0333 133.315 41.1467 133.315 41.28V54.52C133.315 54.6533 133.268 54.7667 133.175 54.86C133.081 54.9533 132.968 55 132.835 55H131.255C131.108 55 130.988 54.9533 130.895 54.86C130.815 54.7667 130.775 54.6533 130.775 54.52V53.78C130.441 54.1933 130.015 54.5333 129.495 54.8C128.988 55.0667 128.348 55.2 127.575 55.2ZM128.315 53.06C128.875 53.06 129.321 52.9333 129.655 52.68C129.988 52.4267 130.235 52.1067 130.395 51.72C130.555 51.32 130.641 50.9133 130.655 50.5C130.668 50.26 130.675 50.0067 130.675 49.74C130.675 49.46 130.668 49.2 130.655 48.96C130.641 48.56 130.548 48.18 130.375 47.82C130.201 47.4467 129.948 47.14 129.615 46.9C129.281 46.66 128.848 46.54 128.315 46.54C127.755 46.54 127.308 46.6667 126.975 46.92C126.655 47.16 126.421 47.48 126.275 47.88C126.128 48.28 126.041 48.72 126.015 49.2C126.001 49.6 126.001 50 126.015 50.4C126.041 50.88 126.128 51.32 126.275 51.72C126.421 52.12 126.655 52.4467 126.975 52.7C127.308 52.94 127.755 53.06 128.315 53.06ZM139 55.2C138.307 55.2 137.68 55.0667 137.12 54.8C136.56 54.52 136.113 54.1533 135.78 53.7C135.46 53.2333 135.3 52.7133 135.3 52.14C135.3 51.2067 135.673 50.4667 136.42 49.92C137.18 49.36 138.18 48.9867 139.42 48.8L142.16 48.4V47.98C142.16 47.42 142.02 46.9867 141.74 46.68C141.46 46.3733 140.98 46.22 140.3 46.22C139.82 46.22 139.427 46.32 139.12 46.52C138.827 46.7067 138.607 46.96 138.46 47.28C138.353 47.4533 138.2 47.54 138 47.54H136.42C136.273 47.54 136.16 47.5 136.08 47.42C136.013 47.34 135.98 47.2333 135.98 47.1C135.993 46.8867 136.08 46.6267 136.24 46.32C136.4 46.0133 136.653 45.72 137 45.44C137.347 45.1467 137.793 44.9 138.34 44.7C138.887 44.5 139.547 44.4 140.32 44.4C141.16 44.4 141.867 44.5067 142.44 44.72C143.027 44.92 143.493 45.1933 143.84 45.54C144.187 45.8867 144.44 46.2933 144.6 46.76C144.76 47.2267 144.84 47.72 144.84 48.24V54.52C144.84 54.6533 144.793 54.7667 144.7 54.86C144.607 54.9533 144.493 55 144.36 55H142.74C142.593 55 142.473 54.9533 142.38 54.86C142.3 54.7667 142.26 54.6533 142.26 54.52V53.74C142.087 53.9933 141.853 54.2333 141.56 54.46C141.267 54.6733 140.907 54.8533 140.48 55C140.067 55.1333 139.573 55.2 139 55.2ZM139.68 53.3C140.147 53.3 140.567 53.2 140.94 53C141.327 52.8 141.627 52.4933 141.84 52.08C142.067 51.6533 142.18 51.12 142.18 50.48V50.06L140.18 50.38C139.393 50.5 138.807 50.6933 138.42 50.96C138.033 51.2267 137.84 51.5533 137.84 51.94C137.84 52.2333 137.927 52.4867 138.1 52.7C138.287 52.9 138.52 53.0533 138.8 53.16C139.08 53.2533 139.373 53.3 139.68 53.3ZM147.886 55C147.753 55 147.639 54.9533 147.546 54.86C147.453 54.7667 147.406 54.6533 147.406 54.52V45.08C147.406 44.9467 147.453 44.8333 147.546 44.74C147.639 44.6467 147.753 44.6 147.886 44.6H149.526C149.659 44.6 149.773 44.6467 149.866 44.74C149.959 44.8333 150.006 44.9467 150.006 45.08V45.9C150.353 45.4733 150.793 45.12 151.326 44.84C151.873 44.5467 152.546 44.4 153.346 44.4C154.159 44.4 154.866 44.5867 155.466 44.96C156.066 45.32 156.526 45.8333 156.846 46.5C157.179 47.1667 157.346 47.9667 157.346 48.9V54.52C157.346 54.6533 157.299 54.7667 157.206 54.86C157.113 54.9533 156.999 55 156.866 55H155.106C154.973 55 154.859 54.9533 154.766 54.86C154.673 54.7667 154.626 54.6533 154.626 54.52V49.02C154.626 48.2467 154.433 47.64 154.046 47.2C153.673 46.76 153.126 46.54 152.406 46.54C151.713 46.54 151.159 46.76 150.746 47.2C150.333 47.64 150.126 48.2467 150.126 49.02V54.52C150.126 54.6533 150.079 54.7667 149.986 54.86C149.893 54.9533 149.779 55 149.646 55H147.886ZM164.586 59.4C163.613 59.4 162.813 59.2733 162.186 59.02C161.56 58.7667 161.066 58.46 160.706 58.1C160.346 57.74 160.086 57.38 159.926 57.02C159.78 56.6733 159.7 56.4 159.686 56.2C159.673 56.0667 159.713 55.9467 159.806 55.84C159.913 55.7467 160.033 55.7 160.166 55.7H161.906C162.04 55.7 162.146 55.7267 162.226 55.78C162.306 55.8467 162.373 55.96 162.426 56.12C162.506 56.2933 162.613 56.48 162.746 56.68C162.88 56.88 163.08 57.0467 163.346 57.18C163.626 57.3267 164.006 57.4 164.486 57.4C164.993 57.4 165.42 57.3267 165.766 57.18C166.113 57.0333 166.373 56.7867 166.546 56.44C166.733 56.0933 166.826 55.6133 166.826 55V53.64C166.506 54.0267 166.093 54.34 165.586 54.58C165.093 54.82 164.48 54.94 163.746 54.94C163.026 54.94 162.406 54.8267 161.886 54.6C161.366 54.36 160.933 54.0333 160.586 53.62C160.24 53.1933 159.973 52.6933 159.786 52.12C159.613 51.5467 159.513 50.9133 159.486 50.22C159.473 49.86 159.473 49.5 159.486 49.14C159.513 48.4733 159.613 47.8533 159.786 47.28C159.96 46.7067 160.22 46.2067 160.566 45.78C160.926 45.34 161.366 45 161.886 44.76C162.406 44.52 163.026 44.4 163.746 44.4C164.506 44.4 165.146 44.5467 165.666 44.84C166.186 45.12 166.613 45.4733 166.946 45.9V45.1C166.946 44.9533 166.993 44.8333 167.086 44.74C167.18 44.6467 167.293 44.6 167.426 44.6H169.046C169.18 44.6 169.293 44.6467 169.386 44.74C169.48 44.8333 169.526 44.9533 169.526 45.1L169.546 54.74C169.546 55.7 169.366 56.5267 169.006 57.22C168.646 57.9133 168.1 58.4467 167.366 58.82C166.646 59.2067 165.72 59.4 164.586 59.4ZM164.486 52.82C165.033 52.82 165.473 52.7 165.806 52.46C166.14 52.22 166.386 51.9067 166.546 51.52C166.706 51.1333 166.8 50.74 166.826 50.34C166.84 50.1667 166.846 49.9467 166.846 49.68C166.846 49.4133 166.84 49.2 166.826 49.04C166.8 48.6267 166.706 48.2333 166.546 47.86C166.386 47.4733 166.14 47.16 165.806 46.92C165.473 46.6667 165.033 46.54 164.486 46.54C163.94 46.54 163.5 46.6667 163.166 46.92C162.833 47.16 162.593 47.48 162.446 47.88C162.313 48.28 162.233 48.72 162.206 49.2C162.18 49.52 162.18 49.8467 162.206 50.18C162.233 50.6467 162.313 51.0867 162.446 51.5C162.593 51.9 162.833 52.22 163.166 52.46C163.5 52.7 163.94 52.82 164.486 52.82Z" fill="#646363"/>
<rect x="557" y="26" width="97" height="39" rx="19.5" fill="white" stroke="#BDBDBD" stroke-width="2"/>
</g>
<defs>
<filter id="filter0_d_8_2108" x="0" y="0" width="703" height="102" filterUnits="userSpaceOnUse" color-interpolation-filters="sRGB">
<feFlood flood-opacity="0" result="BackgroundImageFix"/>
<feColorMatrix in="SourceAlpha" type="matrix" values="0 0 0 0 0 0 0 0 0 0 0 0 0 0 0 0 0 0 127 0" result="hardAlpha"/>
<feMorphology radius="2" operator="dilate" in="SourceAlpha" result="effect1_dropShadow_8_2108"/>
<feOffset dx="4" dy="4"/>
<feGaussianBlur stdDeviation="10"/>
<feComposite in2="hardAlpha" operator="out"/>
<feColorMatrix type="matrix" values="0 0 0 0 0 0 0 0 0 0 0 0 0 0 0 0 0 0 0.5 0"/>
<feBlend mode="normal" in2="BackgroundImageFix" result="effect1_dropShadow_8_2108"/>
<feBlend mode="normal" in="SourceGraphic" in2="effect1_dropShadow_8_2108" result="shape"/>
</filter>
</defs>
</svg>
