<svg width="93" height="132" viewBox="0 0 93 132" fill="none" xmlns="http://www.w3.org/2000/svg">
<circle cx="46.5" cy="47.5" r="40" fill="#EDEDED"/>
<circle cx="35.5" cy="37.5" r="9" fill="#646363"/>
<circle cx="56.5" cy="37.5" r="9" fill="#646363"/>
<circle cx="35.5" cy="58.5" r="9" fill="#646363"/>
<circle cx="56.5" cy="58.5" r="9" fill="#646363"/>
<path d="M23.42 119.5C23.2733 119.5 23.1487 119.456 23.046 119.368C22.958 119.265 22.914 119.141 22.914 118.994V104.628C22.914 104.467 22.958 104.342 23.046 104.254C23.1487 104.151 23.2733 104.1 23.42 104.1H24.52C24.696 104.1 24.828 104.144 24.916 104.232C25.004 104.32 25.0553 104.393 25.07 104.452L29.734 113.34L34.42 104.452C34.4493 104.393 34.5007 104.32 34.574 104.232C34.662 104.144 34.794 104.1 34.97 104.1H36.048C36.2093 104.1 36.334 104.151 36.422 104.254C36.5247 104.342 36.576 104.467 36.576 104.628V118.994C36.576 119.141 36.5247 119.265 36.422 119.368C36.334 119.456 36.2093 119.5 36.048 119.5H34.97C34.8233 119.5 34.6987 119.456 34.596 119.368C34.508 119.265 34.464 119.141 34.464 118.994V108.17L30.79 115.342C30.7313 115.489 30.6433 115.606 30.526 115.694C30.4087 115.767 30.262 115.804 30.086 115.804H29.404C29.2133 115.804 29.0593 115.767 28.942 115.694C28.8393 115.606 28.7513 115.489 28.678 115.342L25.004 108.17V118.994C25.004 119.141 24.9527 119.265 24.85 119.368C24.762 119.456 24.6447 119.5 24.498 119.5H23.42ZM44.7808 119.72C43.6661 119.72 42.7348 119.507 41.9868 119.082C41.2388 118.657 40.6668 118.07 40.2708 117.322C39.8748 116.559 39.6548 115.694 39.6108 114.726C39.5961 114.477 39.5888 114.161 39.5888 113.78C39.5888 113.384 39.5961 113.069 39.6108 112.834C39.6548 111.851 39.8748 110.986 40.2708 110.238C40.6815 109.49 41.2608 108.903 42.0088 108.478C42.7568 108.053 43.6808 107.84 44.7808 107.84C45.8808 107.84 46.8048 108.053 47.5528 108.478C48.3008 108.903 48.8728 109.49 49.2688 110.238C49.6795 110.986 49.9068 111.851 49.9508 112.834C49.9655 113.069 49.9728 113.384 49.9728 113.78C49.9728 114.161 49.9655 114.477 49.9508 114.726C49.9068 115.694 49.6868 116.559 49.2908 117.322C48.8948 118.07 48.3228 118.657 47.5748 119.082C46.8268 119.507 45.8955 119.72 44.7808 119.72ZM44.7808 118.026C45.6901 118.026 46.4161 117.74 46.9588 117.168C47.5015 116.581 47.7948 115.731 47.8388 114.616C47.8535 114.396 47.8608 114.117 47.8608 113.78C47.8608 113.443 47.8535 113.164 47.8388 112.944C47.7948 111.829 47.5015 110.986 46.9588 110.414C46.4161 109.827 45.6901 109.534 44.7808 109.534C43.8715 109.534 43.1381 109.827 42.5808 110.414C42.0381 110.986 41.7521 111.829 41.7228 112.944C41.7081 113.164 41.7008 113.443 41.7008 113.78C41.7008 114.117 41.7081 114.396 41.7228 114.616C41.7521 115.731 42.0381 116.581 42.5808 117.168C43.1381 117.74 43.8715 118.026 44.7808 118.026ZM53.2336 119.5C53.0869 119.5 52.9623 119.456 52.8596 119.368C52.7716 119.265 52.7276 119.141 52.7276 118.994V108.588C52.7276 108.441 52.7716 108.317 52.8596 108.214C52.9623 108.111 53.0869 108.06 53.2336 108.06H54.2456C54.3923 108.06 54.5169 108.111 54.6196 108.214C54.7223 108.317 54.7736 108.441 54.7736 108.588V109.556C55.0669 109.057 55.4703 108.683 55.9836 108.434C56.4969 108.185 57.1129 108.06 57.8316 108.06H58.7116C58.8583 108.06 58.9756 108.111 59.0636 108.214C59.1516 108.302 59.1956 108.419 59.1956 108.566V109.468C59.1956 109.615 59.1516 109.732 59.0636 109.82C58.9756 109.908 58.8583 109.952 58.7116 109.952H57.3916C56.5996 109.952 55.9763 110.187 55.5216 110.656C55.0669 111.111 54.8396 111.734 54.8396 112.526V118.994C54.8396 119.141 54.7883 119.265 54.6856 119.368C54.5829 119.456 54.4583 119.5 54.3116 119.5H53.2336ZM65.4242 119.72C63.9135 119.72 62.7109 119.258 61.8162 118.334C60.9215 117.395 60.4302 116.119 60.3422 114.506C60.3275 114.315 60.3202 114.073 60.3202 113.78C60.3202 113.472 60.3275 113.223 60.3422 113.032C60.4009 111.991 60.6429 111.081 61.0682 110.304C61.4935 109.512 62.0729 108.903 62.8062 108.478C63.5542 108.053 64.4269 107.84 65.4242 107.84C66.5389 107.84 67.4702 108.075 68.2182 108.544C68.9809 109.013 69.5602 109.681 69.9562 110.546C70.3522 111.411 70.5502 112.423 70.5502 113.582V113.956C70.5502 114.117 70.4989 114.242 70.3962 114.33C70.3082 114.418 70.1909 114.462 70.0442 114.462H62.4322C62.4322 114.477 62.4322 114.506 62.4322 114.55C62.4322 114.594 62.4322 114.631 62.4322 114.66C62.4615 115.261 62.5935 115.826 62.8282 116.354C63.0629 116.867 63.4002 117.285 63.8402 117.608C64.2802 117.931 64.8082 118.092 65.4242 118.092C65.9522 118.092 66.3922 118.011 66.7442 117.85C67.0962 117.689 67.3822 117.513 67.6022 117.322C67.8222 117.117 67.9689 116.963 68.0422 116.86C68.1742 116.669 68.2769 116.559 68.3502 116.53C68.4235 116.486 68.5409 116.464 68.7022 116.464H69.7582C69.9049 116.464 70.0222 116.508 70.1102 116.596C70.2129 116.669 70.2569 116.779 70.2422 116.926C70.2275 117.146 70.1102 117.417 69.8902 117.74C69.6702 118.048 69.3549 118.356 68.9442 118.664C68.5335 118.972 68.0349 119.229 67.4482 119.434C66.8615 119.625 66.1869 119.72 65.4242 119.72ZM62.4322 112.944H68.4602V112.878C68.4602 112.218 68.3355 111.631 68.0862 111.118C67.8515 110.605 67.5069 110.201 67.0522 109.908C66.5975 109.6 66.0549 109.446 65.4242 109.446C64.7935 109.446 64.2509 109.6 63.7962 109.908C63.3562 110.201 63.0189 110.605 62.7842 111.118C62.5495 111.631 62.4322 112.218 62.4322 112.878V112.944Z" fill="#646363"/>
</svg>
