<svg width="98" height="132" viewBox="0 0 98 132" fill="none" xmlns="http://www.w3.org/2000/svg">
<rect width="98" height="98" rx="24" fill="#E0FBD2"/>
<path d="M43.1441 18.2739C46.783 16.2395 51.217 16.2395 54.8559 18.2739L73.1668 28.5112C76.9606 30.6322 79.3109 34.6389 79.3109 38.9853V58.7995C79.3109 63.1459 76.9606 67.1526 73.1668 69.2737L54.8559 79.5109C51.217 81.5453 46.783 81.5453 43.1441 79.5109L24.8332 69.2736C21.0394 67.1526 18.6891 63.1459 18.6891 58.7995V38.9853C18.6891 34.6389 21.0394 30.6322 24.8332 28.5112L43.1441 18.2739Z" fill="#00880C"/>
<path d="M31.2626 34.9707C33.3167 32.1133 50.6217 24.0035 58.8198 20.4829L69.1126 26.2383C61.3512 30.0635 45.2461 38.0118 42.9168 39.2037C40.5874 40.3956 40.2539 42.9144 40.3783 44.0249L40.141 55.3198L34.7903 46.3447L29.1792 49.772C29.2598 45.9332 29.2541 37.7646 31.2626 34.9707Z" fill="#E0FBD2"/>
<path d="M16.002 127.22C14.7113 127.22 13.6113 126.978 12.702 126.494C11.8073 126.01 11.118 125.328 10.634 124.448C10.1647 123.568 9.90067 122.534 9.842 121.346C9.82733 120.701 9.82 120.019 9.82 119.3C9.82 118.567 9.82733 117.87 9.842 117.21C9.90067 116.022 10.1647 114.995 10.634 114.13C11.118 113.265 11.8147 112.59 12.724 112.106C13.6333 111.622 14.726 111.38 16.002 111.38C17.0433 111.38 17.9453 111.527 18.708 111.82C19.4707 112.113 20.094 112.487 20.578 112.942C21.0767 113.382 21.4433 113.844 21.678 114.328C21.9273 114.812 22.0593 115.237 22.074 115.604C22.0887 115.736 22.052 115.846 21.964 115.934C21.876 116.007 21.7587 116.044 21.612 116.044H20.314C20.1673 116.044 20.0573 116.015 19.984 115.956C19.9253 115.897 19.8667 115.795 19.808 115.648C19.676 115.267 19.456 114.893 19.148 114.526C18.8547 114.159 18.4513 113.859 17.938 113.624C17.4393 113.375 16.794 113.25 16.002 113.25C14.8433 113.25 13.9047 113.565 13.186 114.196C12.482 114.827 12.1007 115.868 12.042 117.32C11.998 118.625 11.998 119.931 12.042 121.236C12.1007 122.703 12.4893 123.759 13.208 124.404C13.9267 125.035 14.8653 125.35 16.024 125.35C16.8013 125.35 17.4907 125.211 18.092 124.932C18.708 124.639 19.192 124.191 19.544 123.59C19.896 122.989 20.072 122.226 20.072 121.302V120.378H16.772C16.6253 120.378 16.5007 120.334 16.398 120.246C16.31 120.143 16.266 120.011 16.266 119.85V119.146C16.266 118.985 16.31 118.86 16.398 118.772C16.5007 118.669 16.6253 118.618 16.772 118.618H21.744C21.9053 118.618 22.03 118.669 22.118 118.772C22.206 118.86 22.25 118.985 22.25 119.146V121.258C22.25 122.461 22.0007 123.509 21.502 124.404C21.018 125.299 20.3067 125.995 19.368 126.494C18.4293 126.978 17.3073 127.22 16.002 127.22ZM29.7886 127.22C28.6739 127.22 27.7426 127.007 26.9946 126.582C26.2466 126.157 25.6746 125.57 25.2786 124.822C24.8826 124.059 24.6626 123.194 24.6186 122.226C24.6039 121.977 24.5966 121.661 24.5966 121.28C24.5966 120.884 24.6039 120.569 24.6186 120.334C24.6626 119.351 24.8826 118.486 25.2786 117.738C25.6893 116.99 26.2686 116.403 27.0166 115.978C27.7646 115.553 28.6886 115.34 29.7886 115.34C30.8886 115.34 31.8126 115.553 32.5606 115.978C33.3086 116.403 33.8806 116.99 34.2766 117.738C34.6873 118.486 34.9146 119.351 34.9586 120.334C34.9733 120.569 34.9806 120.884 34.9806 121.28C34.9806 121.661 34.9733 121.977 34.9586 122.226C34.9146 123.194 34.6946 124.059 34.2986 124.822C33.9026 125.57 33.3306 126.157 32.5826 126.582C31.8346 127.007 30.9033 127.22 29.7886 127.22ZM29.7886 125.526C30.6979 125.526 31.4239 125.24 31.9666 124.668C32.5093 124.081 32.8026 123.231 32.8466 122.116C32.8613 121.896 32.8686 121.617 32.8686 121.28C32.8686 120.943 32.8613 120.664 32.8466 120.444C32.8026 119.329 32.5093 118.486 31.9666 117.914C31.4239 117.327 30.6979 117.034 29.7886 117.034C28.8793 117.034 28.1459 117.327 27.5886 117.914C27.0459 118.486 26.7599 119.329 26.7306 120.444C26.7159 120.664 26.7086 120.943 26.7086 121.28C26.7086 121.617 26.7159 121.896 26.7306 122.116C26.7599 123.231 27.0459 124.081 27.5886 124.668C28.1459 125.24 28.8793 125.526 29.7886 125.526ZM42.9714 127.22C41.6954 127.22 40.6248 127.029 39.7594 126.648C38.8941 126.252 38.2268 125.746 37.7574 125.13C37.3028 124.499 37.0608 123.832 37.0314 123.128C37.0314 123.011 37.0754 122.908 37.1634 122.82C37.2661 122.717 37.3834 122.666 37.5154 122.666H38.6374C38.8134 122.666 38.9454 122.71 39.0334 122.798C39.1214 122.886 39.1801 122.989 39.2094 123.106C39.2828 123.458 39.4588 123.81 39.7374 124.162C40.0308 124.499 40.4341 124.785 40.9474 125.02C41.4754 125.24 42.1501 125.35 42.9714 125.35C44.2328 125.35 45.1568 125.13 45.7434 124.69C46.3448 124.235 46.6454 123.634 46.6454 122.886C46.6454 122.373 46.4841 121.962 46.1614 121.654C45.8534 121.331 45.3768 121.045 44.7314 120.796C44.0861 120.547 43.2501 120.275 42.2234 119.982C41.1528 119.674 40.2654 119.337 39.5614 118.97C38.8574 118.603 38.3294 118.149 37.9774 117.606C37.6401 117.063 37.4714 116.374 37.4714 115.538C37.4714 114.746 37.6841 114.042 38.1094 113.426C38.5348 112.795 39.1434 112.297 39.9354 111.93C40.7421 111.563 41.7174 111.38 42.8614 111.38C43.7708 111.38 44.5628 111.505 45.2374 111.754C45.9268 111.989 46.4988 112.311 46.9534 112.722C47.4081 113.118 47.7528 113.551 47.9874 114.02C48.2221 114.475 48.3468 114.922 48.3614 115.362C48.3614 115.465 48.3248 115.567 48.2514 115.67C48.1781 115.758 48.0608 115.802 47.8994 115.802H46.7334C46.6308 115.802 46.5208 115.773 46.4034 115.714C46.3008 115.655 46.2201 115.545 46.1614 115.384C46.0734 114.783 45.7361 114.277 45.1494 113.866C44.5628 113.455 43.8001 113.25 42.8614 113.25C41.9081 113.25 41.1308 113.433 40.5294 113.8C39.9428 114.167 39.6494 114.739 39.6494 115.516C39.6494 116.015 39.7888 116.433 40.0674 116.77C40.3461 117.093 40.7861 117.379 41.3874 117.628C41.9888 117.877 42.7734 118.141 43.7414 118.42C44.9148 118.743 45.8754 119.087 46.6234 119.454C47.3714 119.806 47.9214 120.253 48.2734 120.796C48.6401 121.324 48.8234 122.006 48.8234 122.842C48.8234 123.766 48.5814 124.558 48.0974 125.218C47.6134 125.863 46.9314 126.362 46.0514 126.714C45.1861 127.051 44.1594 127.22 42.9714 127.22ZM55.975 127.22C54.4643 127.22 53.2616 126.758 52.367 125.834C51.4723 124.895 50.981 123.619 50.893 122.006C50.8783 121.815 50.871 121.573 50.871 121.28C50.871 120.972 50.8783 120.723 50.893 120.532C50.9516 119.491 51.1936 118.581 51.619 117.804C52.0443 117.012 52.6236 116.403 53.357 115.978C54.105 115.553 54.9776 115.34 55.975 115.34C57.0896 115.34 58.021 115.575 58.769 116.044C59.5316 116.513 60.111 117.181 60.507 118.046C60.903 118.911 61.101 119.923 61.101 121.082V121.456C61.101 121.617 61.0496 121.742 60.947 121.83C60.859 121.918 60.7416 121.962 60.595 121.962H52.983C52.983 121.977 52.983 122.006 52.983 122.05C52.983 122.094 52.983 122.131 52.983 122.16C53.0123 122.761 53.1443 123.326 53.379 123.854C53.6136 124.367 53.951 124.785 54.391 125.108C54.831 125.431 55.359 125.592 55.975 125.592C56.503 125.592 56.943 125.511 57.295 125.35C57.647 125.189 57.933 125.013 58.153 124.822C58.373 124.617 58.5196 124.463 58.593 124.36C58.725 124.169 58.8276 124.059 58.901 124.03C58.9743 123.986 59.0916 123.964 59.253 123.964H60.309C60.4556 123.964 60.573 124.008 60.661 124.096C60.7636 124.169 60.8076 124.279 60.793 124.426C60.7783 124.646 60.661 124.917 60.441 125.24C60.221 125.548 59.9056 125.856 59.495 126.164C59.0843 126.472 58.5856 126.729 57.999 126.934C57.4123 127.125 56.7376 127.22 55.975 127.22ZM52.983 120.444H59.011V120.378C59.011 119.718 58.8863 119.131 58.637 118.618C58.4023 118.105 58.0576 117.701 57.603 117.408C57.1483 117.1 56.6056 116.946 55.975 116.946C55.3443 116.946 54.8016 117.1 54.347 117.408C53.907 117.701 53.5696 118.105 53.335 118.618C53.1003 119.131 52.983 119.718 52.983 120.378V120.444ZM64.2375 127C64.0908 127 63.9662 126.956 63.8635 126.868C63.7755 126.765 63.7315 126.641 63.7315 126.494V116.066C63.7315 115.919 63.7755 115.802 63.8635 115.714C63.9662 115.611 64.0908 115.56 64.2375 115.56H65.2715C65.4182 115.56 65.5355 115.611 65.6235 115.714C65.7262 115.802 65.7775 115.919 65.7775 116.066V117.034C66.1588 116.535 66.6355 116.132 67.2075 115.824C67.7942 115.501 68.5422 115.34 69.4515 115.34C70.4048 115.34 71.2115 115.553 71.8715 115.978C72.5462 116.389 73.0522 116.968 73.3895 117.716C73.7268 118.449 73.8955 119.307 73.8955 120.29V126.494C73.8955 126.641 73.8515 126.765 73.7635 126.868C73.6755 126.956 73.5582 127 73.4115 127H72.3115C72.1648 127 72.0402 126.956 71.9375 126.868C71.8495 126.765 71.8055 126.641 71.8055 126.494V120.4C71.8055 119.373 71.5562 118.574 71.0575 118.002C70.5588 117.415 69.8255 117.122 68.8575 117.122C67.9482 117.122 67.2148 117.415 66.6575 118.002C66.1148 118.574 65.8435 119.373 65.8435 120.4V126.494C65.8435 126.641 65.7922 126.765 65.6895 126.868C65.6015 126.956 65.4842 127 65.3375 127H64.2375ZM81.2533 127.22C80.4466 127.22 79.75 127.081 79.1633 126.802C78.5766 126.509 78.0926 126.12 77.7113 125.636C77.3446 125.137 77.066 124.573 76.8753 123.942C76.6993 123.311 76.5966 122.644 76.5673 121.94C76.5526 121.705 76.5453 121.485 76.5453 121.28C76.5453 121.075 76.5526 120.855 76.5673 120.62C76.5966 119.931 76.6993 119.271 76.8753 118.64C77.066 118.009 77.3446 117.445 77.7113 116.946C78.0926 116.447 78.5766 116.059 79.1633 115.78C79.75 115.487 80.4466 115.34 81.2533 115.34C82.1186 115.34 82.8373 115.494 83.4093 115.802C83.9813 116.11 84.4506 116.491 84.8173 116.946V111.886C84.8173 111.739 84.8613 111.622 84.9493 111.534C85.052 111.431 85.1766 111.38 85.3233 111.38H86.3793C86.526 111.38 86.6433 111.431 86.7313 111.534C86.834 111.622 86.8853 111.739 86.8853 111.886V126.494C86.8853 126.641 86.834 126.765 86.7313 126.868C86.6433 126.956 86.526 127 86.3793 127H85.3893C85.228 127 85.1033 126.956 85.0153 126.868C84.9273 126.765 84.8833 126.641 84.8833 126.494V125.57C84.5166 126.039 84.04 126.435 83.4533 126.758C82.8666 127.066 82.1333 127.22 81.2533 127.22ZM81.7153 125.438C82.4486 125.438 83.0353 125.269 83.4753 124.932C83.9153 124.595 84.2453 124.169 84.4653 123.656C84.6853 123.128 84.8026 122.593 84.8173 122.05C84.832 121.815 84.8393 121.537 84.8393 121.214C84.8393 120.877 84.832 120.591 84.8173 120.356C84.8026 119.843 84.678 119.337 84.4433 118.838C84.2233 118.339 83.886 117.929 83.4313 117.606C82.9913 117.283 82.4193 117.122 81.7153 117.122C80.9673 117.122 80.3733 117.291 79.9333 117.628C79.4933 117.951 79.178 118.383 78.9873 118.926C78.7966 119.454 78.6866 120.026 78.6573 120.642C78.6426 121.067 78.6426 121.493 78.6573 121.918C78.6866 122.534 78.7966 123.113 78.9873 123.656C79.178 124.184 79.4933 124.617 79.9333 124.954C80.3733 125.277 80.9673 125.438 81.7153 125.438Z" fill="#646363"/>
</svg>
