<svg width="98" height="132" viewBox="0 0 98 132" fill="none" xmlns="http://www.w3.org/2000/svg">
<rect width="98" height="98" rx="24" fill="#E0FBD2"/>
<path d="M14.0927 59.5341C14.2346 61.3793 18.883 63.3782 21.1895 64.1471C21.4261 63.7331 21.0476 63.6503 21.8992 60.9535C22.9637 57.5825 25.0927 56.6954 26.1573 55.8083C27.2218 54.9212 30.4153 54.2115 33.4315 54.7438C36.4476 55.2761 36.4476 55.2761 38.9315 58.2922L38.9315 58.2922C41.5645 61.4895 41.6519 63.9105 41.4154 65.5664H56.3186C56.5552 64.2062 56.7476 61.0329 57.3831 59.889C58.2702 58.2922 59.1573 57.7599 60.5767 56.3406C61.9961 54.9212 66.4349 54.1867 67.8509 54.389C70.3348 54.7438 69.8025 54.6994 73.1735 57.2277C76.0122 59.3567 76.2488 61.9589 76.5445 63.9696C76.7219 64.0288 77.7864 63.8987 80.6251 62.9051C83.4638 61.9116 84.0552 59.4159 83.9961 58.2922V52.6148C83.937 52.2008 83.5348 50.876 82.3993 48.8889C81.2638 46.9018 78.023 46.1685 76.5445 46.0502L68.2057 45.3406C65.9584 41.6739 61.038 33.9147 59.3348 32.2115C57.6315 30.5082 53.539 29.3136 51.5283 29.0179C46.324 28.9588 35.1702 29.0534 33.6089 29.1954C32.0476 29.3373 28.7003 32.3297 27.0444 33.9857C25.211 37.5932 22.0766 45.3405 20.4798 45.1631C18.7077 44.9662 15.6895 46.9373 14.8024 47.8244C13.9153 48.7115 13.9153 57.2277 14.0927 59.5341Z" fill="#00880C"/>
<ellipse cx="31.3026" cy="64.6792" rx="6.38711" ry="6.38711" fill="#00880C"/>
<ellipse cx="66.4313" cy="64.6792" rx="6.38711" ry="6.38711" fill="#00880C"/>
<path d="M25.002 127.22C23.7113 127.22 22.6113 126.978 21.702 126.494C20.8073 126.01 20.118 125.328 19.634 124.448C19.1647 123.568 18.9007 122.534 18.842 121.346C18.8273 120.701 18.82 120.019 18.82 119.3C18.82 118.567 18.8273 117.87 18.842 117.21C18.9007 116.022 19.1647 114.995 19.634 114.13C20.118 113.265 20.8147 112.59 21.724 112.106C22.6333 111.622 23.726 111.38 25.002 111.38C26.0433 111.38 26.9453 111.527 27.708 111.82C28.4707 112.113 29.094 112.487 29.578 112.942C30.0767 113.382 30.4433 113.844 30.678 114.328C30.9273 114.812 31.0593 115.237 31.074 115.604C31.0887 115.736 31.052 115.846 30.964 115.934C30.876 116.007 30.7587 116.044 30.612 116.044H29.314C29.1673 116.044 29.0573 116.015 28.984 115.956C28.9253 115.897 28.8667 115.795 28.808 115.648C28.676 115.267 28.456 114.893 28.148 114.526C27.8547 114.159 27.4513 113.859 26.938 113.624C26.4393 113.375 25.794 113.25 25.002 113.25C23.8433 113.25 22.9047 113.565 22.186 114.196C21.482 114.827 21.1007 115.868 21.042 117.32C20.998 118.625 20.998 119.931 21.042 121.236C21.1007 122.703 21.4893 123.759 22.208 124.404C22.9267 125.035 23.8653 125.35 25.024 125.35C25.8013 125.35 26.4907 125.211 27.092 124.932C27.708 124.639 28.192 124.191 28.544 123.59C28.896 122.989 29.072 122.226 29.072 121.302V120.378H25.772C25.6253 120.378 25.5007 120.334 25.398 120.246C25.31 120.143 25.266 120.011 25.266 119.85V119.146C25.266 118.985 25.31 118.86 25.398 118.772C25.5007 118.669 25.6253 118.618 25.772 118.618H30.744C30.9053 118.618 31.03 118.669 31.118 118.772C31.206 118.86 31.25 118.985 31.25 119.146V121.258C31.25 122.461 31.0007 123.509 30.502 124.404C30.018 125.299 29.3067 125.995 28.368 126.494C27.4293 126.978 26.3073 127.22 25.002 127.22ZM38.7886 127.22C37.6739 127.22 36.7426 127.007 35.9946 126.582C35.2466 126.157 34.6746 125.57 34.2786 124.822C33.8826 124.059 33.6626 123.194 33.6186 122.226C33.6039 121.977 33.5966 121.661 33.5966 121.28C33.5966 120.884 33.6039 120.569 33.6186 120.334C33.6626 119.351 33.8826 118.486 34.2786 117.738C34.6893 116.99 35.2686 116.403 36.0166 115.978C36.7646 115.553 37.6886 115.34 38.7886 115.34C39.8886 115.34 40.8126 115.553 41.5606 115.978C42.3086 116.403 42.8806 116.99 43.2766 117.738C43.6873 118.486 43.9146 119.351 43.9586 120.334C43.9733 120.569 43.9806 120.884 43.9806 121.28C43.9806 121.661 43.9733 121.977 43.9586 122.226C43.9146 123.194 43.6946 124.059 43.2986 124.822C42.9026 125.57 42.3306 126.157 41.5826 126.582C40.8346 127.007 39.9033 127.22 38.7886 127.22ZM38.7886 125.526C39.6979 125.526 40.4239 125.24 40.9666 124.668C41.5093 124.081 41.8026 123.231 41.8466 122.116C41.8613 121.896 41.8686 121.617 41.8686 121.28C41.8686 120.943 41.8613 120.664 41.8466 120.444C41.8026 119.329 41.5093 118.486 40.9666 117.914C40.4239 117.327 39.6979 117.034 38.7886 117.034C37.8793 117.034 37.1459 117.327 36.5886 117.914C36.0459 118.486 35.7599 119.329 35.7306 120.444C35.7159 120.664 35.7086 120.943 35.7086 121.28C35.7086 121.617 35.7159 121.896 35.7306 122.116C35.7599 123.231 36.0459 124.081 36.5886 124.668C37.1459 125.24 37.8793 125.526 38.7886 125.526ZM52.5654 127.22C51.2161 127.22 50.0941 126.971 49.1994 126.472C48.3194 125.973 47.6521 125.277 47.1974 124.382C46.7428 123.487 46.4934 122.446 46.4494 121.258C46.4348 120.657 46.4274 120.011 46.4274 119.322C46.4274 118.633 46.4348 117.973 46.4494 117.342C46.4934 116.154 46.7428 115.113 47.1974 114.218C47.6521 113.323 48.3194 112.627 49.1994 112.128C50.0941 111.629 51.2161 111.38 52.5654 111.38C53.5774 111.38 54.4648 111.519 55.2274 111.798C55.9901 112.077 56.6208 112.451 57.1194 112.92C57.6328 113.389 58.0214 113.917 58.2854 114.504C58.5494 115.076 58.6961 115.67 58.7254 116.286C58.7401 116.418 58.6961 116.528 58.5934 116.616C58.5054 116.704 58.3954 116.748 58.2634 116.748H57.0534C56.9214 116.748 56.8041 116.711 56.7014 116.638C56.6134 116.565 56.5474 116.433 56.5034 116.242C56.2541 115.098 55.7848 114.313 55.0954 113.888C54.4208 113.463 53.5701 113.25 52.5434 113.25C51.3701 113.25 50.4388 113.587 49.7494 114.262C49.0601 114.922 48.6861 115.985 48.6274 117.452C48.5834 118.655 48.5834 119.887 48.6274 121.148C48.6861 122.615 49.0601 123.685 49.7494 124.36C50.4388 125.02 51.3701 125.35 52.5434 125.35C53.5701 125.35 54.4208 125.137 55.0954 124.712C55.7848 124.287 56.2541 123.502 56.5034 122.358C56.5474 122.167 56.6134 122.035 56.7014 121.962C56.8041 121.889 56.9214 121.852 57.0534 121.852H58.2634C58.3954 121.852 58.5054 121.896 58.5934 121.984C58.6961 122.072 58.7401 122.182 58.7254 122.314C58.6961 122.93 58.5494 123.531 58.2854 124.118C58.0214 124.69 57.6328 125.211 57.1194 125.68C56.6208 126.149 55.9901 126.523 55.2274 126.802C54.4648 127.081 53.5774 127.22 52.5654 127.22ZM64.5778 127.22C63.8444 127.22 63.1771 127.073 62.5758 126.78C61.9744 126.487 61.4904 126.091 61.1238 125.592C60.7571 125.093 60.5738 124.529 60.5738 123.898C60.5738 122.886 60.9844 122.079 61.8058 121.478C62.6271 120.877 63.6978 120.481 65.0178 120.29L68.2958 119.828V119.19C68.2958 118.486 68.0904 117.936 67.6798 117.54C67.2838 117.144 66.6311 116.946 65.7218 116.946C65.0618 116.946 64.5264 117.078 64.1158 117.342C63.7198 117.606 63.4411 117.943 63.2798 118.354C63.1918 118.574 63.0378 118.684 62.8178 118.684H61.8278C61.6664 118.684 61.5418 118.64 61.4538 118.552C61.3804 118.449 61.3438 118.332 61.3438 118.2C61.3438 117.98 61.4244 117.709 61.5858 117.386C61.7618 117.063 62.0258 116.748 62.3778 116.44C62.7298 116.132 63.1771 115.875 63.7198 115.67C64.2771 115.45 64.9518 115.34 65.7438 115.34C66.6238 115.34 67.3644 115.457 67.9658 115.692C68.5671 115.912 69.0364 116.213 69.3738 116.594C69.7258 116.975 69.9751 117.408 70.1218 117.892C70.2831 118.376 70.3638 118.867 70.3638 119.366V126.494C70.3638 126.641 70.3124 126.765 70.2098 126.868C70.1218 126.956 70.0044 127 69.8578 127H68.8458C68.6844 127 68.5598 126.956 68.4718 126.868C68.3838 126.765 68.3398 126.641 68.3398 126.494V125.548C68.1491 125.812 67.8924 126.076 67.5698 126.34C67.2471 126.589 66.8438 126.802 66.3598 126.978C65.8758 127.139 65.2818 127.22 64.5778 127.22ZM65.0398 125.57C65.6411 125.57 66.1911 125.445 66.6898 125.196C67.1884 124.932 67.5771 124.529 67.8558 123.986C68.1491 123.443 68.2958 122.761 68.2958 121.94V121.324L65.7438 121.698C64.7024 121.845 63.9178 122.094 63.3898 122.446C62.8618 122.783 62.5978 123.216 62.5978 123.744C62.5978 124.155 62.7151 124.499 62.9498 124.778C63.1991 125.042 63.5071 125.24 63.8738 125.372C64.2551 125.504 64.6438 125.57 65.0398 125.57ZM74.0324 127C73.8858 127 73.7611 126.956 73.6584 126.868C73.5704 126.765 73.5264 126.641 73.5264 126.494V116.088C73.5264 115.941 73.5704 115.817 73.6584 115.714C73.7611 115.611 73.8858 115.56 74.0324 115.56H75.0444C75.1911 115.56 75.3158 115.611 75.4184 115.714C75.5211 115.817 75.5724 115.941 75.5724 116.088V117.056C75.8658 116.557 76.2691 116.183 76.7824 115.934C77.2958 115.685 77.9118 115.56 78.6304 115.56H79.5104C79.6571 115.56 79.7744 115.611 79.8624 115.714C79.9504 115.802 79.9944 115.919 79.9944 116.066V116.968C79.9944 117.115 79.9504 117.232 79.8624 117.32C79.7744 117.408 79.6571 117.452 79.5104 117.452H78.1904C77.3984 117.452 76.7751 117.687 76.3204 118.156C75.8658 118.611 75.6384 119.234 75.6384 120.026V126.494C75.6384 126.641 75.5871 126.765 75.4844 126.868C75.3818 126.956 75.2571 127 75.1104 127H74.0324Z" fill="#646363"/>
</svg>
