<svg width="98" height="132" viewBox="0 0 98 132" fill="none" xmlns="http://www.w3.org/2000/svg">
<rect width="98" height="98" rx="24" fill="#FFE1DF"/>
<path d="M62.341 72.6576L61.4366 61.0811C61.4366 60.2128 60.3513 58.3075 59.8087 58.006C59.0851 57.6443 57.2763 56.4866 55.8292 54.7501C54.0204 52.5795 52.9351 50.0472 52.3925 46.7913C51.8498 43.5354 53.4777 37.928 53.6586 36.8427C53.8395 35.7574 56.9145 29.7883 59.0851 26.8941C60.8216 24.5788 63.5469 24 64.6925 24C65.5969 24.0603 67.5505 23.8553 69.5764 24.7235C72.1087 25.8088 73.5558 28.3412 75.7264 31.778C77.4629 34.5274 78.6205 40.8221 78.9823 43.5354C79.0426 44.6207 78.9823 47.2978 78.2587 50.0472C77.5352 52.7966 76.269 54.3281 75.7264 54.7501C75.0028 55.2928 73.8814 56.161 72.2896 57.4634C70.6978 58.7658 69.8175 60.4781 69.9381 60.9002L69.3955 72.4767C69.3352 73.562 68.0569 74.8282 67.044 74.8282H64.8734C63.4263 74.8282 62.6425 73.5017 62.341 72.6576Z" fill="#EE2737"/>
<path d="M29.6721 71.9453C29.5274 71.5111 29.25 65.132 29.1294 61.9967C28.658 60.4645 27.7365 59.1097 26.4848 58.1083L24.7883 56.7511C24.2456 56.329 22.7624 54.9061 21.1706 52.5908C19.5788 50.2755 19.1206 45.7775 19 43.7275L19.9742 31.3417C20.1571 29.0161 21.3973 26.1889 23.703 26.5436C25.5841 26.833 26.778 28.5333 26.5971 29.2568L25.8735 41.5569C25.753 41.8584 25.7409 43.5466 27.6824 43.5466C29.4912 43.5466 29.7324 42.5819 29.6721 41.5569L29.9384 29.9736C29.9997 27.3076 31.0012 23.7167 33.6515 24.0112C33.8396 24.0321 34.0174 24.086 34.1846 24.1654C36.1122 25.0803 35.9508 27.8093 35.9287 29.9429C35.88 34.6591 36.0193 40.8821 36.3648 41.9187C36.483 42.2732 36.7067 42.6269 36.9818 42.9564C38.183 44.3947 39.4856 43.6587 40.5251 42.0995C41.3069 40.9269 40.6808 34.3868 40.1522 30.3228C40.0462 29.5074 40.1658 28.6787 40.5103 27.9322C40.8712 27.1504 41.483 26.4729 42.3304 26.3203C43.1246 26.1772 44.0809 26.2009 44.8663 26.7245C46.1686 27.5927 46.4942 29.498 46.4942 30.3421L47.3987 39.9289C47.3987 42.5819 47.1454 48.6113 46.1325 51.5055C45.1195 54.3996 43.4192 55.8467 42.6957 56.3893C41.7913 57.0525 40.2434 57.9228 39.078 58.9217C37.8119 60.007 37.028 61.032 37.0883 61.9967C37.0883 65.0114 37.2123 71.7799 36.003 73.3923C34.3751 75.5629 32.5662 74.8394 32.2045 74.8394C30.2066 74.8394 29.853 72.4879 29.6721 71.9453Z" fill="#EE2737"/>
<path d="M17.002 127.22C15.7113 127.22 14.6113 126.978 13.702 126.494C12.8073 126.01 12.118 125.328 11.634 124.448C11.1647 123.568 10.9007 122.534 10.842 121.346C10.8273 120.701 10.82 120.019 10.82 119.3C10.82 118.567 10.8273 117.87 10.842 117.21C10.9007 116.022 11.1647 114.995 11.634 114.13C12.118 113.265 12.8147 112.59 13.724 112.106C14.6333 111.622 15.726 111.38 17.002 111.38C18.0433 111.38 18.9453 111.527 19.708 111.82C20.4707 112.113 21.094 112.487 21.578 112.942C22.0767 113.382 22.4433 113.844 22.678 114.328C22.9273 114.812 23.0593 115.237 23.074 115.604C23.0887 115.736 23.052 115.846 22.964 115.934C22.876 116.007 22.7587 116.044 22.612 116.044H21.314C21.1673 116.044 21.0573 116.015 20.984 115.956C20.9253 115.897 20.8667 115.795 20.808 115.648C20.676 115.267 20.456 114.893 20.148 114.526C19.8547 114.159 19.4513 113.859 18.938 113.624C18.4393 113.375 17.794 113.25 17.002 113.25C15.8433 113.25 14.9047 113.565 14.186 114.196C13.482 114.827 13.1007 115.868 13.042 117.32C12.998 118.625 12.998 119.931 13.042 121.236C13.1007 122.703 13.4893 123.759 14.208 124.404C14.9267 125.035 15.8653 125.35 17.024 125.35C17.8013 125.35 18.4907 125.211 19.092 124.932C19.708 124.639 20.192 124.191 20.544 123.59C20.896 122.989 21.072 122.226 21.072 121.302V120.378H17.772C17.6253 120.378 17.5007 120.334 17.398 120.246C17.31 120.143 17.266 120.011 17.266 119.85V119.146C17.266 118.985 17.31 118.86 17.398 118.772C17.5007 118.669 17.6253 118.618 17.772 118.618H22.744C22.9053 118.618 23.03 118.669 23.118 118.772C23.206 118.86 23.25 118.985 23.25 119.146V121.258C23.25 122.461 23.0007 123.509 22.502 124.404C22.018 125.299 21.3067 125.995 20.368 126.494C19.4293 126.978 18.3073 127.22 17.002 127.22ZM30.7886 127.22C29.6739 127.22 28.7426 127.007 27.9946 126.582C27.2466 126.157 26.6746 125.57 26.2786 124.822C25.8826 124.059 25.6626 123.194 25.6186 122.226C25.6039 121.977 25.5966 121.661 25.5966 121.28C25.5966 120.884 25.6039 120.569 25.6186 120.334C25.6626 119.351 25.8826 118.486 26.2786 117.738C26.6893 116.99 27.2686 116.403 28.0166 115.978C28.7646 115.553 29.6886 115.34 30.7886 115.34C31.8886 115.34 32.8126 115.553 33.5606 115.978C34.3086 116.403 34.8806 116.99 35.2766 117.738C35.6873 118.486 35.9146 119.351 35.9586 120.334C35.9733 120.569 35.9806 120.884 35.9806 121.28C35.9806 121.661 35.9733 121.977 35.9586 122.226C35.9146 123.194 35.6946 124.059 35.2986 124.822C34.9026 125.57 34.3306 126.157 33.5826 126.582C32.8346 127.007 31.9033 127.22 30.7886 127.22ZM30.7886 125.526C31.6979 125.526 32.4239 125.24 32.9666 124.668C33.5093 124.081 33.8026 123.231 33.8466 122.116C33.8613 121.896 33.8686 121.617 33.8686 121.28C33.8686 120.943 33.8613 120.664 33.8466 120.444C33.8026 119.329 33.5093 118.486 32.9666 117.914C32.4239 117.327 31.6979 117.034 30.7886 117.034C29.8793 117.034 29.1459 117.327 28.5886 117.914C28.0459 118.486 27.7599 119.329 27.7306 120.444C27.7159 120.664 27.7086 120.943 27.7086 121.28C27.7086 121.617 27.7159 121.896 27.7306 122.116C27.7599 123.231 28.0459 124.081 28.5886 124.668C29.1459 125.24 29.8793 125.526 30.7886 125.526ZM39.5274 127C39.3661 127 39.2414 126.956 39.1534 126.868C39.0654 126.765 39.0214 126.641 39.0214 126.494V112.128C39.0214 111.967 39.0654 111.842 39.1534 111.754C39.2414 111.651 39.3661 111.6 39.5274 111.6H48.5034C48.6648 111.6 48.7894 111.651 48.8774 111.754C48.9654 111.842 49.0094 111.967 49.0094 112.128V113.008C49.0094 113.169 48.9654 113.294 48.8774 113.382C48.7894 113.47 48.6648 113.514 48.5034 113.514H41.1554V118.64H48.0634C48.2248 118.64 48.3494 118.691 48.4374 118.794C48.5254 118.882 48.5694 119.007 48.5694 119.168V120.048C48.5694 120.195 48.5254 120.319 48.4374 120.422C48.3494 120.51 48.2248 120.554 48.0634 120.554H41.1554V126.494C41.1554 126.641 41.1041 126.765 41.0014 126.868C40.9134 126.956 40.7888 127 40.6274 127H39.5274ZM56.0328 127.22C54.9181 127.22 53.9868 127.007 53.2388 126.582C52.4908 126.157 51.9188 125.57 51.5228 124.822C51.1268 124.059 50.9068 123.194 50.8628 122.226C50.8481 121.977 50.8408 121.661 50.8408 121.28C50.8408 120.884 50.8481 120.569 50.8628 120.334C50.9068 119.351 51.1268 118.486 51.5228 117.738C51.9334 116.99 52.5128 116.403 53.2608 115.978C54.0088 115.553 54.9328 115.34 56.0328 115.34C57.1328 115.34 58.0568 115.553 58.8048 115.978C59.5528 116.403 60.1248 116.99 60.5208 117.738C60.9314 118.486 61.1588 119.351 61.2028 120.334C61.2174 120.569 61.2248 120.884 61.2248 121.28C61.2248 121.661 61.2174 121.977 61.2028 122.226C61.1588 123.194 60.9388 124.059 60.5428 124.822C60.1468 125.57 59.5748 126.157 58.8268 126.582C58.0788 127.007 57.1474 127.22 56.0328 127.22ZM56.0328 125.526C56.9421 125.526 57.6681 125.24 58.2108 124.668C58.7534 124.081 59.0468 123.231 59.0908 122.116C59.1054 121.896 59.1128 121.617 59.1128 121.28C59.1128 120.943 59.1054 120.664 59.0908 120.444C59.0468 119.329 58.7534 118.486 58.2108 117.914C57.6681 117.327 56.9421 117.034 56.0328 117.034C55.1234 117.034 54.3901 117.327 53.8328 117.914C53.2901 118.486 53.0041 119.329 52.9748 120.444C52.9601 120.664 52.9527 120.943 52.9527 121.28C52.9527 121.617 52.9601 121.896 52.9748 122.116C53.0041 123.231 53.2901 124.081 53.8328 124.668C54.3901 125.24 55.1234 125.526 56.0328 125.526ZM68.6656 127.22C67.5509 127.22 66.6196 127.007 65.8716 126.582C65.1236 126.157 64.5516 125.57 64.1556 124.822C63.7596 124.059 63.5396 123.194 63.4956 122.226C63.4809 121.977 63.4736 121.661 63.4736 121.28C63.4736 120.884 63.4809 120.569 63.4956 120.334C63.5396 119.351 63.7596 118.486 64.1556 117.738C64.5662 116.99 65.1456 116.403 65.8936 115.978C66.6416 115.553 67.5656 115.34 68.6656 115.34C69.7656 115.34 70.6896 115.553 71.4376 115.978C72.1856 116.403 72.7576 116.99 73.1536 117.738C73.5642 118.486 73.7916 119.351 73.8356 120.334C73.8502 120.569 73.8576 120.884 73.8576 121.28C73.8576 121.661 73.8502 121.977 73.8356 122.226C73.7916 123.194 73.5716 124.059 73.1756 124.822C72.7796 125.57 72.2076 126.157 71.4596 126.582C70.7116 127.007 69.7802 127.22 68.6656 127.22ZM68.6656 125.526C69.5749 125.526 70.3009 125.24 70.8436 124.668C71.3862 124.081 71.6796 123.231 71.7236 122.116C71.7382 121.896 71.7456 121.617 71.7456 121.28C71.7456 120.943 71.7382 120.664 71.7236 120.444C71.6796 119.329 71.3862 118.486 70.8436 117.914C70.3009 117.327 69.5749 117.034 68.6656 117.034C67.7562 117.034 67.0229 117.327 66.4656 117.914C65.9229 118.486 65.6369 119.329 65.6076 120.444C65.5929 120.664 65.5856 120.943 65.5856 121.28C65.5856 121.617 65.5929 121.896 65.6076 122.116C65.6369 123.231 65.9229 124.081 66.4656 124.668C67.0229 125.24 67.7562 125.526 68.6656 125.526ZM80.7924 127.22C79.9857 127.22 79.289 127.081 78.7024 126.802C78.1157 126.509 77.6317 126.12 77.2504 125.636C76.8837 125.137 76.605 124.573 76.4144 123.942C76.2384 123.311 76.1357 122.644 76.1064 121.94C76.0917 121.705 76.0844 121.485 76.0844 121.28C76.0844 121.075 76.0917 120.855 76.1064 120.62C76.1357 119.931 76.2384 119.271 76.4144 118.64C76.605 118.009 76.8837 117.445 77.2504 116.946C77.6317 116.447 78.1157 116.059 78.7024 115.78C79.289 115.487 79.9857 115.34 80.7924 115.34C81.6577 115.34 82.3764 115.494 82.9484 115.802C83.5204 116.11 83.9897 116.491 84.3564 116.946V111.886C84.3564 111.739 84.4004 111.622 84.4884 111.534C84.591 111.431 84.7157 111.38 84.8624 111.38H85.9184C86.065 111.38 86.1824 111.431 86.2704 111.534C86.373 111.622 86.4244 111.739 86.4244 111.886V126.494C86.4244 126.641 86.373 126.765 86.2704 126.868C86.1824 126.956 86.065 127 85.9184 127H84.9284C84.767 127 84.6424 126.956 84.5544 126.868C84.4664 126.765 84.4224 126.641 84.4224 126.494V125.57C84.0557 126.039 83.579 126.435 82.9924 126.758C82.4057 127.066 81.6724 127.22 80.7924 127.22ZM81.2544 125.438C81.9877 125.438 82.5744 125.269 83.0144 124.932C83.4544 124.595 83.7844 124.169 84.0044 123.656C84.2244 123.128 84.3417 122.593 84.3564 122.05C84.371 121.815 84.3784 121.537 84.3784 121.214C84.3784 120.877 84.371 120.591 84.3564 120.356C84.3417 119.843 84.217 119.337 83.9824 118.838C83.7624 118.339 83.425 117.929 82.9704 117.606C82.5304 117.283 81.9584 117.122 81.2544 117.122C80.5064 117.122 79.9124 117.291 79.4724 117.628C79.0324 117.951 78.717 118.383 78.5264 118.926C78.3357 119.454 78.2257 120.026 78.1964 120.642C78.1817 121.067 78.1817 121.493 78.1964 121.918C78.2257 122.534 78.3357 123.113 78.5264 123.656C78.717 124.184 79.0324 124.617 79.4724 124.954C79.9124 125.277 80.5064 125.438 81.2544 125.438Z" fill="#646363"/>
</svg>
