<svg width="103" height="128" viewBox="0 0 103 128" fill="none" xmlns="http://www.w3.org/2000/svg">
<rect x="2.5" width="98" height="98" rx="24" fill="#E0FBD2"/>
<path d="M7.002 127.22C5.71133 127.22 4.61133 126.978 3.702 126.494C2.80733 126.01 2.118 125.328 1.634 124.448C1.16467 123.568 0.900667 122.534 0.842 121.346C0.827333 120.701 0.82 120.019 0.82 119.3C0.82 118.567 0.827333 117.87 0.842 117.21C0.900667 116.022 1.16467 114.995 1.634 114.13C2.118 113.265 2.81467 112.59 3.724 112.106C4.63333 111.622 5.726 111.38 7.002 111.38C8.04333 111.38 8.94533 111.527 9.708 111.82C10.4707 112.113 11.094 112.487 11.578 112.942C12.0767 113.382 12.4433 113.844 12.678 114.328C12.9273 114.812 13.0593 115.237 13.074 115.604C13.0887 115.736 13.052 115.846 12.964 115.934C12.876 116.007 12.7587 116.044 12.612 116.044H11.314C11.1673 116.044 11.0573 116.015 10.984 115.956C10.9253 115.897 10.8667 115.795 10.808 115.648C10.676 115.267 10.456 114.893 10.148 114.526C9.85467 114.159 9.45133 113.859 8.938 113.624C8.43933 113.375 7.794 113.25 7.002 113.25C5.84333 113.25 4.90467 113.565 4.186 114.196C3.482 114.827 3.10067 115.868 3.042 117.32C2.998 118.625 2.998 119.931 3.042 121.236C3.10067 122.703 3.48933 123.759 4.208 124.404C4.92667 125.035 5.86533 125.35 7.024 125.35C7.80133 125.35 8.49067 125.211 9.092 124.932C9.708 124.639 10.192 124.191 10.544 123.59C10.896 122.989 11.072 122.226 11.072 121.302V120.378H7.772C7.62533 120.378 7.50067 120.334 7.398 120.246C7.31 120.143 7.266 120.011 7.266 119.85V119.146C7.266 118.985 7.31 118.86 7.398 118.772C7.50067 118.669 7.62533 118.618 7.772 118.618H12.744C12.9053 118.618 13.03 118.669 13.118 118.772C13.206 118.86 13.25 118.985 13.25 119.146V121.258C13.25 122.461 13.0007 123.509 12.502 124.404C12.018 125.299 11.3067 125.995 10.368 126.494C9.42933 126.978 8.30733 127.22 7.002 127.22ZM20.7886 127.22C19.6739 127.22 18.7426 127.007 17.9946 126.582C17.2466 126.157 16.6746 125.57 16.2786 124.822C15.8826 124.059 15.6626 123.194 15.6186 122.226C15.6039 121.977 15.5966 121.661 15.5966 121.28C15.5966 120.884 15.6039 120.569 15.6186 120.334C15.6626 119.351 15.8826 118.486 16.2786 117.738C16.6893 116.99 17.2686 116.403 18.0166 115.978C18.7646 115.553 19.6886 115.34 20.7886 115.34C21.8886 115.34 22.8126 115.553 23.5606 115.978C24.3086 116.403 24.8806 116.99 25.2766 117.738C25.6873 118.486 25.9146 119.351 25.9586 120.334C25.9733 120.569 25.9806 120.884 25.9806 121.28C25.9806 121.661 25.9733 121.977 25.9586 122.226C25.9146 123.194 25.6946 124.059 25.2986 124.822C24.9026 125.57 24.3306 126.157 23.5826 126.582C22.8346 127.007 21.9033 127.22 20.7886 127.22ZM20.7886 125.526C21.6979 125.526 22.4239 125.24 22.9666 124.668C23.5093 124.081 23.8026 123.231 23.8466 122.116C23.8613 121.896 23.8686 121.617 23.8686 121.28C23.8686 120.943 23.8613 120.664 23.8466 120.444C23.8026 119.329 23.5093 118.486 22.9666 117.914C22.4239 117.327 21.6979 117.034 20.7886 117.034C19.8793 117.034 19.1459 117.327 18.5886 117.914C18.0459 118.486 17.7599 119.329 17.7306 120.444C17.7159 120.664 17.7086 120.943 17.7086 121.28C17.7086 121.617 17.7159 121.896 17.7306 122.116C17.7599 123.231 18.0459 124.081 18.5886 124.668C19.1459 125.24 19.8793 125.526 20.7886 125.526ZM33.9714 127.22C32.6954 127.22 31.6248 127.029 30.7594 126.648C29.8941 126.252 29.2268 125.746 28.7574 125.13C28.3028 124.499 28.0608 123.832 28.0314 123.128C28.0314 123.011 28.0754 122.908 28.1634 122.82C28.2661 122.717 28.3834 122.666 28.5154 122.666H29.6374C29.8134 122.666 29.9454 122.71 30.0334 122.798C30.1214 122.886 30.1801 122.989 30.2094 123.106C30.2828 123.458 30.4588 123.81 30.7374 124.162C31.0308 124.499 31.4341 124.785 31.9474 125.02C32.4754 125.24 33.1501 125.35 33.9714 125.35C35.2328 125.35 36.1568 125.13 36.7434 124.69C37.3448 124.235 37.6454 123.634 37.6454 122.886C37.6454 122.373 37.4841 121.962 37.1614 121.654C36.8534 121.331 36.3768 121.045 35.7314 120.796C35.0861 120.547 34.2501 120.275 33.2234 119.982C32.1528 119.674 31.2654 119.337 30.5614 118.97C29.8574 118.603 29.3294 118.149 28.9774 117.606C28.6401 117.063 28.4714 116.374 28.4714 115.538C28.4714 114.746 28.6841 114.042 29.1094 113.426C29.5348 112.795 30.1434 112.297 30.9354 111.93C31.7421 111.563 32.7174 111.38 33.8614 111.38C34.7708 111.38 35.5628 111.505 36.2374 111.754C36.9268 111.989 37.4988 112.311 37.9534 112.722C38.4081 113.118 38.7528 113.551 38.9874 114.02C39.2221 114.475 39.3468 114.922 39.3614 115.362C39.3614 115.465 39.3248 115.567 39.2514 115.67C39.1781 115.758 39.0608 115.802 38.8994 115.802H37.7334C37.6308 115.802 37.5208 115.773 37.4034 115.714C37.3008 115.655 37.2201 115.545 37.1614 115.384C37.0734 114.783 36.7361 114.277 36.1494 113.866C35.5628 113.455 34.8001 113.25 33.8614 113.25C32.9081 113.25 32.1308 113.433 31.5294 113.8C30.9428 114.167 30.6494 114.739 30.6494 115.516C30.6494 116.015 30.7888 116.433 31.0674 116.77C31.3461 117.093 31.7861 117.379 32.3874 117.628C32.9888 117.877 33.7734 118.141 34.7414 118.42C35.9148 118.743 36.8754 119.087 37.6234 119.454C38.3714 119.806 38.9214 120.253 39.2734 120.796C39.6401 121.324 39.8234 122.006 39.8234 122.842C39.8234 123.766 39.5814 124.558 39.0974 125.218C38.6134 125.863 37.9314 126.362 37.0514 126.714C36.1861 127.051 35.1594 127.22 33.9714 127.22ZM46.975 127.22C45.4643 127.22 44.2616 126.758 43.367 125.834C42.4723 124.895 41.981 123.619 41.893 122.006C41.8783 121.815 41.871 121.573 41.871 121.28C41.871 120.972 41.8783 120.723 41.893 120.532C41.9516 119.491 42.1936 118.581 42.619 117.804C43.0443 117.012 43.6236 116.403 44.357 115.978C45.105 115.553 45.9776 115.34 46.975 115.34C48.0896 115.34 49.021 115.575 49.769 116.044C50.5316 116.513 51.111 117.181 51.507 118.046C51.903 118.911 52.101 119.923 52.101 121.082V121.456C52.101 121.617 52.0496 121.742 51.947 121.83C51.859 121.918 51.7416 121.962 51.595 121.962H43.983C43.983 121.977 43.983 122.006 43.983 122.05C43.983 122.094 43.983 122.131 43.983 122.16C44.0123 122.761 44.1443 123.326 44.379 123.854C44.6136 124.367 44.951 124.785 45.391 125.108C45.831 125.431 46.359 125.592 46.975 125.592C47.503 125.592 47.943 125.511 48.295 125.35C48.647 125.189 48.933 125.013 49.153 124.822C49.373 124.617 49.5196 124.463 49.593 124.36C49.725 124.169 49.8276 124.059 49.901 124.03C49.9743 123.986 50.0916 123.964 50.253 123.964H51.309C51.4556 123.964 51.573 124.008 51.661 124.096C51.7636 124.169 51.8076 124.279 51.793 124.426C51.7783 124.646 51.661 124.917 51.441 125.24C51.221 125.548 50.9056 125.856 50.495 126.164C50.0843 126.472 49.5856 126.729 48.999 126.934C48.4123 127.125 47.7376 127.22 46.975 127.22ZM43.983 120.444H50.011V120.378C50.011 119.718 49.8863 119.131 49.637 118.618C49.4023 118.105 49.0576 117.701 48.603 117.408C48.1483 117.1 47.6056 116.946 46.975 116.946C46.3443 116.946 45.8016 117.1 45.347 117.408C44.907 117.701 44.5696 118.105 44.335 118.618C44.1003 119.131 43.983 119.718 43.983 120.378V120.444ZM55.2375 127C55.0908 127 54.9662 126.956 54.8635 126.868C54.7755 126.765 54.7315 126.641 54.7315 126.494V116.088C54.7315 115.941 54.7755 115.817 54.8635 115.714C54.9662 115.611 55.0908 115.56 55.2375 115.56H56.2495C56.3962 115.56 56.5208 115.611 56.6235 115.714C56.7262 115.817 56.7775 115.941 56.7775 116.088V117.056C57.0708 116.557 57.4742 116.183 57.9875 115.934C58.5008 115.685 59.1168 115.56 59.8355 115.56H60.7155C60.8622 115.56 60.9795 115.611 61.0675 115.714C61.1555 115.802 61.1995 115.919 61.1995 116.066V116.968C61.1995 117.115 61.1555 117.232 61.0675 117.32C60.9795 117.408 60.8622 117.452 60.7155 117.452H59.3955C58.6035 117.452 57.9802 117.687 57.5255 118.156C57.0708 118.611 56.8435 119.234 56.8435 120.026V126.494C56.8435 126.641 56.7922 126.765 56.6895 126.868C56.5868 126.956 56.4622 127 56.3155 127H55.2375ZM67.0709 127C66.8509 127 66.6749 126.949 66.5429 126.846C66.4256 126.743 66.3303 126.611 66.2569 126.45L62.1869 116.242C62.1576 116.169 62.1429 116.095 62.1429 116.022C62.1429 115.89 62.1869 115.78 62.2749 115.692C62.3629 115.604 62.4729 115.56 62.6049 115.56H63.6609C63.8223 115.56 63.9469 115.604 64.0349 115.692C64.1229 115.78 64.1743 115.861 64.1889 115.934L67.5549 124.602L70.8989 115.934C70.9283 115.861 70.9796 115.78 71.0529 115.692C71.1409 115.604 71.2656 115.56 71.4269 115.56H72.5049C72.6223 115.56 72.7249 115.604 72.8129 115.692C72.9156 115.78 72.9669 115.89 72.9669 116.022C72.9669 116.095 72.9523 116.169 72.9229 116.242L68.8309 126.45C68.7723 126.611 68.6769 126.743 68.5449 126.846C68.4276 126.949 68.2516 127 68.0169 127H67.0709ZM75.7766 127C75.6299 127 75.5052 126.956 75.4026 126.868C75.3146 126.765 75.2706 126.641 75.2706 126.494V116.066C75.2706 115.919 75.3146 115.802 75.4026 115.714C75.5052 115.611 75.6299 115.56 75.7766 115.56H76.8326C76.9792 115.56 77.0966 115.611 77.1846 115.714C77.2726 115.802 77.3166 115.919 77.3166 116.066V126.494C77.3166 126.641 77.2726 126.765 77.1846 126.868C77.0966 126.956 76.9792 127 76.8326 127H75.7766ZM75.6006 113.426C75.4539 113.426 75.3292 113.382 75.2266 113.294C75.1386 113.191 75.0946 113.067 75.0946 112.92V111.732C75.0946 111.585 75.1386 111.468 75.2266 111.38C75.3292 111.277 75.4539 111.226 75.6006 111.226H76.9866C77.1332 111.226 77.2506 111.277 77.3386 111.38C77.4412 111.468 77.4926 111.585 77.4926 111.732V112.92C77.4926 113.067 77.4412 113.191 77.3386 113.294C77.2506 113.382 77.1332 113.426 76.9866 113.426H75.6006ZM85.2187 127.22C84.1774 127.22 83.2754 127.022 82.5127 126.626C81.7647 126.215 81.1854 125.636 80.7747 124.888C80.364 124.125 80.144 123.216 80.1147 122.16C80.1 121.94 80.0927 121.647 80.0927 121.28C80.0927 120.913 80.1 120.62 80.1147 120.4C80.144 119.344 80.364 118.442 80.7747 117.694C81.1854 116.931 81.7647 116.352 82.5127 115.956C83.2754 115.545 84.1774 115.34 85.2187 115.34C86.0694 115.34 86.7954 115.457 87.3967 115.692C88.0127 115.927 88.5187 116.227 88.9147 116.594C89.3107 116.961 89.604 117.357 89.7947 117.782C90 118.207 90.11 118.611 90.1247 118.992C90.1394 119.139 90.0954 119.256 89.9927 119.344C89.89 119.432 89.7654 119.476 89.6187 119.476H88.5627C88.416 119.476 88.306 119.447 88.2327 119.388C88.1594 119.315 88.086 119.197 88.0127 119.036C87.7487 118.317 87.3894 117.811 86.9347 117.518C86.48 117.225 85.9154 117.078 85.2407 117.078C84.3607 117.078 83.642 117.349 83.0847 117.892C82.542 118.435 82.2487 119.307 82.2047 120.51C82.19 121.038 82.19 121.551 82.2047 122.05C82.2487 123.267 82.542 124.147 83.0847 124.69C83.642 125.218 84.3607 125.482 85.2407 125.482C85.9154 125.482 86.48 125.335 86.9347 125.042C87.3894 124.749 87.7487 124.243 88.0127 123.524C88.086 123.363 88.1594 123.253 88.2327 123.194C88.306 123.121 88.416 123.084 88.5627 123.084H89.6187C89.7654 123.084 89.89 123.128 89.9927 123.216C90.0954 123.304 90.1394 123.421 90.1247 123.568C90.11 123.876 90.044 124.191 89.9267 124.514C89.8094 124.837 89.6187 125.167 89.3547 125.504C89.1054 125.827 88.79 126.12 88.4087 126.384C88.0274 126.633 87.5654 126.839 87.0227 127C86.4947 127.147 85.8934 127.22 85.2187 127.22ZM97.2914 127.22C95.7807 127.22 94.578 126.758 93.6834 125.834C92.7887 124.895 92.2974 123.619 92.2094 122.006C92.1947 121.815 92.1874 121.573 92.1874 121.28C92.1874 120.972 92.1947 120.723 92.2094 120.532C92.268 119.491 92.51 118.581 92.9354 117.804C93.3607 117.012 93.94 116.403 94.6734 115.978C95.4214 115.553 96.294 115.34 97.2914 115.34C98.406 115.34 99.3374 115.575 100.085 116.044C100.848 116.513 101.427 117.181 101.823 118.046C102.219 118.911 102.417 119.923 102.417 121.082V121.456C102.417 121.617 102.366 121.742 102.263 121.83C102.175 121.918 102.058 121.962 101.911 121.962H94.2994C94.2994 121.977 94.2994 122.006 94.2994 122.05C94.2994 122.094 94.2994 122.131 94.2994 122.16C94.3287 122.761 94.4607 123.326 94.6954 123.854C94.93 124.367 95.2674 124.785 95.7074 125.108C96.1474 125.431 96.6754 125.592 97.2914 125.592C97.8194 125.592 98.2594 125.511 98.6114 125.35C98.9634 125.189 99.2494 125.013 99.4694 124.822C99.6894 124.617 99.836 124.463 99.9094 124.36C100.041 124.169 100.144 124.059 100.217 124.03C100.291 123.986 100.408 123.964 100.569 123.964H101.625C101.772 123.964 101.889 124.008 101.977 124.096C102.08 124.169 102.124 124.279 102.109 124.426C102.095 124.646 101.977 124.917 101.757 125.24C101.537 125.548 101.222 125.856 100.811 126.164C100.401 126.472 99.902 126.729 99.3154 126.934C98.7287 127.125 98.054 127.22 97.2914 127.22ZM94.2994 120.444H100.327V120.378C100.327 119.718 100.203 119.131 99.9534 118.618C99.7187 118.105 99.374 117.701 98.9194 117.408C98.4647 117.1 97.922 116.946 97.2914 116.946C96.6607 116.946 96.118 117.1 95.6634 117.408C95.2234 117.701 94.886 118.105 94.6514 118.618C94.4167 119.131 94.2994 119.718 94.2994 120.378V120.444Z" fill="#646363"/>
</svg>
