<svg width="98" height="132" viewBox="0 0 98 132" fill="none" xmlns="http://www.w3.org/2000/svg">
<rect width="98" height="98" rx="24" fill="#E0FBD2"/>
<circle cx="26.5117" cy="66.7342" r="10.4465" fill="#00880C"/>
<circle cx="72.5537" cy="67.8949" r="10.4465" fill="#00880C"/>
<path d="M16.6455 44.6804C17.2207 47.7752 17.9843 46.6787 17.9997 47.0019C17.2259 47.9691 15.8717 49.2846 15.0979 51.4513C14.3241 53.618 18.3866 54.9334 18.5801 54.74C18.7735 54.5466 21.0562 52.612 27.092 52.612C33.1277 52.612 39.4085 58.996 39.8599 60.7371C40.6337 61.5109 40.8272 66.9276 39.8599 70.7966H48.7588H59.0118C58.5604 69.507 57.9285 66.0377 59.0118 62.4781C60.0952 58.9186 65.1378 54.8045 67.5238 53.1924C67.5238 53.1924 72.747 53.1924 74.1012 52.612C75.4554 52.0317 75.9196 52.0704 77.003 51.4513C78.0863 50.8323 77.8413 48.743 77.5833 47.7757L74.1012 39.6506L69.4583 33.6536L63.4613 28.6238C63.4613 28.6238 65.0089 29.7845 65.5892 29.2042C66.1695 28.6238 66.1696 28.0434 66.1696 28.0434C66.1696 28.0434 66.363 25.5286 65.3958 23.7875C64.4285 22.0464 61.5267 19.9184 61.5267 19.9184C61.5267 19.9184 57.6577 18.5642 56.6904 19.1446C55.7231 19.7249 55.3362 21.466 55.3362 21.466L55.7231 24.3678C55.7231 24.3678 52.4344 23.594 51.854 23.7875C51.2737 23.981 50.4998 25.5672 50.4998 26.4958C50.4998 27.4244 51.1447 27.9145 51.854 28.0434L56.6904 28.6238L57.6576 32.106L59.5922 39.6506L60.5595 47.0019L59.0118 55.5138C57.9156 56.997 55.3362 60.1567 55.3362 60.1567C55.3362 60.1567 53.0148 61.124 49.7261 60.7371C47.0951 60.4275 46.0504 57.6418 45.857 56.2876V50.8709C46.8243 50.742 48.9522 50.7549 49.7261 50.2906C50.2126 49.9987 50.852 48.7738 51.2598 47.9045C51.5379 47.3117 51.6883 46.6698 51.7426 46.0172C51.8169 45.1261 51.9231 44.2375 51.9647 43.3443C51.9986 42.6158 51.9957 41.7196 51.854 41.0048C51.4026 40.36 50.6934 40.0375 48.7588 39.2637C46.8242 38.4899 36.3777 38.103 36.3777 38.103C36.3777 38.103 25.9313 38.2964 23.2229 39.2637C21.0563 40.0375 19.1604 40.6179 19.1604 40.6179C19.1604 40.6179 16.0703 41.5856 16.6455 44.6804Z" fill="#00880C"/>
<path d="M20.002 127.22C18.7113 127.22 17.6113 126.978 16.702 126.494C15.8073 126.01 15.118 125.328 14.634 124.448C14.1647 123.568 13.9007 122.534 13.842 121.346C13.8273 120.701 13.82 120.019 13.82 119.3C13.82 118.567 13.8273 117.87 13.842 117.21C13.9007 116.022 14.1647 114.995 14.634 114.13C15.118 113.265 15.8147 112.59 16.724 112.106C17.6333 111.622 18.726 111.38 20.002 111.38C21.0433 111.38 21.9453 111.527 22.708 111.82C23.4707 112.113 24.094 112.487 24.578 112.942C25.0767 113.382 25.4433 113.844 25.678 114.328C25.9273 114.812 26.0593 115.237 26.074 115.604C26.0887 115.736 26.052 115.846 25.964 115.934C25.876 116.007 25.7587 116.044 25.612 116.044H24.314C24.1673 116.044 24.0573 116.015 23.984 115.956C23.9253 115.897 23.8667 115.795 23.808 115.648C23.676 115.267 23.456 114.893 23.148 114.526C22.8547 114.159 22.4513 113.859 21.938 113.624C21.4393 113.375 20.794 113.25 20.002 113.25C18.8433 113.25 17.9047 113.565 17.186 114.196C16.482 114.827 16.1007 115.868 16.042 117.32C15.998 118.625 15.998 119.931 16.042 121.236C16.1007 122.703 16.4893 123.759 17.208 124.404C17.9267 125.035 18.8653 125.35 20.024 125.35C20.8013 125.35 21.4907 125.211 22.092 124.932C22.708 124.639 23.192 124.191 23.544 123.59C23.896 122.989 24.072 122.226 24.072 121.302V120.378H20.772C20.6253 120.378 20.5007 120.334 20.398 120.246C20.31 120.143 20.266 120.011 20.266 119.85V119.146C20.266 118.985 20.31 118.86 20.398 118.772C20.5007 118.669 20.6253 118.618 20.772 118.618H25.744C25.9053 118.618 26.03 118.669 26.118 118.772C26.206 118.86 26.25 118.985 26.25 119.146V121.258C26.25 122.461 26.0007 123.509 25.502 124.404C25.018 125.299 24.3067 125.995 23.368 126.494C22.4293 126.978 21.3073 127.22 20.002 127.22ZM33.7886 127.22C32.6739 127.22 31.7426 127.007 30.9946 126.582C30.2466 126.157 29.6746 125.57 29.2786 124.822C28.8826 124.059 28.6626 123.194 28.6186 122.226C28.6039 121.977 28.5966 121.661 28.5966 121.28C28.5966 120.884 28.6039 120.569 28.6186 120.334C28.6626 119.351 28.8826 118.486 29.2786 117.738C29.6893 116.99 30.2686 116.403 31.0166 115.978C31.7646 115.553 32.6886 115.34 33.7886 115.34C34.8886 115.34 35.8126 115.553 36.5606 115.978C37.3086 116.403 37.8806 116.99 38.2766 117.738C38.6873 118.486 38.9146 119.351 38.9586 120.334C38.9733 120.569 38.9806 120.884 38.9806 121.28C38.9806 121.661 38.9733 121.977 38.9586 122.226C38.9146 123.194 38.6946 124.059 38.2986 124.822C37.9026 125.57 37.3306 126.157 36.5826 126.582C35.8346 127.007 34.9033 127.22 33.7886 127.22ZM33.7886 125.526C34.6979 125.526 35.4239 125.24 35.9666 124.668C36.5093 124.081 36.8026 123.231 36.8466 122.116C36.8613 121.896 36.8686 121.617 36.8686 121.28C36.8686 120.943 36.8613 120.664 36.8466 120.444C36.8026 119.329 36.5093 118.486 35.9666 117.914C35.4239 117.327 34.6979 117.034 33.7886 117.034C32.8793 117.034 32.1459 117.327 31.5886 117.914C31.0459 118.486 30.7599 119.329 30.7306 120.444C30.7159 120.664 30.7086 120.943 30.7086 121.28C30.7086 121.617 30.7159 121.896 30.7306 122.116C30.7599 123.231 31.0459 124.081 31.5886 124.668C32.1459 125.24 32.8793 125.526 33.7886 125.526ZM42.5274 127C42.3661 127 42.2414 126.956 42.1534 126.868C42.0654 126.765 42.0214 126.641 42.0214 126.494V112.128C42.0214 111.967 42.0654 111.842 42.1534 111.754C42.2414 111.651 42.3661 111.6 42.5274 111.6H47.8954C49.5528 111.6 50.8654 111.989 51.8334 112.766C52.8014 113.543 53.2854 114.695 53.2854 116.22C53.2854 117.349 52.9994 118.273 52.4274 118.992C51.8701 119.696 51.1074 120.187 50.1394 120.466L53.5274 126.318C53.5714 126.406 53.5934 126.487 53.5934 126.56C53.5934 126.677 53.5421 126.78 53.4394 126.868C53.3514 126.956 53.2488 127 53.1314 127H52.0754C51.8261 127 51.6428 126.934 51.5254 126.802C51.4081 126.67 51.3054 126.538 51.2174 126.406L48.0274 120.818H44.1774V126.494C44.1774 126.641 44.1261 126.765 44.0234 126.868C43.9354 126.956 43.8108 127 43.6494 127H42.5274ZM44.1774 118.948H47.8074C48.9074 118.948 49.7288 118.721 50.2714 118.266C50.8141 117.797 51.0854 117.107 51.0854 116.198C51.0854 115.303 50.8141 114.621 50.2714 114.152C49.7434 113.683 48.9221 113.448 47.8074 113.448H44.1774V118.948ZM56.6574 127C56.5108 127 56.3861 126.956 56.2834 126.868C56.1954 126.765 56.1514 126.641 56.1514 126.494V116.066C56.1514 115.919 56.1954 115.802 56.2834 115.714C56.3861 115.611 56.5108 115.56 56.6574 115.56H57.7134C57.8601 115.56 57.9774 115.611 58.0654 115.714C58.1534 115.802 58.1974 115.919 58.1974 116.066V126.494C58.1974 126.641 58.1534 126.765 58.0654 126.868C57.9774 126.956 57.8601 127 57.7134 127H56.6574ZM56.4814 113.426C56.3348 113.426 56.2101 113.382 56.1074 113.294C56.0194 113.191 55.9754 113.067 55.9754 112.92V111.732C55.9754 111.585 56.0194 111.468 56.1074 111.38C56.2101 111.277 56.3348 111.226 56.4814 111.226H57.8674C58.0141 111.226 58.1314 111.277 58.2194 111.38C58.3221 111.468 58.3734 111.585 58.3734 111.732V112.92C58.3734 113.067 58.3221 113.191 58.2194 113.294C58.1314 113.382 58.0141 113.426 57.8674 113.426H56.4814ZM65.6596 127.22C64.8529 127.22 64.1562 127.081 63.5696 126.802C62.9829 126.509 62.4989 126.12 62.1176 125.636C61.7509 125.137 61.4722 124.573 61.2816 123.942C61.1056 123.311 61.0029 122.644 60.9736 121.94C60.9589 121.705 60.9516 121.485 60.9516 121.28C60.9516 121.075 60.9589 120.855 60.9736 120.62C61.0029 119.931 61.1056 119.271 61.2816 118.64C61.4722 118.009 61.7509 117.445 62.1176 116.946C62.4989 116.447 62.9829 116.059 63.5696 115.78C64.1562 115.487 64.8529 115.34 65.6596 115.34C66.5249 115.34 67.2436 115.494 67.8156 115.802C68.3876 116.11 68.8569 116.491 69.2236 116.946V111.886C69.2236 111.739 69.2676 111.622 69.3556 111.534C69.4582 111.431 69.5829 111.38 69.7296 111.38H70.7856C70.9322 111.38 71.0496 111.431 71.1376 111.534C71.2402 111.622 71.2916 111.739 71.2916 111.886V126.494C71.2916 126.641 71.2402 126.765 71.1376 126.868C71.0496 126.956 70.9322 127 70.7856 127H69.7956C69.6342 127 69.5096 126.956 69.4216 126.868C69.3336 126.765 69.2896 126.641 69.2896 126.494V125.57C68.9229 126.039 68.4462 126.435 67.8596 126.758C67.2729 127.066 66.5396 127.22 65.6596 127.22ZM66.1216 125.438C66.8549 125.438 67.4416 125.269 67.8816 124.932C68.3216 124.595 68.6516 124.169 68.8716 123.656C69.0916 123.128 69.2089 122.593 69.2236 122.05C69.2382 121.815 69.2456 121.537 69.2456 121.214C69.2456 120.877 69.2382 120.591 69.2236 120.356C69.2089 119.843 69.0842 119.337 68.8496 118.838C68.6296 118.339 68.2922 117.929 67.8376 117.606C67.3976 117.283 66.8256 117.122 66.1216 117.122C65.3736 117.122 64.7796 117.291 64.3396 117.628C63.8996 117.951 63.5842 118.383 63.3936 118.926C63.2029 119.454 63.0929 120.026 63.0636 120.642C63.0489 121.067 63.0489 121.493 63.0636 121.918C63.0929 122.534 63.2029 123.113 63.3936 123.656C63.5842 124.184 63.8996 124.617 64.3396 124.954C64.7796 125.277 65.3736 125.438 66.1216 125.438ZM79.1175 127.22C77.6069 127.22 76.4042 126.758 75.5095 125.834C74.6149 124.895 74.1235 123.619 74.0355 122.006C74.0209 121.815 74.0135 121.573 74.0135 121.28C74.0135 120.972 74.0209 120.723 74.0355 120.532C74.0942 119.491 74.3362 118.581 74.7615 117.804C75.1869 117.012 75.7662 116.403 76.4995 115.978C77.2475 115.553 78.1202 115.34 79.1175 115.34C80.2322 115.34 81.1635 115.575 81.9115 116.044C82.6742 116.513 83.2535 117.181 83.6495 118.046C84.0455 118.911 84.2435 119.923 84.2435 121.082V121.456C84.2435 121.617 84.1922 121.742 84.0895 121.83C84.0015 121.918 83.8842 121.962 83.7375 121.962H76.1255C76.1255 121.977 76.1255 122.006 76.1255 122.05C76.1255 122.094 76.1255 122.131 76.1255 122.16C76.1549 122.761 76.2869 123.326 76.5215 123.854C76.7562 124.367 77.0935 124.785 77.5335 125.108C77.9735 125.431 78.5015 125.592 79.1175 125.592C79.6455 125.592 80.0855 125.511 80.4375 125.35C80.7895 125.189 81.0755 125.013 81.2955 124.822C81.5155 124.617 81.6622 124.463 81.7355 124.36C81.8675 124.169 81.9702 124.059 82.0435 124.03C82.1169 123.986 82.2342 123.964 82.3955 123.964H83.4515C83.5982 123.964 83.7155 124.008 83.8035 124.096C83.9062 124.169 83.9502 124.279 83.9355 124.426C83.9209 124.646 83.8035 124.917 83.5835 125.24C83.3635 125.548 83.0482 125.856 82.6375 126.164C82.2269 126.472 81.7282 126.729 81.1415 126.934C80.5549 127.125 79.8802 127.22 79.1175 127.22ZM76.1255 120.444H82.1535V120.378C82.1535 119.718 82.0289 119.131 81.7795 118.618C81.5449 118.105 81.2002 117.701 80.7455 117.408C80.2909 117.1 79.7482 116.946 79.1175 116.946C78.4869 116.946 77.9442 117.1 77.4895 117.408C77.0495 117.701 76.7122 118.105 76.4775 118.618C76.2429 119.131 76.1255 119.718 76.1255 120.378V120.444Z" fill="#646363"/>
</svg>
