<svg width="98" height="132" viewBox="0 0 98 132" fill="none" xmlns="http://www.w3.org/2000/svg">
<rect width="98" height="98" rx="24" fill="#FFE1DF"/>
<path d="M54.7346 28.2338C47.004 28.062 35.7661 28.878 31.1134 29.3074L30.0398 24.1537C29.8966 23.8674 29.3096 22.8653 28.1071 21.1474C26.9046 19.4295 25.1724 19 24.4566 19H20.806C19.6035 19 19.1597 20.4316 19.0881 21.1474C18.8734 22.4358 18.9163 25.1415 20.806 25.6569C22.6957 26.1722 23.3113 26.7306 23.3829 26.9453C24.5281 32.8864 27.0764 46.014 28.1071 50.9959C29.1378 55.9779 32.4019 59.3707 33.905 60.4444C34.8356 61.1602 38.3286 62.7636 44.8567 63.4507C53.0167 64.3097 62.2504 63.0213 66.7599 61.9476C71.2694 60.8739 74.6395 55.7684 74.92 54.6465C75.1347 53.7875 79 34.8906 79 33.1727C79 31.7984 76.8526 29.7369 75.7789 29.3074C71.9852 29.0211 62.4652 28.4055 54.7346 28.2338Z" fill="#EE2737"/>
<rect x="42.6211" y="36.6084" width="4.72423" height="18.4675" rx="2.36212" fill="#FFE1DF"/>
<rect x="56.3645" y="36.6084" width="4.72423" height="18.4675" rx="2.36212" fill="#FFE1DF"/>
<ellipse cx="40.0444" cy="72.6845" rx="5.58319" ry="5.58319" fill="#EE2737"/>
<ellipse cx="61.9477" cy="72.6845" rx="5.58319" ry="5.58319" fill="#EE2737"/>
<path d="M19.002 127.22C17.7113 127.22 16.6113 126.978 15.702 126.494C14.8073 126.01 14.118 125.328 13.634 124.448C13.1647 123.568 12.9007 122.534 12.842 121.346C12.8273 120.701 12.82 120.019 12.82 119.3C12.82 118.567 12.8273 117.87 12.842 117.21C12.9007 116.022 13.1647 114.995 13.634 114.13C14.118 113.265 14.8147 112.59 15.724 112.106C16.6333 111.622 17.726 111.38 19.002 111.38C20.0433 111.38 20.9453 111.527 21.708 111.82C22.4707 112.113 23.094 112.487 23.578 112.942C24.0767 113.382 24.4433 113.844 24.678 114.328C24.9273 114.812 25.0593 115.237 25.074 115.604C25.0887 115.736 25.052 115.846 24.964 115.934C24.876 116.007 24.7587 116.044 24.612 116.044H23.314C23.1673 116.044 23.0573 116.015 22.984 115.956C22.9253 115.897 22.8667 115.795 22.808 115.648C22.676 115.267 22.456 114.893 22.148 114.526C21.8547 114.159 21.4513 113.859 20.938 113.624C20.4393 113.375 19.794 113.25 19.002 113.25C17.8433 113.25 16.9047 113.565 16.186 114.196C15.482 114.827 15.1007 115.868 15.042 117.32C14.998 118.625 14.998 119.931 15.042 121.236C15.1007 122.703 15.4893 123.759 16.208 124.404C16.9267 125.035 17.8653 125.35 19.024 125.35C19.8013 125.35 20.4907 125.211 21.092 124.932C21.708 124.639 22.192 124.191 22.544 123.59C22.896 122.989 23.072 122.226 23.072 121.302V120.378H19.772C19.6253 120.378 19.5007 120.334 19.398 120.246C19.31 120.143 19.266 120.011 19.266 119.85V119.146C19.266 118.985 19.31 118.86 19.398 118.772C19.5007 118.669 19.6253 118.618 19.772 118.618H24.744C24.9053 118.618 25.03 118.669 25.118 118.772C25.206 118.86 25.25 118.985 25.25 119.146V121.258C25.25 122.461 25.0007 123.509 24.502 124.404C24.018 125.299 23.3067 125.995 22.368 126.494C21.4293 126.978 20.3073 127.22 19.002 127.22ZM32.7886 127.22C31.6739 127.22 30.7426 127.007 29.9946 126.582C29.2466 126.157 28.6746 125.57 28.2786 124.822C27.8826 124.059 27.6626 123.194 27.6186 122.226C27.6039 121.977 27.5966 121.661 27.5966 121.28C27.5966 120.884 27.6039 120.569 27.6186 120.334C27.6626 119.351 27.8826 118.486 28.2786 117.738C28.6893 116.99 29.2686 116.403 30.0166 115.978C30.7646 115.553 31.6886 115.34 32.7886 115.34C33.8886 115.34 34.8126 115.553 35.5606 115.978C36.3086 116.403 36.8806 116.99 37.2766 117.738C37.6873 118.486 37.9146 119.351 37.9586 120.334C37.9733 120.569 37.9806 120.884 37.9806 121.28C37.9806 121.661 37.9733 121.977 37.9586 122.226C37.9146 123.194 37.6946 124.059 37.2986 124.822C36.9026 125.57 36.3306 126.157 35.5826 126.582C34.8346 127.007 33.9033 127.22 32.7886 127.22ZM32.7886 125.526C33.6979 125.526 34.4239 125.24 34.9666 124.668C35.5093 124.081 35.8026 123.231 35.8466 122.116C35.8613 121.896 35.8686 121.617 35.8686 121.28C35.8686 120.943 35.8613 120.664 35.8466 120.444C35.8026 119.329 35.5093 118.486 34.9666 117.914C34.4239 117.327 33.6979 117.034 32.7886 117.034C31.8793 117.034 31.1459 117.327 30.5886 117.914C30.0459 118.486 29.7599 119.329 29.7306 120.444C29.7159 120.664 29.7086 120.943 29.7086 121.28C29.7086 121.617 29.7159 121.896 29.7306 122.116C29.7599 123.231 30.0459 124.081 30.5886 124.668C31.1459 125.24 31.8793 125.526 32.7886 125.526ZM41.5274 127C41.3808 127 41.2561 126.956 41.1534 126.868C41.0654 126.765 41.0214 126.641 41.0214 126.494V112.128C41.0214 111.967 41.0654 111.842 41.1534 111.754C41.2561 111.651 41.3808 111.6 41.5274 111.6H42.6274C42.8034 111.6 42.9354 111.644 43.0234 111.732C43.1114 111.82 43.1628 111.893 43.1774 111.952L47.8414 120.84L52.5274 111.952C52.5568 111.893 52.6081 111.82 52.6814 111.732C52.7694 111.644 52.9014 111.6 53.0774 111.6H54.1554C54.3168 111.6 54.4414 111.651 54.5294 111.754C54.6321 111.842 54.6834 111.967 54.6834 112.128V126.494C54.6834 126.641 54.6321 126.765 54.5294 126.868C54.4414 126.956 54.3168 127 54.1554 127H53.0774C52.9308 127 52.8061 126.956 52.7034 126.868C52.6154 126.765 52.5714 126.641 52.5714 126.494V115.67L48.8974 122.842C48.8388 122.989 48.7508 123.106 48.6334 123.194C48.5161 123.267 48.3694 123.304 48.1934 123.304H47.5114C47.3208 123.304 47.1668 123.267 47.0494 123.194C46.9468 123.106 46.8588 122.989 46.7854 122.842L43.1114 115.67V126.494C43.1114 126.641 43.0601 126.765 42.9574 126.868C42.8694 126.956 42.7521 127 42.6054 127H41.5274ZM61.3922 127.22C60.6589 127.22 59.9916 127.073 59.3902 126.78C58.7889 126.487 58.3049 126.091 57.9382 125.592C57.5716 125.093 57.3882 124.529 57.3882 123.898C57.3882 122.886 57.7989 122.079 58.6202 121.478C59.4416 120.877 60.5122 120.481 61.8322 120.29L65.1102 119.828V119.19C65.1102 118.486 64.9049 117.936 64.4942 117.54C64.0982 117.144 63.4456 116.946 62.5362 116.946C61.8762 116.946 61.3409 117.078 60.9302 117.342C60.5342 117.606 60.2556 117.943 60.0942 118.354C60.0062 118.574 59.8522 118.684 59.6322 118.684H58.6422C58.4809 118.684 58.3562 118.64 58.2682 118.552C58.1949 118.449 58.1582 118.332 58.1582 118.2C58.1582 117.98 58.2389 117.709 58.4002 117.386C58.5762 117.063 58.8402 116.748 59.1922 116.44C59.5442 116.132 59.9916 115.875 60.5342 115.67C61.0916 115.45 61.7662 115.34 62.5582 115.34C63.4382 115.34 64.1789 115.457 64.7802 115.692C65.3816 115.912 65.8509 116.213 66.1882 116.594C66.5402 116.975 66.7896 117.408 66.9362 117.892C67.0976 118.376 67.1782 118.867 67.1782 119.366V126.494C67.1782 126.641 67.1269 126.765 67.0242 126.868C66.9362 126.956 66.8189 127 66.6722 127H65.6602C65.4989 127 65.3742 126.956 65.2862 126.868C65.1982 126.765 65.1542 126.641 65.1542 126.494V125.548C64.9636 125.812 64.7069 126.076 64.3842 126.34C64.0616 126.589 63.6582 126.802 63.1742 126.978C62.6902 127.139 62.0962 127.22 61.3922 127.22ZM61.8542 125.57C62.4556 125.57 63.0056 125.445 63.5042 125.196C64.0029 124.932 64.3916 124.529 64.6702 123.986C64.9636 123.443 65.1102 122.761 65.1102 121.94V121.324L62.5582 121.698C61.5169 121.845 60.7322 122.094 60.2042 122.446C59.6762 122.783 59.4122 123.216 59.4122 123.744C59.4122 124.155 59.5296 124.499 59.7642 124.778C60.0136 125.042 60.3216 125.24 60.6882 125.372C61.0696 125.504 61.4582 125.57 61.8542 125.57ZM70.8469 127C70.7002 127 70.5756 126.956 70.4729 126.868C70.3849 126.765 70.3409 126.641 70.3409 126.494V116.088C70.3409 115.941 70.3849 115.817 70.4729 115.714C70.5756 115.611 70.7002 115.56 70.8469 115.56H71.8589C72.0056 115.56 72.1302 115.611 72.2329 115.714C72.3356 115.817 72.3869 115.941 72.3869 116.088V117.056C72.6802 116.557 73.0836 116.183 73.5969 115.934C74.1102 115.685 74.7262 115.56 75.4449 115.56H76.3249C76.4716 115.56 76.5889 115.611 76.6769 115.714C76.7649 115.802 76.8089 115.919 76.8089 116.066V116.968C76.8089 117.115 76.7649 117.232 76.6769 117.32C76.5889 117.408 76.4716 117.452 76.3249 117.452H75.0049C74.2129 117.452 73.5896 117.687 73.1349 118.156C72.6802 118.611 72.4529 119.234 72.4529 120.026V126.494C72.4529 126.641 72.4016 126.765 72.2989 126.868C72.1962 126.956 72.0716 127 71.9249 127H70.8469ZM83.1643 127C82.343 127 81.6756 126.846 81.1623 126.538C80.649 126.215 80.275 125.768 80.0403 125.196C79.8056 124.609 79.6883 123.92 79.6883 123.128V117.32H77.9723C77.8256 117.32 77.701 117.276 77.5983 117.188C77.5103 117.085 77.4663 116.961 77.4663 116.814V116.066C77.4663 115.919 77.5103 115.802 77.5983 115.714C77.701 115.611 77.8256 115.56 77.9723 115.56H79.6883V111.886C79.6883 111.739 79.7323 111.622 79.8203 111.534C79.923 111.431 80.0476 111.38 80.1943 111.38H81.2283C81.375 111.38 81.4923 111.431 81.5803 111.534C81.683 111.622 81.7343 111.739 81.7343 111.886V115.56H84.4623C84.609 115.56 84.7263 115.611 84.8143 115.714C84.917 115.802 84.9683 115.919 84.9683 116.066V116.814C84.9683 116.961 84.917 117.085 84.8143 117.188C84.7263 117.276 84.609 117.32 84.4623 117.32H81.7343V122.974C81.7343 123.663 81.8516 124.206 82.0863 124.602C82.321 124.998 82.739 125.196 83.3403 125.196H84.6823C84.829 125.196 84.9463 125.247 85.0343 125.35C85.137 125.438 85.1883 125.555 85.1883 125.702V126.494C85.1883 126.641 85.137 126.765 85.0343 126.868C84.9463 126.956 84.829 127 84.6823 127H83.1643Z" fill="#646363"/>
</svg>
