<svg width="98" height="132" viewBox="0 0 98 132" fill="none" xmlns="http://www.w3.org/2000/svg">
<rect width="98" height="98" rx="24" fill="#D3F4FB"/>
<rect x="27" y="19" width="43.5669" height="60" rx="12" fill="#00ADD6"/>
<rect x="32.7324" y="24.7324" width="32.1019" height="38.2166" rx="10" fill="#D3F4FB"/>
<ellipse cx="48.7835" cy="69.4458" rx="3.43949" ry="3.43949" fill="#D3F4FB"/>
<path d="M48.9744 33.5222V41.3566H54.898L48.7834 53.777L48.5923 45.3694H42.6687L48.9744 33.5222Z" fill="#00ADD6"/>
<path d="M14.502 127.22C13.2113 127.22 12.1113 126.978 11.202 126.494C10.3073 126.01 9.618 125.328 9.134 124.448C8.66467 123.568 8.40067 122.534 8.342 121.346C8.32733 120.701 8.32 120.019 8.32 119.3C8.32 118.567 8.32733 117.87 8.342 117.21C8.40067 116.022 8.66467 114.995 9.134 114.13C9.618 113.265 10.3147 112.59 11.224 112.106C12.1333 111.622 13.226 111.38 14.502 111.38C15.5433 111.38 16.4453 111.527 17.208 111.82C17.9707 112.113 18.594 112.487 19.078 112.942C19.5767 113.382 19.9433 113.844 20.178 114.328C20.4273 114.812 20.5593 115.237 20.574 115.604C20.5887 115.736 20.552 115.846 20.464 115.934C20.376 116.007 20.2587 116.044 20.112 116.044H18.814C18.6673 116.044 18.5573 116.015 18.484 115.956C18.4253 115.897 18.3667 115.795 18.308 115.648C18.176 115.267 17.956 114.893 17.648 114.526C17.3547 114.159 16.9513 113.859 16.438 113.624C15.9393 113.375 15.294 113.25 14.502 113.25C13.3433 113.25 12.4047 113.565 11.686 114.196C10.982 114.827 10.6007 115.868 10.542 117.32C10.498 118.625 10.498 119.931 10.542 121.236C10.6007 122.703 10.9893 123.759 11.708 124.404C12.4267 125.035 13.3653 125.35 14.524 125.35C15.3013 125.35 15.9907 125.211 16.592 124.932C17.208 124.639 17.692 124.191 18.044 123.59C18.396 122.989 18.572 122.226 18.572 121.302V120.378H15.272C15.1253 120.378 15.0007 120.334 14.898 120.246C14.81 120.143 14.766 120.011 14.766 119.85V119.146C14.766 118.985 14.81 118.86 14.898 118.772C15.0007 118.669 15.1253 118.618 15.272 118.618H20.244C20.4053 118.618 20.53 118.669 20.618 118.772C20.706 118.86 20.75 118.985 20.75 119.146V121.258C20.75 122.461 20.5007 123.509 20.002 124.404C19.518 125.299 18.8067 125.995 17.868 126.494C16.9293 126.978 15.8073 127.22 14.502 127.22ZM28.2886 127.22C27.1739 127.22 26.2426 127.007 25.4946 126.582C24.7466 126.157 24.1746 125.57 23.7786 124.822C23.3826 124.059 23.1626 123.194 23.1186 122.226C23.1039 121.977 23.0966 121.661 23.0966 121.28C23.0966 120.884 23.1039 120.569 23.1186 120.334C23.1626 119.351 23.3826 118.486 23.7786 117.738C24.1893 116.99 24.7686 116.403 25.5166 115.978C26.2646 115.553 27.1886 115.34 28.2886 115.34C29.3886 115.34 30.3126 115.553 31.0606 115.978C31.8086 116.403 32.3806 116.99 32.7766 117.738C33.1873 118.486 33.4146 119.351 33.4586 120.334C33.4733 120.569 33.4806 120.884 33.4806 121.28C33.4806 121.661 33.4733 121.977 33.4586 122.226C33.4146 123.194 33.1946 124.059 32.7986 124.822C32.4026 125.57 31.8306 126.157 31.0826 126.582C30.3346 127.007 29.4033 127.22 28.2886 127.22ZM28.2886 125.526C29.1979 125.526 29.9239 125.24 30.4666 124.668C31.0093 124.081 31.3026 123.231 31.3466 122.116C31.3613 121.896 31.3686 121.617 31.3686 121.28C31.3686 120.943 31.3613 120.664 31.3466 120.444C31.3026 119.329 31.0093 118.486 30.4666 117.914C29.9239 117.327 29.1979 117.034 28.2886 117.034C27.3793 117.034 26.6459 117.327 26.0886 117.914C25.5459 118.486 25.2599 119.329 25.2306 120.444C25.2159 120.664 25.2086 120.943 25.2086 121.28C25.2086 121.617 25.2159 121.896 25.2306 122.116C25.2599 123.231 25.5459 124.081 26.0886 124.668C26.6459 125.24 27.3793 125.526 28.2886 125.526ZM37.0274 127C36.8661 127 36.7414 126.956 36.6534 126.868C36.5654 126.765 36.5214 126.641 36.5214 126.494V112.128C36.5214 111.967 36.5654 111.842 36.6534 111.754C36.7414 111.651 36.8661 111.6 37.0274 111.6H42.6154C43.7008 111.6 44.6394 111.776 45.4314 112.128C46.2381 112.48 46.8614 113.008 47.3014 113.712C47.7414 114.401 47.9614 115.267 47.9614 116.308C47.9614 117.349 47.7414 118.215 47.3014 118.904C46.8614 119.593 46.2381 120.114 45.4314 120.466C44.6394 120.818 43.7008 120.994 42.6154 120.994H38.7214V126.494C38.7214 126.641 38.6701 126.765 38.5674 126.868C38.4794 126.956 38.3548 127 38.1934 127H37.0274ZM38.6994 119.146H42.5054C43.5908 119.146 44.4048 118.904 44.9474 118.42C45.4901 117.936 45.7614 117.232 45.7614 116.308C45.7614 115.399 45.4974 114.695 44.9694 114.196C44.4414 113.697 43.6201 113.448 42.5054 113.448H38.6994V119.146ZM54.6187 127.22C53.68 127.22 52.8807 127.015 52.2207 126.604C51.5753 126.179 51.084 125.592 50.7467 124.844C50.4093 124.096 50.2407 123.238 50.2407 122.27V116.066C50.2407 115.919 50.2847 115.802 50.3727 115.714C50.4753 115.611 50.6 115.56 50.7467 115.56H51.8467C51.9933 115.56 52.1107 115.611 52.1987 115.714C52.3013 115.802 52.3527 115.919 52.3527 116.066V122.16C52.3527 124.345 53.306 125.438 55.2127 125.438C56.122 125.438 56.848 125.152 57.3907 124.58C57.948 123.993 58.2267 123.187 58.2267 122.16V116.066C58.2267 115.919 58.2707 115.802 58.3587 115.714C58.4613 115.611 58.586 115.56 58.7327 115.56H59.8107C59.972 115.56 60.0967 115.611 60.1847 115.714C60.2727 115.802 60.3167 115.919 60.3167 116.066V126.494C60.3167 126.641 60.2727 126.765 60.1847 126.868C60.0967 126.956 59.972 127 59.8107 127H58.7987C58.652 127 58.5273 126.956 58.4247 126.868C58.3367 126.765 58.2927 126.641 58.2927 126.494V125.526C57.8967 126.039 57.4127 126.45 56.8407 126.758C56.2833 127.066 55.5427 127.22 54.6187 127.22ZM64.113 127C63.9664 127 63.8417 126.956 63.739 126.868C63.651 126.765 63.607 126.641 63.607 126.494V111.886C63.607 111.739 63.651 111.622 63.739 111.534C63.8417 111.431 63.9664 111.38 64.113 111.38H65.147C65.3084 111.38 65.433 111.431 65.521 111.534C65.609 111.622 65.653 111.739 65.653 111.886V126.494C65.653 126.641 65.609 126.765 65.521 126.868C65.433 126.956 65.3084 127 65.147 127H64.113ZM72.8946 127.22C72.0733 127.22 71.3693 127.117 70.7826 126.912C70.196 126.707 69.7193 126.457 69.3526 126.164C68.986 125.871 68.7073 125.577 68.5166 125.284C68.3406 124.991 68.2453 124.756 68.2306 124.58C68.216 124.419 68.2673 124.294 68.3846 124.206C68.502 124.118 68.6193 124.074 68.7366 124.074H69.7046C69.7926 124.074 69.8586 124.089 69.9026 124.118C69.9613 124.133 70.0346 124.191 70.1226 124.294C70.3133 124.499 70.526 124.705 70.7606 124.91C70.9953 125.115 71.2813 125.284 71.6186 125.416C71.9706 125.548 72.4033 125.614 72.9166 125.614C73.6646 125.614 74.2806 125.475 74.7646 125.196C75.2486 124.903 75.4906 124.477 75.4906 123.92C75.4906 123.553 75.388 123.26 75.1826 123.04C74.992 122.82 74.64 122.622 74.1266 122.446C73.628 122.27 72.9386 122.087 72.0586 121.896C71.1786 121.691 70.482 121.441 69.9686 121.148C69.4553 120.84 69.0886 120.481 68.8686 120.07C68.6486 119.645 68.5386 119.168 68.5386 118.64C68.5386 118.097 68.7 117.577 69.0226 117.078C69.3453 116.565 69.8146 116.147 70.4306 115.824C71.0613 115.501 71.846 115.34 72.7846 115.34C73.5473 115.34 74.2 115.435 74.7426 115.626C75.2853 115.817 75.7326 116.059 76.0846 116.352C76.4366 116.631 76.7006 116.909 76.8766 117.188C77.0526 117.467 77.148 117.701 77.1626 117.892C77.1773 118.039 77.1333 118.163 77.0306 118.266C76.928 118.354 76.8106 118.398 76.6786 118.398H75.7546C75.652 118.398 75.564 118.376 75.4906 118.332C75.432 118.288 75.3733 118.237 75.3146 118.178C75.168 117.987 74.992 117.797 74.7866 117.606C74.596 117.415 74.3393 117.261 74.0166 117.144C73.7086 117.012 73.298 116.946 72.7846 116.946C72.0513 116.946 71.5013 117.1 71.1346 117.408C70.768 117.716 70.5846 118.105 70.5846 118.574C70.5846 118.853 70.6653 119.102 70.8266 119.322C70.988 119.542 71.296 119.74 71.7506 119.916C72.2053 120.092 72.88 120.283 73.7746 120.488C74.7426 120.679 75.5053 120.935 76.0626 121.258C76.62 121.581 77.016 121.955 77.2506 122.38C77.4853 122.805 77.6026 123.297 77.6026 123.854C77.6026 124.47 77.4193 125.035 77.0526 125.548C76.7006 126.061 76.1726 126.472 75.4686 126.78C74.7793 127.073 73.9213 127.22 72.8946 127.22ZM83.3395 127.22C82.6062 127.22 81.9388 127.073 81.3375 126.78C80.7362 126.487 80.2522 126.091 79.8855 125.592C79.5188 125.093 79.3355 124.529 79.3355 123.898C79.3355 122.886 79.7462 122.079 80.5675 121.478C81.3888 120.877 82.4595 120.481 83.7795 120.29L87.0575 119.828V119.19C87.0575 118.486 86.8522 117.936 86.4415 117.54C86.0455 117.144 85.3928 116.946 84.4835 116.946C83.8235 116.946 83.2882 117.078 82.8775 117.342C82.4815 117.606 82.2028 117.943 82.0415 118.354C81.9535 118.574 81.7995 118.684 81.5795 118.684H80.5895C80.4282 118.684 80.3035 118.64 80.2155 118.552C80.1422 118.449 80.1055 118.332 80.1055 118.2C80.1055 117.98 80.1862 117.709 80.3475 117.386C80.5235 117.063 80.7875 116.748 81.1395 116.44C81.4915 116.132 81.9388 115.875 82.4815 115.67C83.0388 115.45 83.7135 115.34 84.5055 115.34C85.3855 115.34 86.1262 115.457 86.7275 115.692C87.3288 115.912 87.7982 116.213 88.1355 116.594C88.4875 116.975 88.7368 117.408 88.8835 117.892C89.0448 118.376 89.1255 118.867 89.1255 119.366V126.494C89.1255 126.641 89.0742 126.765 88.9715 126.868C88.8835 126.956 88.7662 127 88.6195 127H87.6075C87.4462 127 87.3215 126.956 87.2335 126.868C87.1455 126.765 87.1015 126.641 87.1015 126.494V125.548C86.9108 125.812 86.6542 126.076 86.3315 126.34C86.0088 126.589 85.6055 126.802 85.1215 126.978C84.6375 127.139 84.0435 127.22 83.3395 127.22ZM83.8015 125.57C84.4028 125.57 84.9528 125.445 85.4515 125.196C85.9502 124.932 86.3388 124.529 86.6175 123.986C86.9108 123.443 87.0575 122.761 87.0575 121.94V121.324L84.5055 121.698C83.4642 121.845 82.6795 122.094 82.1515 122.446C81.6235 122.783 81.3595 123.216 81.3595 123.744C81.3595 124.155 81.4768 124.499 81.7115 124.778C81.9608 125.042 82.2688 125.24 82.6355 125.372C83.0168 125.504 83.4055 125.57 83.8015 125.57Z" fill="#646363"/>
</svg>
