<svg width="35" height="40" viewBox="0 0 35 40" fill="none" xmlns="http://www.w3.org/2000/svg">
<path fill-rule="evenodd" clip-rule="evenodd" d="M34.3078 17.1424C34.3078 31.4288 20.0129 40 17.1539 40C14.2949 40 0 31.4288 0 17.1424C0.00227419 12.5947 1.81065 8.23405 5.02746 5.01938C8.24427 1.80471 12.6061 -0.000758413 17.1539 2.38991e-07C26.6257 2.38991e-07 34.3078 7.67636 34.3078 17.1424Z" fill="#FF3B30"/>
<path fill-rule="evenodd" clip-rule="evenodd" d="M17.154 22.8575C18.67 22.8575 20.124 22.2555 21.1962 21.1838C22.2684 20.1121 22.8712 18.6584 22.872 17.1424C22.872 15.6259 22.2695 14.1715 21.1972 13.0992C20.1249 12.0269 18.6705 11.4244 17.154 11.4244C15.6375 11.4244 14.1831 12.0269 13.1108 13.0992C12.0385 14.1715 11.436 15.6259 11.436 17.1424C11.4368 18.6584 12.0396 20.1121 13.1118 21.1838C14.184 22.2555 15.638 22.8575 17.154 22.8575Z" fill="white"/>
</svg>
