<svg width="291" height="279" viewBox="0 0 291 279" fill="none" xmlns="http://www.w3.org/2000/svg">
<path d="M284.167 155.236C292.087 146.187 292.087 132.674 284.167 123.625L270.956 108.53C266.625 103.581 264.514 97.0711 265.118 90.5221L266.958 70.5471C268.062 58.5649 260.122 47.6174 248.39 44.9448L228.896 40.5041C222.475 39.0415 216.937 35.0047 213.58 29.3395L203.395 12.1533C197.242 1.77211 184.339 -2.42662 173.255 2.34634L154.993 10.2111C148.933 12.8206 142.067 12.8206 136.007 10.2111L117.745 2.34635C106.661 -2.42661 93.7576 1.77212 87.6053 12.1533L77.4393 29.3072C74.0707 34.9913 68.5077 39.0353 62.0615 40.4858L42.6773 44.8477C30.9144 47.4946 22.9412 58.4577 24.0473 70.4639L25.8847 90.4082C26.4866 96.9424 24.3869 103.438 20.0742 108.384L6.7802 123.628C-1.11273 132.679 -1.10073 146.171 6.8083 155.208L20.0461 170.334C24.376 175.281 26.4867 181.789 25.8852 188.336L24.0365 208.458C22.9358 220.438 30.875 231.382 42.6052 234.054L62.1042 238.496C68.525 239.959 74.0628 243.995 77.4202 249.661L87.5783 266.801C93.7422 277.202 106.68 281.394 117.772 276.584L135.985 268.688C142.057 266.055 148.947 266.046 155.025 268.664L173.255 276.515C184.339 281.288 197.242 277.089 203.395 266.708L213.58 249.521C216.937 243.856 222.475 239.82 228.896 238.357L248.39 233.916C260.122 231.244 268.062 220.296 266.958 208.314L265.118 188.339C264.514 181.79 266.625 175.28 270.956 170.331L284.167 155.236ZM122.715 207.469C122.005 208.146 120.91 208.208 120.128 207.617L62.275 163.859C61.2965 163.119 61.2088 161.681 62.0902 160.828L86.2105 137.472C87.438 136.283 89.4088 136.359 90.5422 137.637L116.222 166.604C117.455 167.995 119.643 167.941 120.807 166.491L191.235 78.7176C191.982 77.7866 193.373 77.713 194.214 78.5601L223.764 108.321C224.553 109.116 224.536 110.405 223.725 111.178L122.715 207.469Z" fill="#FFFEFF"/>
</svg>
